<?xml version="1.0" encoding="iso-8859-1"?>
<!-- Generator: Adobe Illustrator 19.0.0, SVG Export Plug-In . SVG Version: 6.00 Build 0)  -->
<svg version="1.1" id="Capa_1" xmlns="http://www.w3.org/2000/svg" xmlns:xlink="http://www.w3.org/1999/xlink" x="0px" y="0px"
	 viewBox="0 0 512 512" style="enable-background:new 0 0 512 512;" xml:space="preserve">
<circle style="fill:#008FF9;" cx="256" cy="256" r="256"/>
<path style="fill:#005FF7;" d="M512,256c0-4.156-0.108-8.287-0.303-12.395L364.504,96.413L118.365,387.739l123.892,123.892
	C246.808,511.872,251.389,512,256,512C397.385,512,512,397.385,512,256z"/>
<path style="fill:#495959;" d="M125.411,476.213C163.647,498.936,208.295,512,256,512s92.353-13.064,130.589-35.787L343.893,369
	H168.107L125.411,476.213z"/>
<path style="fill:#323C3C;" d="M386.589,476.213L343.893,369h-88.322v142.996c0.143,0,0.286,0.004,0.429,0.004
	C303.705,512,348.353,498.936,386.589,476.213z"/>
<path style="fill:#55696E;" d="M164.242,495.045C192.729,505.987,223.66,512,256,512s63.271-6.013,91.758-16.955l-29.164-121.379
	H193.406L164.242,495.045z"/>
<path style="fill:#495959;" d="M347.758,495.045l-29.164-121.379h-63.023v138.328c0.143,0,0.285,0.005,0.429,0.005
	C288.34,512,319.271,505.987,347.758,495.045z"/>
<path style="fill:#FFFFFF;" d="M366.704,399.384H145.296c-21.94,0-39.061-18.983-36.805-40.807l24.008-232.201
	c2.502-24.196,22.89-42.585,47.215-42.585h152.572c24.325,0,44.713,18.389,47.215,42.585l24.008,232.201
	C405.765,380.401,388.644,399.384,366.704,399.384z"/>
<path style="fill:#F0F0F0;" d="M403.509,358.577l-24.008-232.201c-2.501-24.196-22.89-42.585-47.215-42.585h-76.715v315.592h111.132
	C388.644,399.384,405.765,380.401,403.509,358.577z"/>
<path style="fill:#FFDA00;" d="M391.352,241H120.648l-12.156,117.577c-2.256,21.824,14.865,40.807,36.805,40.807h221.407
	c21.94,0,39.062-18.983,36.805-40.807L391.352,241z"/>
<path style="fill:#FFB600;" d="M403.509,358.577L391.352,241H255.571v158.384h111.132
	C388.644,399.384,405.765,380.401,403.509,358.577z"/>
<path style="fill:#87C7FF;" d="M355.821,133.479c-1.589-14.548-14.536-25.605-29.984-25.605H186.162
	c-15.448,0-28.395,11.057-29.984,25.605L142.035,263h227.93L355.821,133.479z"/>
<path style="fill:#65B1FC;" d="M355.821,133.479c-1.589-14.548-14.536-25.605-29.984-25.605h-70.266V263h114.394L355.821,133.479z"
	/>
<path style="fill:#005FF7;" d="M365.835,330.461h-53.133v-12.424c0-10.699,6.267-20.407,16.018-24.811l16.207-7.32
	c14.475-6.538,30.872,4.048,30.872,19.931v14.662C375.798,326.001,371.338,330.461,365.835,330.461z"/>
<path style="fill:#008FF9;" d="M146.165,330.461h53.133v-12.424c0-10.699-6.267-20.407-16.018-24.811l-16.207-7.32
	c-14.475-6.538-30.872,4.048-30.872,19.931v14.662C136.202,326.001,140.662,330.461,146.165,330.461z"/>
<g>
</g>
<g>
</g>
<g>
</g>
<g>
</g>
<g>
</g>
<g>
</g>
<g>
</g>
<g>
</g>
<g>
</g>
<g>
</g>
<g>
</g>
<g>
</g>
<g>
</g>
<g>
</g>
<g>
</g>
</svg>
