<?xml version="1.0" encoding="iso-8859-1"?>
<!-- Generator: Adobe Illustrator 19.0.0, SVG Export Plug-In . SVG Version: 6.00 Build 0)  -->
<svg version="1.1" id="Capa_1" xmlns="http://www.w3.org/2000/svg" xmlns:xlink="http://www.w3.org/1999/xlink" x="0px" y="0px"
	 viewBox="0 0 512 512" style="enable-background:new 0 0 512 512;" xml:space="preserve">
<circle style="fill:#FFDA00;" cx="256" cy="256" r="256"/>
<path style="fill:#FFB600;" d="M407.667,155.333L103.262,182l-12.81,269.252C135.087,489.135,192.869,512,256,512
	c140.174,0,254.015-112.666,255.954-252.379L407.667,155.333z"/>
<polygon style="fill:#D30F0F;" points="411.667,254.879 445.64,261.473 407.667,155.333 104.333,155.333 66.36,261.473 
	100.333,254.879 103.262,182 408.738,182 "/>
<polygon style="fill:#B20B0B;" points="407.667,155.333 256,155.333 256,182 408.738,182 411.667,254.879 445.64,261.473 "/>
<path style="fill:#FFFFFF;" d="M403,276.333H109v-39.796c0-21.468,17.403-38.871,38.871-38.871H364.13
	c21.468,0,38.871,17.403,38.871,38.871v39.796H403z"/>
<path style="fill:#F0F0F0;" d="M403,236.537c0-21.468-17.403-38.871-38.871-38.871H256v78.667h147V236.537z"/>
<polygon style="fill:#F42727;" points="397.111,422.459 114.889,422.459 60,259.707 256,221.667 452,259.707 "/>
<polygon style="fill:#D30F0F;" points="255.571,422.459 397.111,422.459 452,259.707 256,221.667 "/>
<path style="fill:#008FF9;" d="M499.883,334c-24.392,0-24.392,22.431-48.783,22.431c-24.392,0-24.392-22.431-48.783-22.431
	c-24.388,0-24.388,22.431-48.776,22.431c-24.389,0-24.389-22.431-48.778-22.431c-24.388,0-24.388,22.431-48.776,22.431
	C231.6,356.431,231.6,334,207.212,334c-24.385,0-24.385,22.431-48.769,22.431c-24.387,0-24.387-22.431-48.774-22.431
	c-24.388,0-24.388,22.431-48.776,22.431S36.505,334,12.117,334C45.109,437.238,141.817,512,256,512S466.891,437.238,499.883,334z"/>
<path style="fill:#005FF7;" d="M451.099,356.431c-24.391,0-24.391-22.431-48.783-22.431c-24.388,0-24.388,22.431-48.776,22.431
	c-24.389,0-24.389-22.431-48.778-22.431c-24.388,0-24.388,22.431-48.776,22.431c-0.143,0-0.274-0.01-0.415-0.012v155.576
	c0.143,0,0.285,0.004,0.429,0.004c114.183,0,210.891-74.762,243.883-178C475.491,334,475.491,356.431,451.099,356.431z"/>
<g>
</g>
<g>
</g>
<g>
</g>
<g>
</g>
<g>
</g>
<g>
</g>
<g>
</g>
<g>
</g>
<g>
</g>
<g>
</g>
<g>
</g>
<g>
</g>
<g>
</g>
<g>
</g>
<g>
</g>
</svg>
