<?xml version="1.0" encoding="iso-8859-1"?>
<!-- Generator: Adobe Illustrator 19.0.0, SVG Export Plug-In . SVG Version: 6.00 Build 0)  -->
<svg version="1.1" id="Capa_1" xmlns="http://www.w3.org/2000/svg" xmlns:xlink="http://www.w3.org/1999/xlink" x="0px" y="0px"
	 viewBox="0 0 512 512" style="enable-background:new 0 0 512 512;" xml:space="preserve">
<circle style="fill:#495959;" cx="256" cy="256" r="256"/>
<path style="fill:#323C3C;" d="M96.333,131.845l325.279,319.353C476.904,404.24,512,334.224,512,256
	c0-21.182-2.591-41.756-7.44-61.44l-88.893-88.893L96.333,131.845z"/>
<rect x="104.33" y="115.67" style="fill:#E1E1E6;" width="303.33" height="197.33"/>
<rect x="256" y="115.67" style="fill:#D2D2D7;" width="151.67" height="197.33"/>
<rect x="286.19" y="150.67" style="fill:#9B9696;" width="96.14" height="149.33"/>
<rect x="141.67" y="150.67" style="fill:#B4AAAA;" width="90.67" height="76"/>
<polygon style="fill:#FFFFFF;" points="400.711,422.459 111.289,422.459 55,259.707 256,241.607 457,259.707 "/>
<polygon style="fill:#F0F0F0;" points="255.571,422.459 400.711,422.459 457,259.708 256,241.607 "/>
<path style="fill:#008FF9;" d="M499.883,334c-24.392,0-24.392,22.431-48.783,22.431c-24.392,0-24.392-22.431-48.783-22.431
	c-24.388,0-24.388,22.431-48.776,22.431c-24.389,0-24.389-22.431-48.778-22.431c-24.388,0-24.388,22.431-48.776,22.431
	C231.6,356.431,231.6,334,207.212,334c-24.385,0-24.385,22.431-48.769,22.431c-24.387,0-24.387-22.431-48.774-22.431
	c-24.388,0-24.388,22.431-48.776,22.431S36.505,334,12.117,334C45.109,437.238,141.817,512,256,512S466.891,437.238,499.883,334z"/>
<path style="fill:#005FF7;" d="M451.1,356.432c-24.392,0-24.392-22.432-48.783-22.432c-24.388,0-24.388,22.432-48.776,22.432
	c-24.389,0-24.389-22.432-48.778-22.432c-24.388,0-24.388,22.432-48.776,22.432c-0.143,0-0.274-0.011-0.415-0.012v155.576
	c0.143,0,0.286,0.004,0.429,0.004c114.183,0,210.891-74.762,243.883-178C475.491,334,475.491,356.432,451.1,356.432z"/>
<rect x="96.33" y="105.67" style="fill:#FFDA00;" width="319.33" height="26.18"/>
<rect x="256" y="105.67" style="fill:#FFB600;" width="159.67" height="26.18"/>
<g>
</g>
<g>
</g>
<g>
</g>
<g>
</g>
<g>
</g>
<g>
</g>
<g>
</g>
<g>
</g>
<g>
</g>
<g>
</g>
<g>
</g>
<g>
</g>
<g>
</g>
<g>
</g>
<g>
</g>
</svg>
