<?xml version="1.0" encoding="iso-8859-1"?>
<!-- Generator: Adobe Illustrator 19.0.0, SVG Export Plug-In . SVG Version: 6.00 Build 0)  -->
<svg version="1.1" id="Capa_1" xmlns="http://www.w3.org/2000/svg" xmlns:xlink="http://www.w3.org/1999/xlink" x="0px" y="0px"
	 viewBox="0 0 512 512" style="enable-background:new 0 0 512 512;" xml:space="preserve">
<circle style="fill:#FFDA00;" cx="256" cy="256" r="256"/>
<path style="fill:#FFB600;" d="M512,256c0-10.413-0.638-20.676-1.846-30.764L400.636,115.719l-33.132,13.395l-23.69-23.69
	l-232.451,18.31v13.293l312.369,312.37C477.805,402.459,512,333.224,512,256z"/>
<polygon style="fill:#55696E;" points="368.066,264.213 143.934,264.213 189.01,115.11 322.99,115.11 "/>
<polygon style="fill:#495959;" points="322.99,115.11 255.571,115.11 255.571,264.213 368.066,264.213 "/>
<polygon style="fill:#738C96;" points="289.789,264.213 222.211,264.213 235.802,115.11 276.198,115.11 "/>
<polygon style="fill:#607882;" points="276.198,115.11 256,115.11 256,264.213 289.789,264.213 "/>
<path style="fill:#495959;" d="M256,454.951L256,454.951c-64.509,0-120.915-44.189-137.339-107.593l-14.711-95.534L256,235.413
	l152.05,16.41l-14.711,95.534C376.915,410.761,320.509,454.951,256,454.951z"/>
<g>
	<path style="fill:#3F4A4A;" d="M256,235.413l-0.429,0.046v219.487c0.143,0,0.285,0.005,0.429,0.005l0,0
		c64.509,0,120.915-44.189,137.339-107.593l14.711-95.534L256,235.413z"/>
	<path style="fill:#3F4A4A;" d="M256,235.413l-52.293,5.644l4.872,91.634c5.671,63.404,25.147,107.593,47.421,107.593l0,0
		c22.274,0,41.75-44.189,47.421-107.593l4.872-91.634L256,235.413z"/>
</g>
<path style="fill:#323C3C;" d="M255.571,440.271c0.143,0.004,0.286,0.013,0.429,0.013c22.274,0,41.75-44.189,47.421-107.593
	l4.872-91.634L256,235.413L255.571,440.271z"/>
<path style="fill:#008FF9;" d="M499.883,334c-24.392,0-24.392,22.431-48.783,22.431c-24.392,0-24.392-22.431-48.783-22.431
	c-24.388,0-24.388,22.431-48.776,22.431c-24.389,0-24.389-22.431-48.778-22.431c-24.388,0-24.388,22.431-48.776,22.431
	C231.6,356.431,231.6,334,207.212,334c-24.385,0-24.385,22.431-48.769,22.431c-24.387,0-24.387-22.431-48.774-22.431
	c-24.388,0-24.388,22.431-48.776,22.431S36.505,334,12.117,334C45.109,437.238,141.817,512,256,512S466.891,437.238,499.883,334z"/>
<path style="fill:#005FF7;" d="M451.1,356.431c-24.392,0-24.392-22.431-48.783-22.431c-24.388,0-24.388,22.431-48.776,22.431
	c-24.389,0-24.389-22.431-48.778-22.431c-24.388,0-24.388,22.431-48.776,22.431c-0.143,0-0.274-0.01-0.415-0.012v155.576
	c0.143,0,0.286,0.004,0.429,0.004c114.183,0,210.891-74.762,243.883-178C475.491,334,475.491,356.431,451.1,356.431z"/>
<polygon style="fill:#55696E;" points="111.364,115.719 111.364,137.027 256.563,114.501 256.563,93.193 "/>
<g>
	<polygon style="fill:#495959;" points="400.636,115.719 256.563,93.193 256.563,114.501 400.636,137.027 	"/>
	<path style="fill:#495959;" d="M332.552,146.103H179.448l-11.263-40.679l77.469-19.872c6.787-1.741,13.905-1.741,20.692,0
		l77.469,19.872L332.552,146.103z"/>
</g>
<path style="fill:#3F4A4A;" d="M343.815,105.424l-77.469-19.872c-3.533-0.906-7.156-1.33-10.346-1.292v61.843h76.552
	L343.815,105.424z"/>
<polygon style="fill:#F42727;" points="153.717,231.851 195.18,236.262 222.211,209.231 171.011,174.648 "/>
<polygon style="fill:#D30F0F;" points="358.283,231.851 316.82,236.262 289.789,209.231 340.989,174.648 "/>
<g>
</g>
<g>
</g>
<g>
</g>
<g>
</g>
<g>
</g>
<g>
</g>
<g>
</g>
<g>
</g>
<g>
</g>
<g>
</g>
<g>
</g>
<g>
</g>
<g>
</g>
<g>
</g>
<g>
</g>
</svg>
