<?xml version="1.0" encoding="iso-8859-1"?>
<!-- Generator: Adobe Illustrator 19.0.0, SVG Export Plug-In . SVG Version: 6.00 Build 0)  -->
<svg version="1.1" id="Capa_1" xmlns="http://www.w3.org/2000/svg" xmlns:xlink="http://www.w3.org/1999/xlink" x="0px" y="0px"
	 viewBox="0 0 512 512" style="enable-background:new 0 0 512 512;" xml:space="preserve">
<circle style="fill:#F42727;" cx="256" cy="256" r="256"/>
<path style="fill:#D30F0F;" d="M499.986,178.32L424,102.333L88,230.975l138.449,138.449L88,391.654l114.794,114.794
	C219.959,510.077,237.754,512,256,512c141.385,0,256-114.615,256-256C512,228.917,507.78,202.821,499.986,178.32z"/>
<path style="fill:#495959;" d="M230.333,510.724C238.775,511.564,247.337,512,256,512s17.225-0.436,25.667-1.276v-408.39h-51.333
	L230.333,510.724L230.333,510.724z"/>
<path style="fill:#3F4A4A;" d="M255.571,102.333v409.661c0.143,0,0.285,0.005,0.429,0.005c8.663,0,17.225-0.436,25.667-1.276
	v-408.39C281.667,102.333,255.571,102.333,255.571,102.333z"/>
<rect x="88" y="102.33" style="fill:#FFFFFF;" width="336" height="128.64"/>
<rect x="255.57" y="102.33" style="fill:#F0F0F0;" width="168.43" height="128.64"/>
<rect x="88" y="263.01" style="fill:#FFFFFF;" width="336" height="128.64"/>
<rect x="255.57" y="263.01" style="fill:#F0F0F0;" width="168.43" height="128.64"/>
<path style="fill:#008FF9;" d="M113.529,211.153l10.25,10.25l64.688-16.242l3.045,3.441c3.079,3.479,7.216,5.849,11.774,6.745
	l11.693,2.299c0.223,0.044,0.444,0.072,0.663,0.086c0.056,0.003,0.11-0.001,0.165,0.001c0.163,0.005,0.326,0.009,0.486-0.002
	c0.051-0.003,0.1-0.014,0.151-0.019c0.163-0.016,0.325-0.034,0.482-0.065c0.038-0.007,0.073-0.02,0.111-0.028
	c0.17-0.038,0.337-0.08,0.5-0.135c0.022-0.008,0.043-0.018,0.065-0.025c0.176-0.062,0.348-0.131,0.515-0.212
	c0.009-0.004,0.017-0.009,0.026-0.014c1.946-0.951,3.205-3.123,2.74-5.492l-2.299-11.693c-0.896-4.558-3.266-8.695-6.745-11.774
	l-3.441-3.045l16.242-64.688l-10.25-10.25l-33.303,50.766L155.1,138.055l4.697-22.807l-5.496-5.496l-15.79,15.621l0.089,0.079
	l-4.85,4.85l0,0l-5.06,5.06l-0.079-0.089l-15.621,15.79l5.496,5.496l22.807-4.697l23.001,25.988L113.529,211.153z"/>
<path style="fill:#005FF7;" d="M396.401,382.62l10.25-10.25l-16.242-64.688l3.441-3.045c3.479-3.079,5.849-7.216,6.745-11.774
	l2.299-11.693c0.044-0.223,0.072-0.444,0.086-0.663c0.003-0.056-0.001-0.11,0.001-0.165c0.005-0.163,0.009-0.326-0.002-0.486
	c-0.003-0.051-0.014-0.1-0.019-0.151c-0.016-0.163-0.034-0.324-0.065-0.482c-0.007-0.038-0.02-0.073-0.028-0.111
	c-0.038-0.17-0.08-0.337-0.135-0.5c-0.008-0.022-0.018-0.043-0.025-0.065c-0.062-0.176-0.131-0.348-0.212-0.515
	c-0.004-0.009-0.009-0.017-0.014-0.026c-0.951-1.946-3.123-3.205-5.492-2.74l-11.693,2.299c-4.558,0.896-8.695,3.266-11.774,6.745
	l-3.045,3.441l-64.688-16.242l-10.25,10.25l50.766,33.303l-23.001,25.988l-22.807-4.697L295,341.848l15.621,15.79l0.079-0.089
	l4.85,4.85l0,0l5.06,5.06l-0.089,0.079l15.79,15.621l5.496-5.496l-4.697-22.807l25.988-23.001L396.401,382.62z"/>
<g>
	<rect x="112.99" y="291" style="fill:#A0A0A5;" width="143.01" height="18.667"/>
	<rect x="112.99" y="321.85" style="fill:#A0A0A5;" width="92.01" height="18.667"/>
	<rect x="112.99" y="352.71" style="fill:#A0A0A5;" width="127.34" height="18.667"/>
</g>
<g>
	<rect x="262" y="125.39" style="fill:#7D8287;" width="143.01" height="18.667"/>
	<rect x="262" y="156.24" style="fill:#7D8287;" width="92.01" height="18.667"/>
	<rect x="262" y="187.1" style="fill:#7D8287;" width="127.34" height="18.667"/>
</g>
<g>
</g>
<g>
</g>
<g>
</g>
<g>
</g>
<g>
</g>
<g>
</g>
<g>
</g>
<g>
</g>
<g>
</g>
<g>
</g>
<g>
</g>
<g>
</g>
<g>
</g>
<g>
</g>
<g>
</g>
</svg>
