<?xml version="1.0" encoding="iso-8859-1"?>
<!-- Generator: Adobe Illustrator 19.0.0, SVG Export Plug-In . SVG Version: 6.00 Build 0)  -->
<svg version="1.1" id="Capa_1" xmlns="http://www.w3.org/2000/svg" xmlns:xlink="http://www.w3.org/1999/xlink" x="0px" y="0px"
	 viewBox="0 0 512 512" style="enable-background:new 0 0 512 512;" xml:space="preserve">
<circle style="fill:#008FF9;" cx="256" cy="256" r="256"/>
<path style="fill:#005FF7;" d="M512,256c0-3.802-0.099-7.581-0.264-11.342L356,88.921l-200,23.5l58.334,58.334l-4.341,3.077
	l29.928,29.928L129.279,406.093l104.979,104.979C241.427,511.675,248.675,512,256,512C397.385,512,512,397.385,512,256z"/>
<rect x="140" y="206.89" style="fill:#D2D2D7;" width="232" height="111.94"/>
<rect x="255.57" y="206.89" style="fill:#B9B9BE;" width="116.43" height="111.94"/>
<path style="fill:#495959;" d="M289.302,180.462h-66.604c-8.558,0-15.495-6.937-15.495-15.495l0,0
	c0-8.558,6.937-15.495,15.495-15.495h66.604c8.558,0,15.495,6.937,15.495,15.495l0,0
	C304.797,173.524,297.86,180.462,289.302,180.462z"/>
<path style="fill:#323C3C;" d="M289.302,149.472h-33.731v30.99h33.731c8.558,0,15.495-6.937,15.495-15.495
	C304.797,156.409,297.86,149.472,289.302,149.472z"/>
<path style="fill:#495959;" d="M256.662,411.079h-1.324c-13.335,0-24.145-10.81-24.145-24.145v-130.16
	c0-13.335,10.81-24.145,24.145-24.145h1.324c13.335,0,24.145,10.81,24.145,24.145v130.16
	C280.807,400.269,269.997,411.079,256.662,411.079z"/>
<path style="fill:#323C3C;" d="M256.662,232.628h-1.091v178.451h1.091c13.335,0,24.145-10.81,24.145-24.145v-130.16
	C280.807,243.438,269.997,232.628,256.662,232.628z"/>
<path style="fill:#FFFFFF;" d="M349.504,343.741h-54.385v-86.063c0-20.042-17.549-36.348-39.119-36.348
	c-21.571,0-39.119,16.306-39.119,36.348v86.063h-53.295v-26.988h26.307v-59.074c0-34.924,29.656-63.336,66.108-63.336
	s66.107,28.413,66.107,63.336v59.074h27.397L349.504,343.741L349.504,343.741z"/>
<path style="fill:#F0F0F0;" d="M322.107,316.752v-59.074c0-34.924-29.656-63.336-66.107-63.336c-0.144,0-0.285,0.01-0.429,0.011
	v26.988c0.143-0.001,0.285-0.01,0.429-0.01c21.57,0,39.119,16.306,39.119,36.348v86.063h54.385v-26.988h-27.397V316.752z"/>
<rect x="242.51" y="112.42" style="fill:#FFFFFF;" width="26.988" height="89.35"/>
<rect x="255.57" y="112.42" style="fill:#F0F0F0;" width="13.923" height="89.35"/>
<rect x="156" y="88.92" style="fill:#FFDA00;" width="200" height="23.5"/>
<rect x="255.57" y="88.92" style="fill:#FFB600;" width="100.43" height="23.5"/>
<path style="fill:#323C3C;" d="M368.028,411.079h-1.324c-13.335,0-24.145-10.81-24.145-24.145v-130.16
	c0-13.335,10.81-24.145,24.145-24.145h1.324c13.335,0,24.145,10.81,24.145,24.145v130.16
	C392.173,400.269,381.363,411.079,368.028,411.079z"/>
<path style="fill:#495959;" d="M145.296,411.079h-1.324c-13.335,0-24.145-10.81-24.145-24.145v-130.16
	c0-13.335,10.81-24.145,24.145-24.145h1.324c13.335,0,24.145,10.81,24.145,24.145v130.16
	C169.441,400.269,158.631,411.079,145.296,411.079z"/>
<g>
</g>
<g>
</g>
<g>
</g>
<g>
</g>
<g>
</g>
<g>
</g>
<g>
</g>
<g>
</g>
<g>
</g>
<g>
</g>
<g>
</g>
<g>
</g>
<g>
</g>
<g>
</g>
<g>
</g>
</svg>
