<?xml version="1.0" encoding="iso-8859-1"?>
<!-- Generator: Adobe Illustrator 19.0.0, SVG Export Plug-In . SVG Version: 6.00 Build 0)  -->
<svg version="1.1" id="Capa_1" xmlns="http://www.w3.org/2000/svg" xmlns:xlink="http://www.w3.org/1999/xlink" x="0px" y="0px"
	 viewBox="0 0 512 512" style="enable-background:new 0 0 512 512;" xml:space="preserve">
<circle style="fill:#008FF9;" cx="256" cy="256" r="256"/>
<path style="fill:#005FF7;" d="M512,256c0-6.809-0.272-13.553-0.794-20.228l-144.53-144.53L94.585,210.952l114.093,114.093
	l-98.883,38.468l32.459,32.459l-16.102,9.577l105.27,105.271c8.09,0.771,16.286,1.18,24.577,1.18C397.385,512,512,397.385,512,256z"
	/>
<path style="fill:#495959;" d="M156.544,411.25h-17.256c-9.941,0-18-8.059-18-18v-46.436c0-9.941,8.059-18,18-18h17.256
	c9.941,0,18,8.059,18,18v46.436C174.543,403.191,166.485,411.25,156.544,411.25z"/>
<path style="fill:#3F4A4A;" d="M372.712,411.667h-17.256c-9.941,0-18-8.059-18-18v-46.436c0-9.941,8.059-18,18-18h17.256
	c9.941,0,18,8.059,18,18v46.436C390.711,403.608,382.653,411.667,372.712,411.667z"/>
<path id="SVGCleanerId_0" style="fill:#FFFFFF;" d="M134.659,110.589L120.094,185.6c-2.143,11.037-3.222,22.253-3.222,33.496
	v139.421h278.257V219.096c0-11.243-1.079-22.46-3.222-33.496l-14.565-75.011c-3.288-16.931-18.115-29.157-35.363-29.157H170.021
	C152.774,81.432,137.946,93.657,134.659,110.589z"/>
<g>
	<path id="SVGCleanerId_0_1_" style="fill:#FFFFFF;" d="M134.659,110.589L120.094,185.6c-2.143,11.037-3.222,22.253-3.222,33.496
		v139.421h278.257V219.096c0-11.243-1.079-22.46-3.222-33.496l-14.565-75.011c-3.288-16.931-18.115-29.157-35.363-29.157H170.021
		C152.774,81.432,137.946,93.657,134.659,110.589z"/>
</g>
<path style="fill:#F0F0F0;" d="M395.129,219.096c0-11.243-1.079-22.46-3.222-33.497l-14.565-75.01
	c-3.288-16.932-18.115-29.157-35.363-29.157h-86.407v277.084h139.557L395.129,219.096L395.129,219.096z"/>
<path style="fill:#F42727;" d="M225.712,321.194c0-52.988-42.956-95.944-95.944-95.944c-4.376,0-8.676,0.32-12.897,0.887v132.379
	h101.31C223.031,347.044,225.712,334.432,225.712,321.194z"/>
<path style="fill:#D30F0F;" d="M395.129,226.137c-4.221-0.567-8.52-0.887-12.897-0.887c-52.988,0-95.944,42.956-95.944,95.944
	c0,13.238,2.682,25.85,7.53,37.322h101.31V226.137H395.129z"/>
<path style="fill:#D2D2D7;" d="M387.745,370.241h-263.49c-10.445,0-18.913-8.468-18.913-18.913l0,0
	c0-10.445,8.468-18.913,18.913-18.913h263.489c10.445,0,18.913,8.468,18.913,18.913l0,0
	C406.657,361.773,398.19,370.241,387.745,370.241z"/>
<path style="fill:#B9B9BE;" d="M387.745,332.415H255.571v37.826h132.173c10.445,0,18.913-8.467,18.913-18.913l0,0
	C406.657,340.883,398.19,332.415,387.745,332.415z"/>
<path style="fill:#FFFFFF;" d="M127.624,214.858h-23.341c-7.735,0-14.005-6.27-14.005-14.005v-9.336
	c0-7.735,6.27-14.005,14.005-14.005h23.341c7.735,0,14.005,6.27,14.005,14.005v9.336
	C141.628,208.588,135.358,214.858,127.624,214.858z"/>
<path style="fill:#F0F0F0;" d="M407.718,214.858h-23.341c-7.735,0-14.005-6.27-14.005-14.005v-9.336
	c0-7.735,6.27-14.005,14.005-14.005h23.341c7.735,0,14.005,6.27,14.005,14.005v9.336
	C421.722,208.588,415.452,214.858,407.718,214.858z"/>
<path style="fill:#87C7FF;" d="M362.721,123.769c-2.892-14.891-15.933-25.643-31.102-25.643H180.381
	c-15.169,0-28.21,10.752-31.102,25.643l-12.752,65.673h238.946L362.721,123.769z"/>
<path style="fill:#65B1FC;" d="M362.721,123.769c-2.892-14.891-15.933-25.644-31.102-25.644h-76.048v91.317h119.902L362.721,123.769
	z"/>
<circle style="fill:#FFDA00;" cx="158.6" cy="288.09" r="21.364"/>
<circle style="fill:#FFB600;" cx="353.4" cy="288.09" r="21.364"/>
<circle style="fill:#B4D2D7;" cx="256" cy="241.24" r="26.382"/>
<path style="fill:#87A0AF;" d="M256,214.858c-0.144,0-0.285,0.008-0.429,0.011v52.743c0.143,0.002,0.285,0.011,0.429,0.011
	c14.57,0,26.382-11.812,26.382-26.382C282.382,226.669,270.57,214.858,256,214.858z"/>
<g>
</g>
<g>
</g>
<g>
</g>
<g>
</g>
<g>
</g>
<g>
</g>
<g>
</g>
<g>
</g>
<g>
</g>
<g>
</g>
<g>
</g>
<g>
</g>
<g>
</g>
<g>
</g>
<g>
</g>
</svg>
