<?xml version="1.0" encoding="iso-8859-1"?>
<!-- Generator: Adobe Illustrator 19.0.0, SVG Export Plug-In . SVG Version: 6.00 Build 0)  -->
<svg version="1.1" id="Capa_1" xmlns="http://www.w3.org/2000/svg" xmlns:xlink="http://www.w3.org/1999/xlink" x="0px" y="0px"
	 viewBox="0 0 512 512" style="enable-background:new 0 0 512 512;" xml:space="preserve">
<circle style="fill:#FFDA00;" cx="256" cy="256" r="256"/>
<path style="fill:#FFB600;" d="M511.503,271.753L299.75,60L129.178,278.142l87.943,87.943l-101.792,40.487L217.937,509.18
	c12.42,1.851,25.128,2.82,38.063,2.82C392.093,512,503.363,405.799,511.503,271.753z"/>
<path style="fill:#495959;" d="M125.411,476.213C163.647,498.936,208.295,512,256,512s92.353-13.064,130.589-35.787L343.893,369
	H168.107L125.411,476.213z"/>
<path style="fill:#323C3C;" d="M386.589,476.213L343.893,369h-88.322v142.996c0.143,0,0.285,0.004,0.429,0.004
	C303.705,512,348.353,498.936,386.589,476.213z"/>
<rect x="161.67" y="168" style="fill:#27488F;" width="188.66" height="149"/>
<rect x="255.57" y="168" style="fill:#1B3B6B;" width="94.76" height="149"/>
<path style="fill:#738C96;" d="M164.242,495.045C192.729,505.987,223.66,512,256,512s63.271-6.013,91.758-16.955l-29.164-121.379
	H193.406L164.242,495.045z"/>
<path style="fill:#607882;" d="M347.758,495.045l-29.164-121.379h-63.023v138.329c0.143,0,0.285,0.005,0.429,0.005
	C288.34,512,319.271,505.987,347.758,495.045z"/>
<rect x="212.25" y="60" style="fill:#27488F;" width="87.5" height="130.5"/>
<rect x="255.57" y="60" style="fill:#1B3B6B;" width="44.18" height="130.5"/>
<polygon style="fill:#008FF9;" points="396.671,406.572 256,456.572 115.329,406.572 135.329,292 376.671,292 "/>
<g>
	<polygon style="fill:#005FF7;" points="396.671,406.571 376.671,292 255.571,292 255.571,456.419 256,456.571 	"/>
	<polygon style="fill:#005FF7;" points="256,456.571 339.929,426.74 329.773,292 182.227,292 172.071,426.74 	"/>
</g>
<polygon style="fill:#0035F4;" points="339.929,426.74 329.773,292 255.571,292 255.571,456.419 256,456.571 "/>
<circle style="fill:#005FF7;" cx="256" cy="196.5" r="79"/>
<path style="fill:#0035F4;" d="M256,117.5c-0.144,0-0.285,0.01-0.429,0.011V275.49c0.144,0,0.285,0.011,0.429,0.011
	c43.63,0,79-35.37,79-79S299.63,117.5,256,117.5z"/>
<circle style="fill:#008FF9;" cx="256" cy="196.5" r="41.584"/>
<g>
	<path style="fill:#005FF7;" d="M256,154.916c-0.144,0-0.285,0.009-0.429,0.011v83.146c0.143,0.001,0.285,0.011,0.429,0.011
		c22.966,0,41.584-18.618,41.584-41.584S278.966,154.916,256,154.916z"/>
	<circle style="fill:#005FF7;" cx="149.96" cy="257.09" r="29.585"/>
</g>
<circle style="fill:#0035F4;" cx="362.04" cy="257.09" r="29.585"/>
<g>
</g>
<g>
</g>
<g>
</g>
<g>
</g>
<g>
</g>
<g>
</g>
<g>
</g>
<g>
</g>
<g>
</g>
<g>
</g>
<g>
</g>
<g>
</g>
<g>
</g>
<g>
</g>
<g>
</g>
</svg>
