<?xml version="1.0" encoding="iso-8859-1"?>
<!-- Generator: Adobe Illustrator 19.0.0, SVG Export Plug-In . SVG Version: 6.00 Build 0)  -->
<svg version="1.1" id="Capa_1" xmlns="http://www.w3.org/2000/svg" xmlns:xlink="http://www.w3.org/1999/xlink" x="0px" y="0px"
	 viewBox="0 0 512 512" style="enable-background:new 0 0 512 512;" xml:space="preserve">
<circle style="fill:#008FF9;" cx="256" cy="256" r="256"/>
<path style="fill:#005FF7;" d="M291.074,509.598C415.861,492.498,512,385.484,512,256c0-13.065-0.985-25.9-2.873-38.439
	l-83.284-83.284l-3.925,10.239L354.403,77L144.946,177.125l-53.144-6.362l127.754,127.753l-55.701,76.506l72.625,72.625L233.476,452
	L291.074,509.598z"/>
<path style="fill:#495959;" d="M256,462.094L256,462.094c-16.675,0-30.192-13.517-30.192-30.192v-87.065
	c0-16.675,13.517-30.192,30.192-30.192l0,0c16.675,0,30.192,13.517,30.192,30.192v87.065
	C286.192,448.576,272.675,462.094,256,462.094z"/>
<path style="fill:#3F4A4A;" d="M256,314.645L256,314.645c-0.144,0-0.285,0.009-0.429,0.011v147.427
	c0.143,0.002,0.285,0.011,0.429,0.011l0,0c16.675,0,30.192-13.517,30.192-30.192v-87.065
	C286.192,328.162,272.675,314.645,256,314.645z"/>
<path style="fill:#FFDA00;" d="M387.812,181.099L363.18,92.434c-4.382-15.773-18.743-26.688-35.114-26.688H183.925
	c-16.372,0-30.734,10.917-35.115,26.691l-19.473,70.122L95.78,134.277h-9.623v20.15c0,12.516,8.254,22.698,18.398,22.698h20.736
	l-1.104,3.974c-1.99,10.992-2.301,22.252-0.92,33.35l12.483,100.309c6.453,51.851,48.082,90.6,97.332,90.6h45.833
	c49.25,0,90.879-38.75,97.332-90.6l12.483-100.309C390.113,203.352,389.802,192.091,387.812,181.099z"/>
<path style="fill:#FFB600;" d="M416.22,134.276l-33.559,28.284L363.18,92.434c-4.382-15.773-18.743-26.688-35.114-26.688h-72.495
	v339.612h23.345c49.25,0,90.879-38.75,97.332-90.6l12.483-100.309c1.381-11.097,1.07-22.358-0.92-33.35l-1.104-3.974h20.737
	c10.145,0,18.398-10.183,18.398-22.698v-20.15h-9.622V134.276z"/>
<path style="fill:#FFFFFF;" d="M367.054,182.954l-23.55-84.77c-2.039-7.339-8.721-12.418-16.338-12.418h-142.34
	c-7.618,0-14.3,5.08-16.338,12.419l-23.541,84.768L367.054,182.954L367.054,182.954z"/>
<path style="fill:#F0F0F0;" d="M343.504,98.184c-2.039-7.339-8.721-12.418-16.338-12.418h-71.595v97.188h111.482L343.504,98.184z"/>
<path style="fill:#495959;" d="M202.217,254.445l4.88,77.8c2.624,41.842,19.554,73.113,39.584,73.113h18.64
	c20.03,0,36.96-31.27,39.584-73.113l4.88-77.8L202.217,254.445L202.217,254.445z"/>
<path style="fill:#3F4A4A;" d="M255.571,254.445v150.913h9.749c20.03,0,36.96-31.27,39.584-73.112l4.88-77.8L255.571,254.445
	L255.571,254.445z"/>
<path style="fill:#FF9B32;" d="M289.603,410.012h-67.205V374.66c0-14.459,11.721-26.18,26.18-26.18h14.845
	c14.459,0,26.18,11.721,26.18,26.18V410.012z"/>
<path style="fill:#FF8C05;" d="M289.603,374.661c0-14.459-11.721-26.18-26.18-26.18h-7.851v61.532h34.031V374.661z"/>
<circle style="fill:#FFFFFF;" cx="173.99" cy="280.64" r="24.04"/>
<circle style="fill:#F0F0F0;" cx="338.01" cy="280.64" r="24.04"/>
<circle style="fill:#495959;" cx="256" cy="248.98" r="40.47"/>
<path style="fill:#3F4A4A;" d="M256,208.506c-0.144,0-0.285,0.009-0.429,0.011v80.918c0.144,0.001,0.285,0.011,0.429,0.011
	c22.351,0,40.47-18.119,40.47-40.471C296.47,226.625,278.351,208.506,256,208.506z"/>
<circle style="fill:#FFFFFF;" cx="256" cy="248.97" r="28.589"/>
<path style="fill:#F0F0F0;" d="M256.001,220.39c-0.144,0-0.286,0.009-0.43,0.011v57.149c0.143,0.002,0.284,0.011,0.427,0.011
	c15.789,0,28.589-12.797,28.59-28.584C284.589,233.189,271.79,220.391,256.001,220.39z"/>
<g>
</g>
<g>
</g>
<g>
</g>
<g>
</g>
<g>
</g>
<g>
</g>
<g>
</g>
<g>
</g>
<g>
</g>
<g>
</g>
<g>
</g>
<g>
</g>
<g>
</g>
<g>
</g>
<g>
</g>
</svg>
