<?xml version="1.0" encoding="iso-8859-1"?>
<!-- Generator: Adobe Illustrator 19.0.0, SVG Export Plug-In . SVG Version: 6.00 Build 0)  -->
<svg version="1.1" id="Capa_1" xmlns="http://www.w3.org/2000/svg" xmlns:xlink="http://www.w3.org/1999/xlink" x="0px" y="0px"
	 viewBox="0 0 512 512" style="enable-background:new 0 0 512 512;" xml:space="preserve">
<circle style="fill:#008FF9;" cx="256" cy="256" r="256"/>
<path style="fill:#005FF7;" d="M511.855,264.228L334.321,86.694L122.06,366.318l31.297,31.296l-17.51,13.24L236.24,511.248
	C242.761,511.746,249.351,512,256,512C394.631,512,507.509,401.803,511.855,264.228z"/>
<path style="fill:#3F4A4A;" d="M358.309,419.828L358.309,419.828c-16.814,2.274-32.288-9.513-34.562-26.327l-11.874-87.792
	c-2.274-16.814,9.513-32.287,26.327-34.561l0,0c16.814-2.274,32.287,9.513,34.561,26.327l11.874,87.792
	C386.909,402.08,375.122,417.554,358.309,419.828z"/>
<path style="fill:#495959;" d="M256,414.017L256,414.017c-16.967,0-30.721-13.754-30.721-30.721v-88.591
	c0-16.967,13.754-30.721,30.721-30.721l0,0c16.967,0,30.721,13.754,30.721,30.721v88.591
	C286.721,400.263,272.967,414.017,256,414.017z"/>
<path style="fill:#3F4A4A;" d="M256,263.983L256,263.983c-0.144,0-0.285,0.009-0.429,0.011v150.012
	c0.143,0.002,0.285,0.011,0.429,0.011l0,0c16.967,0,30.721-13.754,30.721-30.721v-88.592
	C286.721,277.737,272.967,263.983,256,263.983z"/>
<path style="fill:#87A0AF;" d="M389.94,366.318l-76.341,10.325l-12.885-95.267c-2.851-21.081,11.927-40.482,33.008-43.333l0,0
	c21.081-2.851,40.482,11.927,43.333,33.008L389.94,366.318z"/>
<path style="fill:#495959;" d="M153.691,419.828L153.691,419.828c16.814,2.274,32.288-9.513,34.562-26.327l11.874-87.792
	c2.274-16.814-9.513-32.287-26.327-34.561l0,0c-16.814-2.274-32.287,9.513-34.561,26.327l-11.874,87.792
	C125.091,402.08,136.878,417.554,153.691,419.828z"/>
<path style="fill:#B4D2D7;" d="M122.06,366.318l76.341,10.325l12.885-95.267c2.851-21.081-11.927-40.482-33.008-43.333l0,0
	c-21.081-2.851-40.482,11.927-43.333,33.008L122.06,366.318z"/>
<path style="fill:#FFFFFF;" d="M355.432,325.698l7.421-52.197c1.157-8.138,1.271-16.39,0.34-24.557l-15.339-134.469
	c-2.673-23.433-22.504-41.13-46.088-41.13h-91.532c-23.585,0-43.415,17.697-46.088,41.13l-15.339,134.469
	c-0.932,8.167-0.818,16.419,0.34,24.557l7.421,52.197c2.147,15.102,7.586,29.018,15.525,47.65c1.976,4.637,6.529,7.652,11.569,7.652
	h144.675c5.04,0,9.593-3.016,11.569-7.652C347.846,354.716,353.285,340.8,355.432,325.698z"/>
<path style="fill:#F0F0F0;" d="M363.193,248.944l-15.339-134.469c-2.673-23.433-22.503-41.13-46.088-41.13h-46.194V381h72.766
	c5.04,0,9.593-3.016,11.569-7.652c7.939-18.632,13.378-32.548,15.525-47.649l7.421-52.198
	C364.01,265.363,364.125,257.11,363.193,248.944z"/>
<path style="fill:#495959;" d="M174.489,141.08L163.92,248.944c-0.067,0.688-0.12,1.378-0.174,2.068
	C186.594,266.367,219.465,276,256,276s69.406-9.633,92.254-24.988c-0.055-0.69-0.107-1.38-0.174-2.068L337.511,141.08
	C315.63,129.501,287.147,122.5,256,122.5S196.37,129.501,174.489,141.08z"/>
<path style="fill:#3F4A4A;" d="M348.254,251.012c-0.055-0.69-0.107-1.38-0.174-2.068L337.511,141.08
	C315.63,129.501,287.147,122.5,256,122.5c-0.149,0-0.295,0.006-0.444,0.006v153.486c0.149,0,0.295,0.007,0.444,0.007
	C292.535,276,325.406,266.367,348.254,251.012z"/>
<path style="fill:#87C7FF;" d="M328.565,114.475c-2.112-23.432-17.778-41.13-36.41-41.13h-72.31
	c-18.632,0-34.298,17.697-36.41,41.13L174,219.181h164L328.565,114.475z"/>
<path style="fill:#65B1FC;" d="M328.565,114.475c-2.112-23.433-17.778-41.129-36.41-41.129h-36.56v145.836H338L328.565,114.475z"/>
<circle style="fill:#495959;" cx="256" cy="270.62" r="37.909"/>
<path style="fill:#3F4A4A;" d="M256,232.712c-0.144,0-0.285,0.009-0.429,0.011v75.797c0.144,0.001,0.285,0.011,0.429,0.011
	c20.937,0,37.909-16.973,37.909-37.91C293.909,249.685,276.937,232.712,256,232.712z"/>
<circle style="fill:#FFDA00;" cx="256" cy="270.62" r="25.811"/>
<path style="fill:#FFB600;" d="M256,244.811c-0.144,0-0.285,0.009-0.429,0.011v51.6c0.143,0.002,0.285,0.011,0.429,0.011
	c14.255,0,25.811-11.556,25.811-25.811C281.811,256.367,270.255,244.811,256,244.811z"/>
<g>
</g>
<g>
</g>
<g>
</g>
<g>
</g>
<g>
</g>
<g>
</g>
<g>
</g>
<g>
</g>
<g>
</g>
<g>
</g>
<g>
</g>
<g>
</g>
<g>
</g>
<g>
</g>
<g>
</g>
</svg>
