<?xml version="1.0" encoding="iso-8859-1"?>
<!-- Generator: Adobe Illustrator 19.0.0, SVG Export Plug-In . SVG Version: 6.00 Build 0)  -->
<svg version="1.1" id="Capa_1" xmlns="http://www.w3.org/2000/svg" xmlns:xlink="http://www.w3.org/1999/xlink" x="0px" y="0px"
	 viewBox="0 0 512 512" style="enable-background:new 0 0 512 512;" xml:space="preserve">
<circle style="fill:#FFDA00;" cx="256" cy="256" r="256"/>
<path style="fill:#FFB600;" d="M512,256c0-56.77-18.491-109.214-49.762-151.666h-0.001H49.763l264.79,264.79l-1.857,0.396
	L151.971,208.796L61.985,423l27.077,27.077C133.884,488.666,192.215,512,256,512C397.385,512,512,397.385,512,256z"/>
<path style="fill:#F42727;" d="M498.235,339H13.765c10.67,31.146,27.182,59.578,48.22,84h388.03
	C471.053,398.578,487.565,370.146,498.235,339z"/>
<path style="fill:#D30F0F;" d="M498.235,339H255.571v84h194.443C471.053,398.578,487.565,370.146,498.235,339z"/>
<path style="fill:#008FF9;" d="M310.047,339.942H201.953l6.09-93.562C209.817,219.127,230.759,198,256,198l0,0
	c25.241,0,46.183,21.127,47.957,48.38L310.047,339.942z"/>
<path style="fill:#005FF7;" d="M303.957,246.38C302.183,219.127,281.241,198,256,198l0,0c-0.144,0-0.285,0.01-0.429,0.011v141.93
	h54.476L303.957,246.38z"/>
<path style="fill:#0059F7;" d="M308.481,367H203.519c-11.325,0-20.505-9.181-20.505-20.505v-1.656
	c0-11.325,9.181-20.505,20.505-20.505h104.963c11.325,0,20.505,9.181,20.505,20.505v1.656C328.987,357.819,319.806,367,308.481,367z
	"/>
<path style="fill:#0035F4;" d="M308.481,324.333h-52.91V367h52.91c11.325,0,20.505-9.181,20.505-20.505v-1.656
	C328.987,333.514,319.806,324.333,308.481,324.333z"/>
<path style="fill:#008FF9;" d="M176.7,339.942H68.606l6.09-93.562C76.47,219.127,97.413,198,122.653,198l0,0
	c25.241,0,46.183,21.127,47.957,48.38L176.7,339.942z"/>
<path style="fill:#0059F7;" d="M175.134,367H70.172c-11.325,0-20.505-9.181-20.505-20.505v-1.656
	c0-11.325,9.181-20.505,20.505-20.505h104.963c11.325,0,20.505,9.181,20.505,20.505v1.656C195.64,357.819,186.459,367,175.134,367z"
	/>
<path style="fill:#005FF7;" d="M443.394,339.942H335.3l6.09-93.562c1.774-27.253,22.717-48.38,47.957-48.38l0,0
	c25.241,0,46.183,21.127,47.957,48.38L443.394,339.942z"/>
<path style="fill:#0035F4;" d="M441.828,367H336.866c-11.325,0-20.505-9.181-20.505-20.505v-1.656
	c0-11.325,9.181-20.505,20.505-20.505h104.963c11.325,0,20.505,9.181,20.505,20.505v1.656C462.333,357.819,453.153,367,441.828,367z
	"/>
<path style="fill:#0059F7;" d="M49.763,104.333h412.475c-5.471-7.427-11.329-14.549-17.553-21.333H67.315
	C61.092,89.784,55.233,96.906,49.763,104.333z"/>
<path style="fill:#004DF7;" d="M444.685,83H255.571v21.333h206.666C456.767,96.906,450.908,89.784,444.685,83z"/>
<rect x="173.4" y="93.67" style="fill:#0059F7;" width="24.68" height="55.33"/>
<path style="fill:#F42727;" d="M185.739,135c-18.649,0-33.768,15.118-33.768,33.768s15.118,33.768,33.768,33.768
	s33.768-15.119,33.768-33.768S204.388,135,185.739,135z M185.739,186.244c-9.652,0-17.477-7.824-17.477-17.477
	c0-9.652,7.824-17.477,17.477-17.477c9.652,0,17.477,7.825,17.477,17.477C203.216,178.42,195.391,186.244,185.739,186.244z"/>
<rect x="313.92" y="93.67" style="fill:#004DF7;" width="24.68" height="55.33"/>
<path style="fill:#D30F0F;" d="M326.261,135c-18.649,0-33.768,15.118-33.768,33.768s15.118,33.768,33.768,33.768
	s33.768-15.119,33.768-33.768S344.911,135,326.261,135z M326.261,186.244c-9.652,0-17.477-7.824-17.477-17.477
	c0-9.652,7.824-17.477,17.477-17.477c9.652,0,17.477,7.825,17.477,17.477C343.738,178.42,335.913,186.244,326.261,186.244z"/>
<g>
</g>
<g>
</g>
<g>
</g>
<g>
</g>
<g>
</g>
<g>
</g>
<g>
</g>
<g>
</g>
<g>
</g>
<g>
</g>
<g>
</g>
<g>
</g>
<g>
</g>
<g>
</g>
<g>
</g>
</svg>
