<?xml version="1.0" encoding="iso-8859-1"?>
<!-- Generator: Adobe Illustrator 19.0.0, SVG Export Plug-In . SVG Version: 6.00 Build 0)  -->
<svg version="1.1" id="Capa_1" xmlns="http://www.w3.org/2000/svg" xmlns:xlink="http://www.w3.org/1999/xlink" x="0px" y="0px"
	 viewBox="0 0 512 512" style="enable-background:new 0 0 512 512;" xml:space="preserve">
<circle style="fill:#FFDA00;" cx="256" cy="256" r="256"/>
<rect id="SVGCleanerId_0" x="248.75" y="108.83" style="fill:#FFFFFF;" width="14.5" height="14.5"/>
<path style="fill:#FFB600;" d="M509.956,288.496L310.46,89L71.695,364.373l36.499,36.499l-7.781,10.146l93.347,93.347
	C213.686,509.342,234.531,512,256,512C386.377,512,493.989,414.537,509.956,288.496z"/>
<g>
	<polygon style="fill:#3F4A4A;" points="320.833,135 191.167,135 201.54,89 310.46,89 	"/>
	<polygon style="fill:#3F4A4A;" points="320.833,135 191.167,135 201.54,89 310.46,89 	"/>
</g>
<polygon style="fill:#323C3C;" points="310.46,89 255.571,89 255.571,135 320.833,135 "/>
<g>
	<rect id="SVGCleanerId_0_1_" x="248.75" y="108.83" style="fill:#FFFFFF;" width="14.5" height="14.5"/>
</g>
<rect x="255.57" y="108.83" style="fill:#F0F0F0;" width="7.679" height="14.5"/>
<path style="fill:#738C96;" d="M145.852,418.357H117.44c-12.949,0-23.446-10.497-23.446-23.446v-52.024
	c0-12.949,10.497-23.446,23.446-23.446h28.412c12.949,0,23.446,10.497,23.446,23.446v52.024
	C169.298,407.859,158.801,418.357,145.852,418.357z"/>
<path style="fill:#55696E;" d="M394.56,418.857h-28.412c-12.949,0-23.446-10.497-23.446-23.446v-52.024
	c0-12.949,10.497-23.446,23.446-23.446h28.412c12.949,0,23.446,10.497,23.446,23.446v52.024
	C418.005,408.359,407.508,418.857,394.56,418.857z"/>
<path style="fill:#495959;" d="M418,243.551H94l37.138-77.841c11.241-23.561,32.748-38.205,56.111-38.205h137.503
	c23.363,0,44.87,14.644,56.111,38.205L418,243.551z"/>
<path style="fill:#3F4A4A;" d="M380.862,165.71c-11.241-23.561-32.748-38.205-56.111-38.205h-69.18V243.55H418L380.862,165.71z"/>
<g>
	<path style="fill:#87C7FF;" d="M390.22,250.608H121.78l30.769-64.493c9.313-19.521,27.132-31.653,46.489-31.653h113.924
		c19.357,0,37.176,12.132,46.489,31.653L390.22,250.608z"/>
	<path style="fill:#87C7FF;" d="M199.038,154.462c-19.357,0-37.176,12.133-46.489,31.653l-30.769,64.493h133.791v-96.146H199.038z"
		/>
	<path style="fill:#87C7FF;" d="M359.451,186.116c-9.313-19.521-27.132-31.653-46.489-31.653h-57.39v96.146H390.22L359.451,186.116z
		"/>
</g>
<path style="fill:#495959;" d="M416.508,371.701H95.492c-14.908,0-26.992-12.085-26.992-26.992v-81.535
	c0-14.908,12.085-26.992,26.992-26.992h321.015c14.908,0,26.992,12.085,26.992,26.992v81.535
	C443.5,359.617,431.415,371.701,416.508,371.701z"/>
<path style="fill:#3F4A4A;" d="M416.508,236.182H255.571v135.52h160.936c14.907,0,26.992-12.084,26.992-26.992v-81.535
	C443.5,248.267,431.415,236.182,416.508,236.182z"/>
<path style="fill:#FFFFFF;" d="M426.143,371.701H85.857c-9.586,0-17.357-7.771-17.357-17.357v-21.321
	c0-9.586,7.771-17.357,17.357-17.357h340.286c9.586,0,17.357,7.771,17.357,17.357v21.321
	C443.5,363.931,435.729,371.701,426.143,371.701z"/>
<path style="fill:#F0F0F0;" d="M426.143,315.667H255.571v56.035h170.572c9.586,0,17.357-7.771,17.357-17.356v-21.321
	C443.5,323.438,435.729,315.667,426.143,315.667z"/>
<circle style="fill:#87C7FF;" cx="134.15" cy="277.27" r="26.667"/>
<circle style="fill:#65B1FC;" cx="377.85" cy="277.27" r="26.667"/>
<path style="fill:#3F4A4A;" d="M316.5,303.942H188.167c-6.535,0-11.833-5.298-11.833-11.833V267.49
	c0-6.535,5.298-11.833,11.833-11.833H316.5c6.535,0,11.833,5.298,11.833,11.833v24.618
	C328.333,298.644,323.035,303.942,316.5,303.942z"/>
<path style="fill:#323C3C;" d="M316.5,255.657h-60.929v48.285H316.5c6.535,0,11.833-5.298,11.833-11.833V267.49
	C328.333,260.955,323.035,255.657,316.5,255.657z"/>
<g>
	<rect x="205.25" y="94.33" style="fill:#FFFFFF;" width="14.5" height="14.5"/>
	<rect x="219.75" y="108.83" style="fill:#FFFFFF;" width="14.5" height="14.5"/>
	<rect x="234.25" y="94.33" style="fill:#FFFFFF;" width="14.5" height="14.5"/>
</g>
<g>
	<rect x="263.25" y="94.33" style="fill:#F0F0F0;" width="14.5" height="14.5"/>
	<rect x="292.25" y="94.33" style="fill:#F0F0F0;" width="14.5" height="14.5"/>
	<rect x="277.75" y="108.83" style="fill:#F0F0F0;" width="14.5" height="14.5"/>
</g>
<g>
</g>
<g>
</g>
<g>
</g>
<g>
</g>
<g>
</g>
<g>
</g>
<g>
</g>
<g>
</g>
<g>
</g>
<g>
</g>
<g>
</g>
<g>
</g>
<g>
</g>
<g>
</g>
<g>
</g>
</svg>
