<?xml version="1.0" encoding="iso-8859-1"?>
<!-- Generator: Adobe Illustrator 19.0.0, SVG Export Plug-In . SVG Version: 6.00 Build 0)  -->
<svg version="1.1" id="Capa_1" xmlns="http://www.w3.org/2000/svg" xmlns:xlink="http://www.w3.org/1999/xlink" x="0px" y="0px"
	 viewBox="0 0 512 512" style="enable-background:new 0 0 512 512;" xml:space="preserve">
<circle style="fill:#008FF9;" cx="256" cy="256" r="256"/>
<path style="fill:#005FF7;" d="M512,256c0-14.224-1.179-28.17-3.41-41.763L392.949,98.597L95.452,182.69L64.333,270.7l90.233,90.233
	L105.125,401.5l106.689,106.689C226.169,510.687,240.93,512,256,512C397.385,512,512,397.385,512,256z"/>
<rect x="64.33" y="205.37" style="fill:#FF9B32;" width="35.793" height="65.33"/>
<path style="fill:#FFDA00;" d="M93.181,210.877h-9.779v-16.973c0-10.542,8.388-19.119,18.697-19.119h28.432v10h-28.432
	c-4.918,0-8.918,4.091-8.918,9.119C93.181,193.904,93.181,210.877,93.181,210.877z"/>
<rect x="411.87" y="205.37" style="fill:#FF8C05;" width="35.793" height="65.33"/>
<path style="fill:#FFB600;" d="M428.598,210.877h-9.779v-16.973c0-5.028-4-9.119-8.918-9.119h-28.432v-10h28.432
	c10.309,0,18.697,8.577,18.697,19.119V210.877z"/>
<path style="fill:#495959;" d="M159.663,422.902h-19.878c-11.452,0-20.735-9.283-20.735-20.735v-53.493
	c0-11.452,9.283-20.735,20.735-20.735h19.878c11.452,0,20.735,9.283,20.735,20.735v53.493
	C180.398,413.619,171.115,422.902,159.663,422.902z"/>
<path style="fill:#3F4A4A;" d="M372.215,423.382h-19.878c-11.452,0-20.735-9.283-20.735-20.735v-53.493
	c0-11.452,9.283-20.735,20.735-20.735h19.878c11.452,0,20.735,9.283,20.735,20.735v53.493
	C392.949,414.099,383.666,423.382,372.215,423.382z"/>
<rect x="110.14" y="134.95" style="fill:#FFDA00;" width="291.72" height="250.67"/>
<rect x="255.57" y="134.95" style="fill:#FFB600;" width="146.29" height="250.67"/>
<rect x="126.94" y="147.91" style="fill:#FFFFFF;" width="258.12" height="216.18"/>
<rect x="255.57" y="147.91" style="fill:#F0F0F0;" width="129.49" height="216.18"/>
<rect x="110.14" y="311.03" style="fill:#FFDA00;" width="291.72" height="67.67"/>
<rect x="255.57" y="311.03" style="fill:#FFB600;" width="146.29" height="67.67"/>
<path style="fill:#FF9B32;" d="M369.658,88.618H142.342c-17.785,0-32.203,14.418-32.203,32.203v19.464H401.86v-19.464
	C401.861,103.036,387.443,88.618,369.658,88.618z"/>
<path style="fill:#FF8C05;" d="M401.861,120.821c0-17.785-14.418-32.203-32.203-32.203H255.571v51.667H401.86v-19.464H401.861z"/>
<path style="fill:#FFFFFF;" d="M194.905,362.146h-71.609v-34.572h38.11c18.501,0,33.499,14.998,33.499,33.499V362.146z"/>
<path style="fill:#F0F0F0;" d="M388.704,362.146h-71.609v-1.073c0-18.501,14.998-33.499,33.499-33.499h38.11L388.704,362.146
	L388.704,362.146z"/>
<rect x="105.12" y="369.24" style="fill:#D2D2D7;" width="301.75" height="32.26"/>
<rect x="255.57" y="369.24" style="fill:#B9B9BE;" width="151.3" height="32.26"/>
<g>
</g>
<g>
</g>
<g>
</g>
<g>
</g>
<g>
</g>
<g>
</g>
<g>
</g>
<g>
</g>
<g>
</g>
<g>
</g>
<g>
</g>
<g>
</g>
<g>
</g>
<g>
</g>
<g>
</g>
</svg>
