<?xml version="1.0" encoding="iso-8859-1"?>
<!-- Generator: Adobe Illustrator 19.0.0, SVG Export Plug-In . SVG Version: 6.00 Build 0)  -->
<svg version="1.1" id="Capa_1" xmlns="http://www.w3.org/2000/svg" xmlns:xlink="http://www.w3.org/1999/xlink" x="0px" y="0px"
	 viewBox="0 0 512 512" style="enable-background:new 0 0 512 512;" xml:space="preserve">
<circle style="fill:#008FF9;" cx="256" cy="256" r="256"/>
<path style="fill:#005FF7;" d="M512,256c0-12.773-0.949-25.323-2.755-37.594l-96.772-96.772l-120.044,12.295L276.5,118l1.347,9.754
	L91,141.667l172.577,172.577l-107.183,34.984l31.872,31.872l-41.853,40.668l89.446,89.445C242.505,511.731,249.221,512,256,512
	C397.385,512,512,397.385,512,256z"/>
<path style="fill:#FFDA00;" d="M250,141.667H91l0,0c0-16.433,14.167-29.286,30.522-27.691L250,126.5V141.667z"/>
<path style="fill:#FFB600;" d="M262,141.667h159l0,0c0-16.433-14.167-29.286-30.522-27.691L262,126.5V141.667z"/>
<rect x="235.5" y="118" style="fill:#495959;" width="41" height="50"/>
<g>
	<rect x="255.57" y="118" style="fill:#3F4A4A;" width="20.929" height="50"/>
	<polygon style="fill:#3F4A4A;" points="358.92,409.768 334.08,409.768 314.08,359.768 338.92,359.768 	"/>
</g>
<g>
	<rect x="327.41" y="396.77" style="fill:#495959;" width="38.17" height="25"/>
	<polygon style="fill:#495959;" points="177.92,409.768 153.08,409.768 173.08,359.768 197.92,359.768 	"/>
</g>
<rect x="146.41" y="396.77" style="fill:#55696E;" width="38.17" height="25"/>
<path style="fill:#FFFFFF;" d="M379.352,284.664c0,72.772-54.767,100.105-122.325,100.105s-122.325-27.333-122.325-100.105
	s54.767-131.765,122.325-131.765S379.352,211.892,379.352,284.664z"/>
<path style="fill:#F0F0F0;" d="M257.026,152.898c-0.486,0-0.97,0.014-1.455,0.02v231.841c0.485,0.003,0.969,0.009,1.455,0.009
	c67.559,0,122.325-27.333,122.325-100.105S324.585,152.898,257.026,152.898z"/>
<path style="fill:#87C7FF;" d="M150.26,282.65c0-63.516,47.801-115.006,106.767-115.006s106.767,51.49,106.767,115.006H150.26z"/>
<path style="fill:#65B1FC;" d="M257.026,167.644c-0.486,0-0.97,0.013-1.455,0.02V282.65h108.222
	C363.793,219.134,315.992,167.644,257.026,167.644z"/>
<g>
</g>
<g>
</g>
<g>
</g>
<g>
</g>
<g>
</g>
<g>
</g>
<g>
</g>
<g>
</g>
<g>
</g>
<g>
</g>
<g>
</g>
<g>
</g>
<g>
</g>
<g>
</g>
<g>
</g>
</svg>
