<?xml version="1.0" encoding="iso-8859-1"?>
<!-- Generator: Adobe Illustrator 19.0.0, SVG Export Plug-In . SVG Version: 6.00 Build 0)  -->
<svg version="1.1" id="Capa_1" xmlns="http://www.w3.org/2000/svg" xmlns:xlink="http://www.w3.org/1999/xlink" x="0px" y="0px"
	 viewBox="0 0 512 512" style="enable-background:new 0 0 512 512;" xml:space="preserve">
<circle style="fill:#FFDA00;" cx="256" cy="256" r="256"/>
<path style="fill:#FFB600;" d="M512,256c0-4.413-0.112-8.801-0.333-13.159L377.681,108.854L124.5,414l95.463,95.463
	C231.739,511.123,243.766,512,256,512C397.385,512,512,397.385,512,256z"/>
<path style="fill:#495959;" d="M352.25,414H124.5V98h227.75c19.468,0,35.25,15.782,35.25,35.25v245.5
	C387.5,398.218,371.718,414,352.25,414z"/>
<path style="fill:#323C3C;" d="M352.25,98h-96.679v316h96.679c19.468,0,35.25-15.782,35.25-35.25v-245.5
	C387.5,113.782,371.718,98,352.25,98z"/>
<circle style="fill:#008FF9;" cx="256" cy="190.14" r="66.861"/>
<path style="fill:#005FF7;" d="M256,123.278c-0.144,0-0.285,0.01-0.429,0.011V256.99c0.144,0,0.285,0.01,0.429,0.01
	c36.926,0,66.861-29.935,66.861-66.861C322.861,153.212,292.926,123.278,256,123.278z"/>
<circle style="fill:#87C7FF;" cx="256" cy="190.14" r="47.19"/>
<path style="fill:#65B1FC;" d="M256,142.954c-0.144,0-0.285,0.009-0.429,0.011v94.349c0.144,0.001,0.285,0.011,0.429,0.011
	c26.06,0,47.185-21.125,47.185-47.186C303.185,164.079,282.06,142.954,256,142.954z"/>
<rect x="205.9" y="316" style="fill:#FFFFFF;" width="100.2" height="17.215"/>
<rect x="255.57" y="316" style="fill:#F0F0F0;" width="50.53" height="17.214"/>
<rect x="217.67" y="349.11" style="fill:#FFFFFF;" width="76.67" height="17.215"/>
<rect x="255.57" y="349.11" style="fill:#F0F0F0;" width="38.762" height="17.214"/>
<g>
</g>
<g>
</g>
<g>
</g>
<g>
</g>
<g>
</g>
<g>
</g>
<g>
</g>
<g>
</g>
<g>
</g>
<g>
</g>
<g>
</g>
<g>
</g>
<g>
</g>
<g>
</g>
<g>
</g>
</svg>
