<?xml version="1.0" encoding="iso-8859-1"?>
<!-- Generator: Adobe Illustrator 19.0.0, SVG Export Plug-In . SVG Version: 6.00 Build 0)  -->
<svg version="1.1" id="Capa_1" xmlns="http://www.w3.org/2000/svg" xmlns:xlink="http://www.w3.org/1999/xlink" x="0px" y="0px"
	 viewBox="0 0 512 512" style="enable-background:new 0 0 512 512;" xml:space="preserve">
<circle style="fill:#495959;" cx="256" cy="256" r="256"/>
<path style="fill:#323C3C;" d="M512,256c0-29.811-5.113-58.422-14.48-85.029L413.549,87L98.451,329.146l59.811,59.811l-33.48,27.33
	l92.85,92.85C230.149,511.018,242.959,512,256,512C397.385,512,512,397.385,512,256z"/>
<rect x="98.45" y="87" style="fill:#F42727;" width="315.1" height="242.15"/>
<rect x="255.57" y="87" style="fill:#D30F0F;" width="157.98" height="242.15"/>
<path style="fill:#738C96;" d="M163.722,422.961h-24.086c-10.977,0-19.876-8.899-19.876-19.876v-44.104
	c0-10.977,8.899-19.876,19.876-19.876h24.086c10.977,0,19.876,8.899,19.876,19.876v44.104
	C183.598,414.062,174.699,422.961,163.722,422.961z"/>
<path style="fill:#607882;" d="M372.364,423.385h-24.086c-10.977,0-19.876-8.899-19.876-19.876v-44.104
	c0-10.977,8.899-19.876,19.876-19.876h24.086c10.977,0,19.876,8.899,19.876,19.876v44.104
	C392.241,414.486,383.342,423.385,372.364,423.385z"/>
<path style="fill:#FFDA00;" d="M374.442,386.331H137.558c-13.069,0-23.663-10.594-23.663-23.663V261.89
	c0-13.069,10.594-23.663,23.663-23.663h236.884c13.069,0,23.663,10.594,23.663,23.663v100.778
	C398.105,375.737,387.511,386.331,374.442,386.331z"/>
<path style="fill:#FFB600;" d="M374.442,238.227H255.571v148.104h118.871c13.069,0,23.663-10.594,23.663-23.663V261.89
	C398.105,248.821,387.511,238.227,374.442,238.227z"/>
<path style="fill:#FFFFFF;" d="M113.895,345.468v17.2c0,13.069,10.594,23.663,23.663,23.663h236.885
	c13.069,0,23.663-10.594,23.663-23.663v-17.2H113.895z"/>
<path style="fill:#F0F0F0;" d="M255.571,345.468v40.863h118.871c13.069,0,23.663-10.594,23.663-23.663v-17.2H255.571z"/>
<rect x="205.9" y="294.87" style="fill:#495959;" width="100.2" height="10.173"/>
<rect x="255.57" y="294.87" style="fill:#3F4A4A;" width="50.53" height="10.173"/>
<rect x="205.9" y="319.52" style="fill:#495959;" width="100.2" height="10.173"/>
<rect x="255.57" y="319.52" style="fill:#3F4A4A;" width="50.53" height="10.173"/>
<path style="fill:#FFFFFF;" d="M387.218,253.062H124.782l15.608-78.203c3.665-18.361,19.784-31.581,38.507-31.581h154.206
	c18.724,0,34.842,13.22,38.507,31.581L387.218,253.062z"/>
<path style="fill:#F7F7F7;" d="M371.61,174.859c-3.665-18.361-19.784-31.581-38.507-31.581h-77.531v109.785h131.647L371.61,174.859z
	"/>
<path style="fill:#FFDA00;" d="M397.037,261.116H114.962l17.53-87.834c4.401-22.052,23.918-38.058,46.405-38.058h154.206
	c22.488,0,42.004,16.006,46.405,38.058L397.037,261.116z M134.602,245.009h242.796l-13.687-68.574
	c-2.903-14.546-15.775-25.104-30.609-25.104H178.897c-14.833,0-27.706,10.558-30.609,25.104L134.602,245.009z"/>
<path style="fill:#FFB600;" d="M379.508,173.283c-4.401-22.053-23.917-38.059-46.405-38.059h-77.531v16.107h77.531
	c14.833,0,27.706,10.558,30.609,25.104l13.687,68.574H255.571v16.107h141.466L379.508,173.283z"/>
<path style="fill:#FFDA00;" d="M333.103,143.278H178.897c-14.846,0-28.047,8.316-34.708,20.911h223.622
	C361.15,151.594,347.949,143.278,333.103,143.278z"/>
<path style="fill:#FFB600;" d="M333.103,143.278h-77.531v20.911h112.24C361.15,151.594,347.949,143.278,333.103,143.278z"/>
<circle style="fill:#87C7FF;" cx="159.19" cy="312.36" r="25.313"/>
<circle style="fill:#65B1FC;" cx="352.81" cy="312.36" r="25.313"/>
<g>
</g>
<g>
</g>
<g>
</g>
<g>
</g>
<g>
</g>
<g>
</g>
<g>
</g>
<g>
</g>
<g>
</g>
<g>
</g>
<g>
</g>
<g>
</g>
<g>
</g>
<g>
</g>
<g>
</g>
</svg>
