<?xml version="1.0" encoding="iso-8859-1"?>
<!-- Generator: Adobe Illustrator 19.0.0, SVG Export Plug-In . SVG Version: 6.00 Build 0)  -->
<svg version="1.1" id="Capa_1" xmlns="http://www.w3.org/2000/svg" xmlns:xlink="http://www.w3.org/1999/xlink" x="0px" y="0px"
	 viewBox="0 0 512 512" style="enable-background:new 0 0 512 512;" xml:space="preserve">
<circle style="fill:#FFDA00;" cx="256" cy="256" r="256"/>
<path style="fill:#FFB600;" d="M511.74,267.24L419,174.5l-18.531,24.947l-81.438-81.438L140,135.5l63.226,63.226l-5.988,82.607
	l-137.905,17.5l62.359,62.358L103,372.167l139.478,139.478C246.956,511.878,251.464,512,256,512
	C393.617,512,505.855,403.408,511.74,267.24z"/>
<path style="fill:#F42727;" d="M403,396.5h-58.5c-27.062,0-49-21.938-49-49V153.333c0-9.849-7.984-17.833-17.833-17.833H140v-35
	h141.5c27.062,0,49,21.938,49,49v194.167c0,9.849,7.984,17.833,17.833,17.833H403V396.5z"/>
<path style="fill:#D30F0F;" d="M348.333,361.5c-9.849,0-17.833-7.984-17.833-17.833V149.5c0-27.062-21.938-49-49-49h-25.929v35
	h22.095c9.849,0,17.833,7.984,17.833,17.833V347.5c0,27.062,21.938,49,49,49H403v-35H348.333z"/>
<path style="fill:#008FF9;" d="M158.5,372.167H103v-35h51.667c9.849,0,17.833-7.984,17.833-17.833v-83.667
	c0-33.781,27.385-61.167,61.167-61.167H419v35H228.333c-11.506,0-20.833,9.327-20.833,20.833v92.834
	C207.5,350.229,185.562,372.167,158.5,372.167z"/>
<rect x="255.57" y="174.5" style="fill:#005FF7;" width="163.43" height="35"/>
<rect x="59.33" y="263.83" style="fill:#FFFFFF;" width="368" height="35"/>
<rect x="255.57" y="263.83" style="fill:#F0F0F0;" width="171.76" height="35"/>
<circle style="fill:#495959;" cx="191" cy="282" r="33.5"/>
<g>
	<circle style="fill:#3F4A4A;" cx="313.67" cy="192.67" r="33.5"/>
	<circle style="fill:#3F4A4A;" cx="313.67" cy="282" r="33.5"/>
</g>
<g>
</g>
<g>
</g>
<g>
</g>
<g>
</g>
<g>
</g>
<g>
</g>
<g>
</g>
<g>
</g>
<g>
</g>
<g>
</g>
<g>
</g>
<g>
</g>
<g>
</g>
<g>
</g>
<g>
</g>
</svg>
