<?xml version="1.0" encoding="iso-8859-1"?>
<!-- Generator: Adobe Illustrator 19.0.0, SVG Export Plug-In . SVG Version: 6.00 Build 0)  -->
<svg version="1.1" id="Capa_1" xmlns="http://www.w3.org/2000/svg" xmlns:xlink="http://www.w3.org/1999/xlink" x="0px" y="0px"
	 viewBox="0 0 512 512" style="enable-background:new 0 0 512 512;" xml:space="preserve">
<circle style="fill:#FFDA00;" cx="256" cy="256" r="256"/>
<path style="fill:#FFB600;" d="M512,256c0-12.914-0.966-25.6-2.812-38L294,2.812l0,0l-10.578,197.736H150.214l-18.521,185.808
	l125.628,125.628C398.096,511.271,512,396.943,512,256z"/>
<path style="fill:#0059F7;" d="M294,2.812C281.6,0.966,268.913,0,256,0s-25.6,0.966-38,2.812V187h76V2.812z"/>
<path style="fill:#27488F;" d="M294,2.812C281.6,0.966,268.913,0,256,0c-0.143,0-0.285,0.004-0.429,0.004V187H294V2.812z"/>
<path style="fill:#008FF9;" d="M122.5,174.333v191.833h267V174.333H122.5z M343.873,345.385H168.127v-126.27h175.746V345.385z"/>
<polygon style="fill:#005FF7;" points="389.5,174.333 255.571,174.333 255.571,219.115 343.873,219.115 343.873,345.385 
	255.571,345.385 255.571,366.167 389.5,366.167 "/>
<path style="fill:#0059F7;" d="M356.13,338.667c-12.129,0-23.444-5.917-30.531-15.76c-4.902-6.808-12.896-11.24-21.926-11.24
	c-10.015,0-18.757,5.453-23.418,13.552c-4.785,8.315-13.638,13.448-23.231,13.448h-2.048c-9.594,0-18.446-5.133-23.231-13.448
	c-4.661-8.099-13.403-13.552-23.418-13.552c-9.03,0-17.024,4.432-21.926,11.24c-7.087,9.843-18.402,15.76-30.531,15.76H122.5v24.083
	c0,19.284,15.633,34.917,34.917,34.917h197.167c19.284,0,34.917-15.633,34.917-34.917v-24.083H356.13z"/>
<path style="fill:#27488F;" d="M356.13,338.667c-12.129,0-23.444-5.917-30.531-15.76c-4.902-6.808-12.896-11.24-21.926-11.24
	c-10.015,0-18.757,5.453-23.418,13.552c-4.785,8.315-13.638,13.448-23.231,13.448h-1.453v59h99.012
	c19.284,0,34.917-15.633,34.917-34.917v-24.083H356.13z"/>
<g>
</g>
<g>
</g>
<g>
</g>
<g>
</g>
<g>
</g>
<g>
</g>
<g>
</g>
<g>
</g>
<g>
</g>
<g>
</g>
<g>
</g>
<g>
</g>
<g>
</g>
<g>
</g>
<g>
</g>
</svg>
