<?xml version="1.0" encoding="iso-8859-1"?>
<!-- Generator: Adobe Illustrator 19.0.0, SVG Export Plug-In . SVG Version: 6.00 Build 0)  -->
<svg version="1.1" id="Capa_1" xmlns="http://www.w3.org/2000/svg" xmlns:xlink="http://www.w3.org/1999/xlink" x="0px" y="0px"
	 viewBox="0 0 512 512" style="enable-background:new 0 0 512 512;" xml:space="preserve">
<circle style="fill:#F42727;" cx="256" cy="256" r="256"/>
<path style="fill:#D30F0F;" d="M512,256c0-3.652-0.095-7.282-0.247-10.897l-89.409-89.409L90.465,357.29l154.457,154.457
	C248.597,511.903,252.287,512,256,512C397.385,512,512,397.385,512,256z"/>
<path style="fill:#FFFFFF;" d="M387.799,372.928H124.201c-24.43,0-44.234-19.804-44.234-44.234V183.306
	c0-24.43,19.804-44.234,44.234-44.234h263.598c24.43,0,44.234,19.804,44.234,44.234v145.388
	C432.033,353.124,412.229,372.928,387.799,372.928z"/>
<path style="fill:#F0F0F0;" d="M387.799,139.072H254.976v233.856h132.823c24.43,0,44.234-19.804,44.234-44.234V183.306
	C432.033,158.876,412.229,139.072,387.799,139.072z"/>
<path style="fill:#FFDA00;" d="M162.75,256.036h-39c-10.355,0-18.75-8.395-18.75-18.75v-16.5c0-10.355,8.395-18.75,18.75-18.75h39
	c10.355,0,18.75,8.395,18.75,18.75v16.5C181.5,247.641,173.105,256.036,162.75,256.036z"/>
<path style="fill:#008FF9;" d="M352.925,163.89h-67.851c-7.06,0-12.783,5.723-12.783,12.783v73.259c0,3.368,1.313,6.423,3.442,8.707
	v9.608c0,2.919,2.366,5.285,5.286,5.285h10.571c2.919,0,5.286-2.366,5.286-5.285v-5.531h44.25v5.531
	c0,2.919,2.366,5.285,5.286,5.285h10.571c2.919,0,5.286-2.366,5.286-5.285v-9.608c2.129-2.283,3.442-5.338,3.442-8.707v-73.259
	C365.709,169.613,359.986,163.89,352.925,163.89z M290.791,249.072c-5.533,0-10.018-4.485-10.018-10.018s4.485-10.018,10.018-10.018
	c5.533,0,10.018,4.485,10.018,10.018C300.808,244.586,296.323,249.072,290.791,249.072z M316.173,220.678h-35.4v-35.4h35.4V220.678z
	 M347.21,249.072c-5.533,0-10.018-4.485-10.018-10.018s4.485-10.018,10.018-10.018c5.533,0,10.018,4.485,10.018,10.018
	C357.228,244.586,352.743,249.072,347.21,249.072z M357.228,220.678h-35.4v-35.4h35.4V220.678z"/>
<rect x="79.967" y="286.33" style="fill:#3F4A4A;" width="352.07" height="46"/>
<rect x="254.98" y="286.33" style="fill:#323C3C;" width="177.06" height="46"/>
<g>
</g>
<g>
</g>
<g>
</g>
<g>
</g>
<g>
</g>
<g>
</g>
<g>
</g>
<g>
</g>
<g>
</g>
<g>
</g>
<g>
</g>
<g>
</g>
<g>
</g>
<g>
</g>
<g>
</g>
</svg>
