<?xml version="1.0" encoding="iso-8859-1"?>
<!-- Generator: Adobe Illustrator 19.0.0, SVG Export Plug-In . SVG Version: 6.00 Build 0)  -->
<svg version="1.1" id="Capa_1" xmlns="http://www.w3.org/2000/svg" xmlns:xlink="http://www.w3.org/1999/xlink" x="0px" y="0px"
	 viewBox="0 0 512 512" style="enable-background:new 0 0 512 512;" xml:space="preserve">
<circle style="fill:#F42727;" cx="256" cy="256" r="256"/>
<path style="fill:#D30F0F;" d="M512,256c0-7.441-0.336-14.804-0.958-22.084l-97.902-97.902L287.154,262L64.64,293.289l89.982,89.982
	l-18.608,29.87l97.9,97.9C241.196,511.664,248.558,512,256,512C397.385,512,512,397.385,512,256z"/>
<rect x="81.64" y="218.71" style="fill:#FFFFFF;" width="358.36" height="74.58"/>
<rect x="255.57" y="218.71" style="fill:#F0F0F0;" width="184.43" height="74.58"/>
<rect x="407" y="218.71" style="fill:#DCD2CD;" width="45" height="74.58"/>
<rect x="64.64" y="218.71" style="fill:#FFDA00;" width="121.36" height="74.58"/>
<rect x="60.037" y="229.73" transform="matrix(-0.7071 0.7071 -0.7071 -0.7071 618.0305 256.0034)" style="fill:#3F4A4A;" width="391.916" height="52.539"/>
<polygon style="fill:#323C3C;" points="375.985,98.859 255.571,219.274 255.571,293.583 413.139,136.013 "/>
<g>
</g>
<g>
</g>
<g>
</g>
<g>
</g>
<g>
</g>
<g>
</g>
<g>
</g>
<g>
</g>
<g>
</g>
<g>
</g>
<g>
</g>
<g>
</g>
<g>
</g>
<g>
</g>
<g>
</g>
</svg>
