<?xml version="1.0" encoding="iso-8859-1"?>
<!-- Generator: Adobe Illustrator 19.0.0, SVG Export Plug-In . SVG Version: 6.00 Build 0)  -->
<svg version="1.1" id="Capa_1" xmlns="http://www.w3.org/2000/svg" xmlns:xlink="http://www.w3.org/1999/xlink" x="0px" y="0px"
	 viewBox="0 0 512 512" style="enable-background:new 0 0 512 512;" xml:space="preserve">
<circle style="fill:#FFDA00;" cx="256" cy="256" r="256"/>
<path style="fill:#FFB600;" d="M512,256c0-1.479-0.031-2.951-0.056-4.425L360.306,99.937L181.167,89.833L119.262,232.69L256,452.723
	l53.633,53.632C425.266,481.702,512,378.987,512,256z"/>
<path style="fill:#F42727;" d="M256,59.277c-85.132,0-154.144,69.013-154.144,154.144C101.856,347.095,256,452.723,256,452.723
	S410.144,338.56,410.144,213.422C410.144,128.29,341.132,59.277,256,59.277z M256,323.366c-60.721,0-109.944-49.224-109.944-109.945
	S195.279,103.477,256,103.477s109.944,49.224,109.944,109.944S316.721,323.366,256,323.366z"/>
<path style="fill:#D30F0F;" d="M256,103.477c60.721,0,109.944,49.224,109.944,109.945S316.72,323.366,256,323.366v129.356
	c0,0,154.144-114.163,154.144-239.301c0-85.132-69.013-154.145-154.144-154.145L256,103.477L256,103.477z"/>
<path style="fill:#495959;" d="M305.079,134.113H206.92c-10.214,0-18.494,8.28-18.494,18.494V258.59
	c0,4.873,1.899,9.292,4.979,12.596v13.9c0,4.223,3.424,7.646,7.646,7.646h15.293c4.223,0,7.646-3.423,7.646-7.646v-8.002h64.016
	v8.002c0,4.223,3.423,7.646,7.646,7.646h15.293c4.223,0,7.646-3.423,7.646-7.646v-13.9c3.08-3.303,4.979-7.723,4.979-12.596V152.606
	C323.573,142.392,315.293,134.113,305.079,134.113z M215.19,257.344c-8.004,0-14.493-6.489-14.493-14.493
	s6.488-14.493,14.493-14.493c8.004,0,14.493,6.489,14.493,14.493C229.682,250.856,223.194,257.344,215.19,257.344z M251.91,216.267
	h-51.213v-51.213h51.213V216.267z M296.811,257.344c-8.004,0-14.493-6.489-14.493-14.493s6.488-14.493,14.493-14.493
	c8.004,0,14.493,6.489,14.493,14.493C311.303,250.856,304.815,257.344,296.811,257.344z M311.303,216.267H260.09v-51.213h51.213
	V216.267z"/>
<path style="fill:#3F4A4A;" d="M305.079,134.113h-49.508v142.97h32.437v8.002c0,4.223,3.423,7.646,7.646,7.646h15.293
	c4.223,0,7.646-3.423,7.646-7.646v-13.9c3.08-3.304,4.979-7.723,4.979-12.596V152.606
	C323.573,142.392,315.293,134.113,305.079,134.113z M296.811,257.344c-8.004,0-14.493-6.489-14.493-14.493
	s6.488-14.493,14.493-14.493s14.492,6.489,14.492,14.493S304.815,257.344,296.811,257.344z M311.303,216.267H260.09v-51.213h51.213
	V216.267z"/>
<g>
</g>
<g>
</g>
<g>
</g>
<g>
</g>
<g>
</g>
<g>
</g>
<g>
</g>
<g>
</g>
<g>
</g>
<g>
</g>
<g>
</g>
<g>
</g>
<g>
</g>
<g>
</g>
<g>
</g>
</svg>
