<?xml version="1.0" encoding="iso-8859-1"?>
<!-- Generator: Adobe Illustrator 19.0.0, SVG Export Plug-In . SVG Version: 6.00 Build 0)  -->
<svg version="1.1" id="Capa_1" xmlns="http://www.w3.org/2000/svg" xmlns:xlink="http://www.w3.org/1999/xlink" x="0px" y="0px"
	 viewBox="0 0 512 512" style="enable-background:new 0 0 512 512;" xml:space="preserve">
<circle style="fill:#FFDA00;" cx="256" cy="256" r="256"/>
<path style="fill:#FFB600;" d="M511.958,259.292L329.667,77l-147.333,43.333L256,194l-11.781,159.302l-53.469-53.469l-71.5,22
	l52.372,52.372l-45.388,51.009l82.394,82.394C223.982,510.48,239.812,512,256,512C396.284,512,510.193,399.157,511.958,259.292z"/>
<path style="fill:#495959;" d="M158.833,435h-13c-13.543,0-24.521-10.978-24.521-24.521v-66.958
	c0-13.543,10.978-24.521,24.521-24.521h13c13.543,0,24.521,10.978,24.521,24.521v66.958C183.354,424.022,172.376,435,158.833,435z"
	/>
<path style="fill:#3F4A4A;" d="M366.167,435h-13c-13.543,0-24.521-10.978-24.521-24.521v-66.958
	c0-13.543,10.978-24.521,24.521-24.521h13c13.543,0,24.521,10.978,24.521,24.521v66.958C390.688,424.022,379.709,435,366.167,435z"
	/>
<polygon style="fill:#738C96;" points="321.25,299.833 321.25,347.833 190.75,347.833 190.75,299.833 119.25,299.833 
	119.25,321.833 164.75,321.833 164.75,388.833 347.25,388.833 347.25,321.833 392.75,321.833 392.75,299.833 "/>
<polygon style="fill:#607882;" points="321.25,299.833 321.25,347.833 255.571,347.833 255.571,388.833 347.25,388.833 
	347.25,321.833 392.75,321.833 392.75,299.833 "/>
<rect x="239" y="84.33" style="fill:#495959;" width="34" height="304.5"/>
<rect x="255.57" y="84.33" style="fill:#3F4A4A;" width="17.429" height="304.5"/>
<rect x="182.33" y="77" style="fill:#55696E;" width="147.33" height="43.33"/>
<rect x="255.57" y="77" style="fill:#495959;" width="74.09" height="43.33"/>
<g>
</g>
<g>
</g>
<g>
</g>
<g>
</g>
<g>
</g>
<g>
</g>
<g>
</g>
<g>
</g>
<g>
</g>
<g>
</g>
<g>
</g>
<g>
</g>
<g>
</g>
<g>
</g>
<g>
</g>
</svg>
