<?xml version="1.0" encoding="iso-8859-1"?>
<!-- Generator: Adobe Illustrator 19.0.0, SVG Export Plug-In . SVG Version: 6.00 Build 0)  -->
<svg version="1.1" id="Capa_1" xmlns="http://www.w3.org/2000/svg" xmlns:xlink="http://www.w3.org/1999/xlink" x="0px" y="0px"
	 viewBox="0 0 512 512" style="enable-background:new 0 0 512 512;" xml:space="preserve">
<circle style="fill:#F42727;" cx="256" cy="256" r="256"/>
<path style="fill:#D30F0F;" d="M512,256c0-17.647-1.787-34.878-5.187-51.521L394,91.667L101.75,307l90.926,90.926L118,420.333
	l86.48,86.479c16.643,3.4,33.873,5.187,51.52,5.187C397.385,512,512,397.385,512,256z"/>
<rect id="SVGCleanerId_0" x="118" y="91.67" style="fill:#FFFFFF;" width="276" height="328.67"/>
<g>
	<rect id="SVGCleanerId_0_1_" x="118" y="91.67" style="fill:#FFFFFF;" width="276" height="328.67"/>
</g>
<rect x="255.57" y="91.67" style="fill:#F7F7F7;" width="138.43" height="328.67"/>
<rect x="118" y="132.33" style="fill:#87C7FF;" width="276" height="159.33"/>
<rect x="255.57" y="132.33" style="fill:#65B1FC;" width="138.43" height="159.33"/>
<path style="fill:#008FF9;" d="M293.5,291.667h-75V243c0-20.711,16.789-37.5,37.5-37.5l0,0c20.711,0,37.5,16.789,37.5,37.5V291.667z
	"/>
<path style="fill:#005FF7;" d="M293.5,243c0-20.711-16.789-37.5-37.5-37.5l0,0c-0.144,0-0.285,0.009-0.429,0.011v86.156H293.5V243z"
	/>
<rect x="101.75" y="274" style="fill:#FFDA00;" width="308.5" height="33"/>
<rect x="255.57" y="274" style="fill:#FFB600;" width="154.68" height="33"/>
<g>
	<path style="fill:#008FF9;" d="M170.531,342.135h-10.304v33.87c0,1.951-0.435,3.397-1.304,4.341
		c-0.87,0.943-1.993,1.415-3.371,1.415c-1.399,0-2.539-0.477-3.418-1.431c-0.88-0.954-1.32-2.396-1.32-4.325v-33.87H140.51
		c-1.611,0-2.81-0.355-3.594-1.065c-0.785-0.71-1.177-1.648-1.177-2.814c0-1.208,0.408-2.163,1.225-2.862
		c0.816-0.7,1.998-1.049,3.546-1.049h30.021c1.632,0,2.846,0.36,3.642,1.081c0.795,0.721,1.192,1.665,1.192,2.831
		s-0.403,2.104-1.208,2.814C173.351,341.78,172.142,342.135,170.531,342.135z"/>
	<path style="fill:#008FF9;" d="M181.344,376.005v-36.732c0-1.908,0.434-3.339,1.304-4.293c0.869-0.954,1.993-1.431,3.371-1.431
		c1.42,0,2.57,0.472,3.451,1.416c0.879,0.943,1.32,2.38,1.32,4.309v36.732c0,1.929-0.44,3.371-1.32,4.325s-2.031,1.431-3.451,1.431
		c-1.357,0-2.476-0.482-3.355-1.447C181.784,379.349,181.344,377.913,181.344,376.005z"/>
	<path style="fill:#008FF9;" d="M241.069,366.241c0,1.484-0.366,3.09-1.097,4.818s-1.882,3.424-3.451,5.088
		c-1.569,1.665-3.573,3.016-6.011,4.055s-5.279,1.558-8.523,1.558c-2.459,0-4.696-0.233-6.71-0.7
		c-2.014-0.466-3.843-1.192-5.486-2.178s-3.154-2.284-4.532-3.896c-1.23-1.463-2.279-3.101-3.148-4.913
		c-0.87-1.813-1.521-3.748-1.956-5.804s-0.652-4.24-0.652-6.551c0-3.752,0.546-7.113,1.638-10.082
		c1.091-2.968,2.655-5.506,4.691-7.617c2.035-2.109,4.42-3.715,7.155-4.818c2.735-1.102,5.65-1.654,8.746-1.654
		c3.773,0,7.134,0.753,10.082,2.258c2.947,1.505,5.205,3.366,6.774,5.581c1.569,2.216,2.353,4.309,2.353,6.281
		c0,1.081-0.381,2.035-1.145,2.862c-0.763,0.827-1.686,1.24-2.767,1.24c-1.208,0-2.115-0.286-2.719-0.858
		c-0.604-0.572-1.278-1.558-2.02-2.958c-1.23-2.311-2.677-4.039-4.341-5.184c-1.665-1.145-3.716-1.717-6.154-1.717
		c-3.88,0-6.97,1.474-9.27,4.421c-2.301,2.947-3.451,7.134-3.451,12.562c0,3.625,0.509,6.642,1.526,9.048
		c1.018,2.407,2.459,4.204,4.325,5.391c1.865,1.188,4.049,1.781,6.551,1.781c2.714,0,5.009-0.673,6.885-2.02
		c1.876-1.346,3.292-3.323,4.246-5.931c0.402-1.229,0.901-2.231,1.495-3.005c0.593-0.774,1.547-1.161,2.862-1.161
		c1.124,0,2.088,0.393,2.894,1.177C240.666,364.1,241.069,365.076,241.069,366.241z"/>
	<path style="fill:#008FF9;" d="M259.069,339.273v16.346l18.541-19.335c0.89-0.933,1.648-1.622,2.274-2.067
		c0.625-0.445,1.458-0.668,2.496-0.668c1.357,0,2.454,0.397,3.292,1.193c0.837,0.795,1.256,1.765,1.256,2.91
		c0,1.378-0.71,2.746-2.131,4.103l-11.48,10.876l13.23,18.954c0.933,1.315,1.632,2.465,2.099,3.451s0.7,1.945,0.7,2.878
		c0,1.039-0.408,1.94-1.224,2.704c-0.816,0.763-1.924,1.145-3.324,1.145c-1.314,0-2.385-0.281-3.212-0.843
		c-0.827-0.562-1.526-1.309-2.099-2.242s-1.082-1.781-1.527-2.544l-11.163-17.173l-7.728,7.41v9.636
		c0,1.951-0.445,3.397-1.335,4.341c-0.891,0.943-2.036,1.415-3.435,1.415c-0.806,0-1.58-0.212-2.322-0.636
		c-0.742-0.424-1.315-0.997-1.717-1.717c-0.297-0.594-0.477-1.283-0.541-2.067s-0.096-1.918-0.096-3.403v-34.665
		c0-1.908,0.418-3.339,1.256-4.293c0.837-0.954,1.977-1.431,3.419-1.431c1.42,0,2.57,0.472,3.45,1.416
		S259.069,337.344,259.069,339.273z"/>
</g>
<g>
	<path style="fill:#005FF7;" d="M288.645,375.035c-0.466-0.986-1.166-2.136-2.099-3.451l-13.23-18.954l11.48-10.876
		c1.42-1.356,2.131-2.724,2.131-4.103c0-1.145-0.419-2.115-1.256-2.91c-0.838-0.795-1.935-1.193-3.292-1.193
		c-1.039,0-1.871,0.223-2.496,0.668c-0.626,0.445-1.384,1.134-2.274,2.067l-18.541,19.335v-16.346c0-1.929-0.44-3.366-1.32-4.309
		c-0.598-0.641-1.331-1.046-2.178-1.252v47.881c0.833-0.207,1.561-0.61,2.162-1.247c0.89-0.943,1.335-2.39,1.335-4.341v-9.636
		l7.728-7.41l11.163,17.173c0.445,0.763,0.954,1.611,1.527,2.544c0.572,0.933,1.272,1.68,2.099,2.242s1.897,0.843,3.212,0.843
		c1.399,0,2.507-0.381,3.324-1.145c0.816-0.764,1.224-1.665,1.224-2.704C289.345,376.98,289.111,376.021,288.645,375.035z"/>
	<path style="fill:#005FF7;" d="M328.494,341.626h-21.276v11.449h19.59c1.441,0,2.517,0.323,3.228,0.97
		c0.71,0.647,1.065,1.5,1.065,2.56c0,1.061-0.35,1.924-1.05,2.592c-0.7,0.667-1.781,1.001-3.244,1.001h-19.59v13.262h22.007
		c1.484,0,2.602,0.345,3.355,1.034c0.752,0.689,1.129,1.606,1.129,2.751c0,1.103-0.376,1.999-1.129,2.687
		c-0.753,0.689-1.871,1.034-3.355,1.034h-25.665c-2.057,0-3.536-0.456-4.437-1.368c-0.901-0.911-1.352-2.385-1.352-4.42v-35.046
		c0-1.356,0.201-2.464,0.604-3.323c0.403-0.858,1.034-1.484,1.893-1.876c0.858-0.392,1.956-0.588,3.292-0.588h24.933
		c1.505,0,2.624,0.333,3.355,1.001s1.097,1.542,1.097,2.624c0,1.103-0.366,1.987-1.097,2.655S329.999,341.626,328.494,341.626z"/>
	<path style="fill:#005FF7;" d="M371.49,342.135h-10.304v33.87c0,1.951-0.435,3.397-1.304,4.341
		c-0.87,0.943-1.993,1.415-3.371,1.415c-1.399,0-2.539-0.477-3.418-1.431c-0.88-0.954-1.32-2.396-1.32-4.325v-33.87h-10.304
		c-1.611,0-2.81-0.355-3.594-1.065c-0.785-0.71-1.177-1.648-1.177-2.814c0-1.208,0.408-2.163,1.225-2.862
		c0.816-0.7,1.998-1.049,3.546-1.049h30.021c1.632,0,2.846,0.36,3.642,1.081c0.795,0.721,1.192,1.665,1.192,2.831
		s-0.403,2.104-1.208,2.814C374.31,341.78,373.101,342.135,371.49,342.135z"/>
</g>
<g>
</g>
<g>
</g>
<g>
</g>
<g>
</g>
<g>
</g>
<g>
</g>
<g>
</g>
<g>
</g>
<g>
</g>
<g>
</g>
<g>
</g>
<g>
</g>
<g>
</g>
<g>
</g>
<g>
</g>
</svg>
