<?xml version="1.0" encoding="iso-8859-1"?>
<!-- Generator: Adobe Illustrator 19.0.0, SVG Export Plug-In . SVG Version: 6.00 Build 0)  -->
<svg version="1.1" id="Capa_1" xmlns="http://www.w3.org/2000/svg" xmlns:xlink="http://www.w3.org/1999/xlink" x="0px" y="0px"
	 viewBox="0 0 512 512" style="enable-background:new 0 0 512 512;" xml:space="preserve">
<circle style="fill:#FFDA00;" cx="256" cy="256" r="256"/>
<path style="fill:#FFB600;" d="M256,512c138.181,0,250.772-109.485,255.804-246.437L299.907,53.667l-1.939,9.468L270.5,35.667
	L256.547,77.88l-24.214-24.214l-114,166.667l68.49,68.49L124.97,475.952C163.303,498.837,208.112,512,256,512z"/>
<polygon style="fill:#87C7FF;" points="359.667,230.333 270.5,230.333 270.5,35.667 241.5,35.667 241.5,230.333 152.333,230.333 
	122.333,317.185 389.667,317.185 "/>
<polygon style="fill:#65B1FC;" points="359.667,230.333 270.5,230.333 270.5,35.667 255.571,35.667 255.571,317.185 
	389.667,317.185 "/>
<polygon style="fill:#FFFFFF;" points="118.333,220.333 232.333,220.333 232.333,53.667 212.093,53.667 "/>
<polygon style="fill:#F0F0F0;" points="393.667,220.333 279.667,220.333 279.667,53.667 299.907,53.667 "/>
<polygon style="fill:#FFFFFF;" points="353.667,256 310.333,256 201.667,256 145.972,256 90.278,256 120.278,405.667 
	201.667,405.667 201.667,323.667 310.333,323.667 310.333,405.667 391.722,405.667 421.722,256 "/>
<polygon style="fill:#F0F0F0;" points="353.667,256 310.333,256 255.571,256 255.571,323.667 310.333,323.667 310.333,405.667 
	391.722,405.667 421.722,256 "/>
<path style="fill:#008FF9;" d="M499.883,334c-24.392,0-24.392,22.431-48.783,22.431c-24.392,0-24.392-22.431-48.783-22.431
	c-24.388,0-24.388,22.431-48.776,22.431c-24.389,0-24.389-22.431-48.778-22.431c-24.388,0-24.388,22.431-48.776,22.431
	C231.6,356.431,231.6,334,207.212,334c-24.385,0-24.385,22.431-48.769,22.431c-24.387,0-24.387-22.431-48.774-22.431
	c-24.388,0-24.388,22.431-48.776,22.431S36.505,334,12.117,334C45.109,437.238,141.817,512,256,512S466.891,437.238,499.883,334z"/>
<path style="fill:#005FF7;" d="M451.1,356.431c-24.392,0-24.392-22.431-48.783-22.431c-24.388,0-24.388,22.431-48.776,22.431
	c-24.389,0-24.389-22.431-48.778-22.431c-24.388,0-24.388,22.431-48.776,22.431c-0.143,0-0.274-0.01-0.415-0.012v155.576
	c0.143,0,0.286,0.004,0.429,0.004c114.183,0,210.891-74.762,243.883-178C475.491,334,475.491,356.431,451.1,356.431z"/>
<g>
</g>
<g>
</g>
<g>
</g>
<g>
</g>
<g>
</g>
<g>
</g>
<g>
</g>
<g>
</g>
<g>
</g>
<g>
</g>
<g>
</g>
<g>
</g>
<g>
</g>
<g>
</g>
<g>
</g>
</svg>
