<?xml version="1.0" encoding="iso-8859-1"?>
<!-- Generator: Adobe Illustrator 19.0.0, SVG Export Plug-In . SVG Version: 6.00 Build 0)  -->
<svg version="1.1" id="Capa_1" xmlns="http://www.w3.org/2000/svg" xmlns:xlink="http://www.w3.org/1999/xlink" x="0px" y="0px"
	 viewBox="0 0 512 512" style="enable-background:new 0 0 512 512;" xml:space="preserve">
<circle style="fill:#495959;" cx="256" cy="256" r="256"/>
<path style="fill:#323C3C;" d="M512,256c0-6.159-0.231-12.264-0.659-18.314L403.048,129.392l-2.941,4.417l-32.453-32.453
	l-253.75,28.036L90,204.333L226.287,340.62L110.5,375l25.553,25.553l-16.45,9.858l98.839,98.839C230.702,511.053,243.24,512,256,512
	C397.385,512,512,397.385,512,256z"/>
<path style="fill:#738C96;" d="M163.458,414.833h-34.417c-6.789,0-12.292-5.503-12.292-12.292v-52.917
	c0-6.789,5.503-12.292,12.292-12.292h34.417c6.789,0,12.292,5.503,12.292,12.292v52.917
	C175.75,409.33,170.247,414.833,163.458,414.833z"/>
<path style="fill:#607882;" d="M382.958,414.833h-34.417c-6.788,0-12.292-5.503-12.292-12.292v-52.917
	c0-6.789,5.503-12.292,12.292-12.292h34.417c6.788,0,12.292,5.503,12.292,12.292v52.917
	C395.25,409.33,389.747,414.833,382.958,414.833z"/>
<path style="fill:#FFDA00;" d="M382.333,279.667H129.667V137.833c0-28.259,22.908-51.167,51.167-51.167h148.854
	c29.076,0,52.646,23.57,52.646,52.646v140.355H382.333z"/>
<g>
	<path style="fill:#FFB600;" d="M382.381,139.149c0-28.985-23.497-52.482-52.482-52.482h-74.28v193h126.762V139.149z"/>
	<path style="fill:#FFB600;" d="M129.667,134.5c0-26.418,23.526-47.833,52.547-47.833h147.572c29.021,0,52.547,21.416,52.547,47.833
		H129.667z"/>
</g>
<path style="fill:#FF9B32;" d="M329.786,86.667h-74.215V134.5h126.762C382.333,108.082,358.807,86.667,329.786,86.667z"/>
<path style="fill:#FFB600;" d="M401.5,375h-291V270.917c0-20.204,16.379-36.583,36.583-36.583h217.833
	c20.204,0,36.583,16.379,36.583,36.583L401.5,375L401.5,375z"/>
<path style="fill:#FF9B32;" d="M401.5,270.917c0-20.204-16.379-36.583-36.583-36.583H255.571V375H401.5V270.917z"/>
<path style="fill:#FFDA00;" d="M337.5,375h-163v-86.678c0-13.433,10.889-24.322,24.322-24.322h114.356
	c13.433,0,24.322,10.889,24.322,24.322V375z"/>
<g>
	<path style="fill:#FFB600;" d="M337.5,288.322c0-13.433-10.889-24.322-24.322-24.322h-57.607v111H337.5V288.322z"/>
	<rect x="193" y="282" style="fill:#FFB600;" width="126" height="12"/>
</g>
<rect x="255.57" y="282" style="fill:#FF9B32;" width="63.43" height="12"/>
<rect x="144.5" y="153" style="fill:#19A4F9;" width="102.25" height="70"/>
<rect x="265.25" y="153" style="fill:#008FF9;" width="102.25" height="70"/>
<circle style="fill:#19A4F9;" cx="144.5" cy="308.5" r="22.5"/>
<circle style="fill:#008FF9;" cx="367.5" cy="308.5" r="22.5"/>
<g>
	<rect x="90" y="149" style="fill:#FFB600;" width="31" height="55.33"/>
	<path style="fill:#FFB600;" d="M115.75,153.667h-10v-14.375c0-9.351,7.607-16.958,16.958-16.958h24.625v10h-24.625
		c-3.837,0-6.958,3.121-6.958,6.958C115.75,139.292,115.75,153.667,115.75,153.667z"/>
</g>
<g>
	<rect x="391" y="149" style="fill:#FF9B32;" width="31" height="55.33"/>
	<path style="fill:#FF9B32;" d="M406.25,153.667h-10v-14.375c0-3.837-3.121-6.958-6.958-6.958h-24.625v-10h24.625
		c9.351,0,16.958,7.607,16.958,16.958V153.667z"/>
</g>
<rect x="193" y="311.08" style="fill:#FFB600;" width="126" height="12"/>
<rect x="255.57" y="311.08" style="fill:#FF9B32;" width="63.43" height="12"/>
<rect x="193" y="340.17" style="fill:#FFB600;" width="126" height="12"/>
<rect x="255.57" y="340.17" style="fill:#FF9B32;" width="63.43" height="12"/>
<rect x="194.31" y="100.5" style="fill:#FFFFFF;" width="123.37" height="34"/>
<rect x="255.57" y="100.5" style="fill:#F0F0F0;" width="62.12" height="34"/>
<g>
</g>
<g>
</g>
<g>
</g>
<g>
</g>
<g>
</g>
<g>
</g>
<g>
</g>
<g>
</g>
<g>
</g>
<g>
</g>
<g>
</g>
<g>
</g>
<g>
</g>
<g>
</g>
<g>
</g>
</svg>
