<?xml version="1.0" encoding="iso-8859-1"?>
<!-- Generator: Adobe Illustrator 19.0.0, SVG Export Plug-In . SVG Version: 6.00 Build 0)  -->
<svg version="1.1" id="Capa_1" xmlns="http://www.w3.org/2000/svg" xmlns:xlink="http://www.w3.org/1999/xlink" x="0px" y="0px"
	 viewBox="0 0 512 512" style="enable-background:new 0 0 512 512;" xml:space="preserve">
<circle style="fill:#FFDA00;" cx="256" cy="256" r="256"/>
<path style="fill:#FFB600;" d="M282.885,510.597C411.632,497.159,512,388.305,512,256c0-8.666-0.436-17.229-1.277-25.673
	l-118.39-118.39l-7.653,20.861L359,107.118l-4.854,30.451L306.287,89.71l-186.62,45.887l193.134,193.134l-165.897,45.885
	L282.885,510.597z"/>
<path style="fill:#F42727;" d="M365.096,374.616H146.904V203.509c0-37.506,30.405-67.911,67.911-67.911h82.37
	c37.506,0,67.911,30.405,67.911,67.911V374.616z"/>
<path style="fill:#D30F0F;" d="M365.096,203.509c0-37.507-30.405-67.911-67.911-67.911h-41.614v239.019h109.525V203.509z"/>
<path style="fill:#495959;" d="M256,455L256,455c-25.408,0-46.005-20.597-46.005-46.004v-60.901
	c0-25.408,20.597-46.005,46.005-46.005l0,0c25.408,0,46.004,20.597,46.004,46.005v60.901C302.005,434.403,281.408,455,256,455z"/>
<path style="fill:#3F4A4A;" d="M256,302.09L256,302.09c-0.144,0-0.285,0.01-0.429,0.011V454.99c0.144,0,0.285,0.01,0.429,0.01l0,0
	c25.408,0,46.004-20.597,46.004-46.004v-60.901C302.004,322.687,281.408,302.09,256,302.09z"/>
<path style="fill:#D30F0F;" d="M314.491,361.677H197.509v-58.492c0-32.304,26.188-58.491,58.491-58.491l0,0
	c32.304,0,58.491,26.188,58.491,58.491V361.677z"/>
<path style="fill:#B71313;" d="M314.491,303.185c0-32.304-26.188-58.491-58.491-58.491l0,0c-0.144,0-0.285,0.01-0.429,0.011v116.972
	h58.92V303.185z"/>
<rect x="119.67" y="111.94" style="fill:#495959;" width="272.67" height="23.659"/>
<rect x="255.57" y="111.94" style="fill:#3F4A4A;" width="136.76" height="23.66"/>
<rect x="153" y="107.12" style="fill:#F42727;" width="206" height="33.3"/>
<g>
	<rect x="255.57" y="107.12" style="fill:#D30F0F;" width="103.43" height="33.3"/>
	<circle style="fill:#D30F0F;" cx="256" cy="140.42" r="71.42"/>
</g>
<path style="fill:#B71313;" d="M256,69c-0.144,0-0.285,0.01-0.429,0.011v142.812c0.144,0.001,0.285,0.011,0.429,0.011
	c39.442,0,71.417-31.974,71.417-71.417S295.442,69,256,69z"/>
<circle style="fill:#87C7FF;" cx="256" cy="140.42" r="40.809"/>
<path style="fill:#65B1FC;" d="M256,99.607c-0.144,0-0.285,0.009-0.429,0.011v81.597c0.144,0.001,0.285,0.011,0.429,0.011
	c22.539,0,40.81-18.271,40.81-40.81C296.81,117.878,278.539,99.607,256,99.607z"/>
<g>
</g>
<g>
</g>
<g>
</g>
<g>
</g>
<g>
</g>
<g>
</g>
<g>
</g>
<g>
</g>
<g>
</g>
<g>
</g>
<g>
</g>
<g>
</g>
<g>
</g>
<g>
</g>
<g>
</g>
</svg>
