<?xml version="1.0" encoding="iso-8859-1"?>
<!-- Generator: Adobe Illustrator 19.0.0, SVG Export Plug-In . SVG Version: 6.00 Build 0)  -->
<svg version="1.1" id="Capa_1" xmlns="http://www.w3.org/2000/svg" xmlns:xlink="http://www.w3.org/1999/xlink" x="0px" y="0px"
	 viewBox="0 0 512 512" style="enable-background:new 0 0 512 512;" xml:space="preserve">
<circle style="fill:#495959;" cx="256" cy="256" r="256"/>
<path style="fill:#323C3C;" d="M512,256c0-10.462-0.643-20.773-1.863-30.906L392.446,107.403L113.915,416.207l90.615,90.615
	C221.158,510.217,238.37,512,256,512C397.385,512,512,397.385,512,256z"/>
<g>
	<path style="fill:#FFDA00;" d="M398.085,146.46c0-26.818-21.74-48.558-48.558-48.558H162.473c-26.818,0-48.558,21.74-48.558,48.558
		v5.394h284.169L398.085,146.46L398.085,146.46z"/>
	<path style="fill:#FFDA00;" d="M407.585,161.354H104.416V146.46c0-32.013,26.044-58.057,58.057-58.057h187.055
		c32.013,0,58.058,26.044,58.058,58.057v14.894H407.585z M123.63,142.354h264.741c-2.06-19.613-18.694-34.951-38.844-34.951H162.473
		C142.323,107.403,125.688,122.741,123.63,142.354z"/>
</g>
<path style="fill:#FFB600;" d="M407.585,146.46c0-32.013-26.045-58.057-58.058-58.057h-93.956v19h93.956
	c20.149,0,36.784,15.338,38.844,34.951h-132.8v19h152.014L407.585,146.46L407.585,146.46z"/>
<path style="fill:#738C96;" d="M155.821,421.617h-27.276c-12.431,0-22.509-10.078-22.509-22.509v-49.945
	c0-12.431,10.078-22.509,22.509-22.509h27.276c12.431,0,22.509,10.078,22.509,22.509v49.945
	C178.33,411.54,168.252,421.617,155.821,421.617z"/>
<path style="fill:#55696E;" d="M383.455,422.097h-27.276c-12.431,0-22.509-10.078-22.509-22.509v-49.945
	c0-12.431,10.078-22.509,22.509-22.509h27.276c12.431,0,22.509,10.078,22.509,22.509v49.945
	C405.964,412.02,395.886,422.097,383.455,422.097z"/>
<path style="fill:#FFDA00;" d="M385.788,383.575H126.212c-11.828,0-21.417-9.589-21.417-21.417v-87.763
	c0-11.828,9.589-21.417,21.417-21.417h259.575c11.828,0,21.417,9.589,21.417,21.417v87.763
	C407.205,373.986,397.616,383.575,385.788,383.575z"/>
<path style="fill:#FFB600;" d="M385.788,252.978H255.571v130.598h130.216c11.828,0,21.417-9.589,21.417-21.417v-87.763
	C407.205,262.566,397.616,252.978,385.788,252.978z"/>
<path style="fill:#607882;" d="M366.044,371.095H145.956c-12.195,0-22.081-9.886-22.081-22.081l0,0h264.249l0,0
	C388.124,361.209,378.238,371.095,366.044,371.095z"/>
<path style="fill:#55696E;" d="M255.571,349.014v22.081h110.472c12.195,0,22.081-9.886,22.081-22.081H255.571z"/>
<path style="fill:#495959;" d="M300.881,371.095h-89.763c-12.195,0-22.081-9.886-22.081-22.081l0,0h133.924l0,0
	C322.962,361.209,313.076,371.095,300.881,371.095z"/>
<path style="fill:#3F4A4A;" d="M255.571,349.014v22.081h45.31c12.195,0,22.081-9.886,22.081-22.081H255.571z"/>
<path style="fill:#008FF9;" d="M138.876,342.949h39.454v-11.927c0-10.272-6.016-19.591-15.378-23.819l-15.559-7.028
	c-13.896-6.277-29.638,3.886-29.638,19.134v2.52C117.755,333.493,127.212,342.949,138.876,342.949z"/>
<path style="fill:#005FF7;" d="M373.124,342.949H333.67v-11.927c0-10.272,6.017-19.591,15.378-23.819l15.559-7.028
	c13.896-6.277,29.638,3.886,29.638,19.134v2.52C394.244,333.493,384.788,342.949,373.124,342.949z"/>
<path style="fill:#FFFFFF;" d="M113.915,151.792v137.663h284.169V151.792c0-18.663-15.129-33.792-33.792-33.792H147.708
	C129.045,118,113.915,133.129,113.915,151.792z"/>
<path style="fill:#F7F7F7;" d="M398.084,151.792c0-18.663-15.129-33.792-33.792-33.792H255.571v171.455h142.513L398.084,151.792
	L398.084,151.792z"/>
<path style="fill:#FFDA00;" d="M407.585,298.955H104.416V151.792c0-23.872,19.421-43.292,43.292-43.292h216.584
	c23.872,0,43.293,19.421,43.293,43.292V298.955z M123.416,279.955h265.169V151.792c0-13.395-10.897-24.292-24.293-24.292H147.708
	c-13.395,0-24.292,10.897-24.292,24.292C123.416,151.792,123.416,279.955,123.416,279.955z"/>
<path style="fill:#FFB600;" d="M407.585,151.792c0-23.872-19.421-43.292-43.293-43.292H255.571v19h108.721
	c13.396,0,24.293,10.897,24.293,24.292v128.163H255.571v19h152.014L407.585,151.792L407.585,151.792z"/>
<path style="fill:#008FF9;" d="M332.029,169.529c-41.923-41.922-110.135-41.923-152.058,0l-24.042-24.042
	c55.179-55.179,144.961-55.179,200.141,0L332.029,169.529z"/>
<path style="fill:#005FF7;" d="M255.571,104.108v33.984c27.677-0.109,55.388,10.367,76.458,31.437l24.041-24.042
	C328.372,117.789,291.954,103.999,255.571,104.108z"/>
<path style="fill:#008FF9;" d="M224.024,213.582l-24.052-24.031c14.963-14.976,34.859-23.23,56.023-23.241c0.013,0,0.03,0,0.042,0
	c21.152,0,41.034,8.233,55.993,23.188l-24.039,24.045c-8.536-8.534-19.884-13.233-31.955-13.233c-0.008,0-0.016,0-0.024,0
	C243.93,200.315,232.569,205.029,224.024,213.582z"/>
<path style="fill:#005FF7;" d="M256.038,166.31c-0.013,0-0.029,0-0.042,0c-0.142,0-0.282,0.01-0.424,0.01v34
	c0.148-0.001,0.294-0.011,0.442-0.011c0.008,0,0.017,0,0.024,0c12.071,0,23.418,4.699,31.955,13.233l24.039-24.045
	C297.072,174.542,277.19,166.31,256.038,166.31z"/>
<circle style="fill:#008FF9;" cx="256" cy="240.35" r="15.653"/>
<path style="fill:#005FF7;" d="M256,224.694c-0.145,0-0.285,0.018-0.429,0.022v31.262c0.144,0.004,0.284,0.022,0.429,0.022
	c8.645,0,15.653-7.008,15.653-15.653S264.645,224.694,256,224.694z"/>
<g>
</g>
<g>
</g>
<g>
</g>
<g>
</g>
<g>
</g>
<g>
</g>
<g>
</g>
<g>
</g>
<g>
</g>
<g>
</g>
<g>
</g>
<g>
</g>
<g>
</g>
<g>
</g>
<g>
</g>
</svg>
