<?xml version="1.0" encoding="iso-8859-1"?>
<!-- Generator: Adobe Illustrator 19.0.0, SVG Export Plug-In . SVG Version: 6.00 Build 0)  -->
<svg version="1.1" id="Capa_1" xmlns="http://www.w3.org/2000/svg" xmlns:xlink="http://www.w3.org/1999/xlink" x="0px" y="0px"
	 viewBox="0 0 512 512" style="enable-background:new 0 0 512 512;" xml:space="preserve">
<circle style="fill:#F42727;" cx="256" cy="256" r="256"/>
<path style="fill:#D30F0F;" d="M512,256c0-7.442-0.336-14.804-0.958-22.085l-97.902-97.902l-30.528,14.598l-78.278-78.278
	l-74.357,9.762l-93.962,331.046l97.9,97.9C241.196,511.664,248.558,512,256,512C397.385,512,512,397.385,512,256z"/>
<path style="fill:#495959;" d="M200.333,446.764h-16.667c-6.443,0-11.667-5.223-11.667-11.667v-24.778
	c0-6.443,5.223-11.667,11.667-11.667h16.667c6.443,0,11.667,5.223,11.667,11.667v24.778
	C212,441.541,206.777,446.764,200.333,446.764z"/>
<path style="fill:#3F4A4A;" d="M328.333,446.764h-16.667c-6.443,0-11.667-5.223-11.667-11.667v-24.778
	c0-6.443,5.223-11.667,11.667-11.667h16.667c6.443,0,11.667,5.223,11.667,11.667v24.778
	C340,441.541,334.777,446.764,328.333,446.764z"/>
<rect x="207.67" y="89.67" style="fill:#FFFFFF;" width="17.333" height="157.33"/>
<rect x="287" y="89.67" style="fill:#F7F7F7;" width="17.333" height="157.33"/>
<path style="fill:#FFDA00;" d="M324.25,419h-136.5c-20.551,0-36.962-16.413-36.094-36.098l8.716-197.674
	c0.818-18.543,16.736-33.172,36.094-33.172h119.068c19.359,0,35.277,14.629,36.094,33.172l8.716,197.674
	C361.213,402.587,344.801,419,324.25,419z"/>
<path style="fill:#FFB600;" d="M360.345,382.902l-8.716-197.674c-0.818-18.543-16.736-33.172-36.094-33.172h-60.558V419h69.274
	C344.801,419,361.213,402.587,360.345,382.902z"/>
<path style="fill:#FFE45F;" d="M291.527,419h-71.055c-10.698,0-19.241-16.413-18.789-36.098l4.537-197.674
	c0.426-18.543,8.712-33.172,18.789-33.172h61.98c10.077,0,18.363,14.629,18.789,33.172l4.537,197.674
	C310.768,402.587,302.225,419,291.527,419z"/>
<g>
	<path style="fill:#FFDA00;" d="M310.316,382.902l-4.537-197.674c-0.426-18.543-8.712-33.172-18.789-33.172h-32.014V419h36.551
		C302.225,419,310.768,402.587,310.316,382.902z"/>
	<rect x="207.67" y="72.33" style="fill:#FFDA00;" width="96.67" height="28.667"/>
</g>
<rect x="254.98" y="72.33" style="fill:#FFB600;" width="49.36" height="28.667"/>
<rect x="60.037" y="229.73" transform="matrix(-0.7071 0.7071 -0.7071 -0.7071 618.0305 256.0034)" style="fill:#3F4A4A;" width="391.916" height="52.539"/>
<polygon style="fill:#323C3C;" points="375.985,98.859 254.976,219.87 254.976,294.178 413.139,136.013 "/>
<g>
</g>
<g>
</g>
<g>
</g>
<g>
</g>
<g>
</g>
<g>
</g>
<g>
</g>
<g>
</g>
<g>
</g>
<g>
</g>
<g>
</g>
<g>
</g>
<g>
</g>
<g>
</g>
<g>
</g>
</svg>
