<?xml version="1.0" encoding="iso-8859-1"?>
<!-- Generator: Adobe Illustrator 19.0.0, SVG Export Plug-In . SVG Version: 6.00 Build 0)  -->
<svg version="1.1" id="Capa_1" xmlns="http://www.w3.org/2000/svg" xmlns:xlink="http://www.w3.org/1999/xlink" x="0px" y="0px"
	 viewBox="0 0 512 512" style="enable-background:new 0 0 512 512;" xml:space="preserve">
<circle style="fill:#F42727;" cx="256" cy="256" r="256"/>
<path style="fill:#D30F0F;" d="M512,256c0-4.753-0.14-9.472-0.396-14.161l-135.57-135.57L89,423l69.938,69.938
	C188.874,505.215,221.642,512,256,512C397.385,512,512,397.385,512,256z"/>
<path style="fill:#495959;" d="M423,423H89V215.957c0-83.71,67.861-151.571,151.571-151.571h30.859
	c83.71,0,151.571,67.861,151.571,151.571L423,423L423,423z"/>
<path style="fill:#323C3C;" d="M423,215.957c0-83.71-67.861-151.571-151.571-151.571h-15.858V423H423V215.957z"/>
<path style="fill:#008FF9;" d="M125.411,476.213C163.647,498.936,208.295,512,256,512s92.353-13.064,130.589-35.787L343.893,369
	H168.107L125.411,476.213z"/>
<path style="fill:#005FF7;" d="M386.589,476.213L343.893,369h-88.322v142.996c0.143,0,0.286,0.004,0.429,0.004
	C303.705,512,348.353,498.936,386.589,476.213z"/>
<path style="fill:#87C7FF;" d="M164.242,495.045C192.729,505.987,223.66,512,256,512s63.271-6.013,91.758-16.955l-29.164-121.379
	H193.406L164.242,495.045z"/>
<path style="fill:#65B1FC;" d="M347.758,495.045l-29.164-121.379h-63.023v138.329c0.143,0,0.285,0.005,0.429,0.005
	C288.34,512,319.271,505.987,347.758,495.045z"/>
<path style="fill:#FFDA00;" d="M300,407h-88c-45.84,0-83-37.16-83-83V206.929c0-45.84,37.16-83,83-83h88c45.84,0,83,37.16,83,83V324
	C383,369.84,345.84,407,300,407z"/>
<path style="fill:#FFB600;" d="M300,123.929h-44.429V407H300c45.84,0,83-37.16,83-83V206.929C383,161.09,345.84,123.929,300,123.929
	z"/>
<path style="fill:#FFFFFF;" d="M196.391,153.729H315.61c26.909,0,48.724,21.814,48.724,48.724v62.943H147.668v-62.943
	C147.667,175.544,169.481,153.729,196.391,153.729z"/>
<path style="fill:#F0F0F0;" d="M364.333,202.453c0-26.909-21.814-48.724-48.724-48.724h-60.038v111.667h108.762V202.453z"/>
<circle style="fill:#008FF9;" cx="178.46" cy="328" r="25.04"/>
<circle style="fill:#005FF7;" cx="333.54" cy="328" r="25.04"/>
<g>
</g>
<g>
</g>
<g>
</g>
<g>
</g>
<g>
</g>
<g>
</g>
<g>
</g>
<g>
</g>
<g>
</g>
<g>
</g>
<g>
</g>
<g>
</g>
<g>
</g>
<g>
</g>
<g>
</g>
</svg>
