<?xml version="1.0" encoding="iso-8859-1"?>
<!-- Generator: Adobe Illustrator 19.0.0, SVG Export Plug-In . SVG Version: 6.00 Build 0)  -->
<svg version="1.1" id="Capa_1" xmlns="http://www.w3.org/2000/svg" xmlns:xlink="http://www.w3.org/1999/xlink" x="0px" y="0px"
	 viewBox="0 0 512 512" style="enable-background:new 0 0 512 512;" xml:space="preserve">
<circle style="fill:#FFDA00;" cx="256" cy="256" r="256"/>
<path style="fill:#FFB600;" d="M512,256c0-15.515-1.382-30.707-4.026-45.461L378.461,81.026l-60.985,291.545l89.887,89.887
	C470.808,415.866,512,340.749,512,256z"/>
<polygon style="fill:#AA9BAA;" points="399.667,224.974 112.333,224.974 133.539,81.026 378.461,81.026 "/>
<polygon style="fill:#918291;" points="378.461,81.026 256,81.026 256,224.974 399.667,224.974 "/>
<polygon style="fill:#C5B4C0;" points="435,293.115 77,293.115 103.421,149.167 408.579,149.167 "/>
<polygon style="fill:#AA9BAA;" points="408.579,149.167 256,149.167 256,293.115 435,293.115 "/>
<g>
	<rect x="154.67" y="92.67" style="fill:#E3D7E1;" width="37.33" height="37.33"/>
	<rect x="209.67" y="92.67" style="fill:#E3D7E1;" width="37.33" height="37.33"/>
</g>
<g>
	<rect x="265" y="92.67" style="fill:#C5B4C0;" width="37.33" height="37.33"/>
	<rect x="320" y="92.67" style="fill:#C5B4C0;" width="37.33" height="37.33"/>
</g>
<g>
	<rect x="181.83" y="157.33" style="fill:#E3D7E1;" width="37.33" height="37.33"/>
	<rect x="127.5" y="157.33" style="fill:#E3D7E1;" width="37.33" height="37.33"/>
	<rect x="236.83" y="157.33" style="fill:#E3D7E1;" width="37.33" height="37.33"/>
</g>
<g>
	<rect x="256" y="157.33" style="fill:#C5B4C0;" width="18.17" height="37.33"/>
	<rect x="292.17" y="157.33" style="fill:#C5B4C0;" width="37.33" height="37.33"/>
	<rect x="347.17" y="157.33" style="fill:#C5B4C0;" width="37.33" height="37.33"/>
</g>
<g>
	<rect x="168.46" y="213.33" style="fill:#E3D7E1;" width="44.06" height="37.33"/>
	<rect x="104.33" y="213.33" style="fill:#E3D7E1;" width="44.06" height="37.33"/>
	<rect x="233.38" y="213.33" style="fill:#E3D7E1;" width="44.06" height="37.33"/>
</g>
<g>
	<rect x="298.69" y="213.33" style="fill:#C5B4C0;" width="44.06" height="37.33"/>
	<rect x="363.6" y="213.33" style="fill:#C5B4C0;" width="44.06" height="37.33"/>
</g>
<polygon style="fill:#FFFFFF;" points="400.711,422.459 111.289,422.459 55,259.707 256,199.707 457,259.707 "/>
<polygon style="fill:#F0F0F0;" points="255.571,422.459 400.711,422.459 457,259.708 256,199.708 "/>
<path style="fill:#008FF9;" d="M499.883,334c-24.392,0-24.392,22.431-48.783,22.431c-24.392,0-24.392-22.431-48.783-22.431
	c-24.388,0-24.388,22.431-48.776,22.431c-24.389,0-24.389-22.431-48.778-22.431c-24.388,0-24.388,22.431-48.776,22.431
	C231.6,356.431,231.6,334,207.212,334c-24.385,0-24.385,22.431-48.769,22.431c-24.387,0-24.387-22.431-48.774-22.431
	c-24.388,0-24.388,22.431-48.776,22.431S36.505,334,12.117,334C45.109,437.238,141.817,512,256,512S466.891,437.238,499.883,334z"/>
<path style="fill:#005FF7;" d="M451.1,356.431c-24.392,0-24.392-22.431-48.783-22.431c-24.388,0-24.388,22.431-48.776,22.431
	c-24.389,0-24.389-22.431-48.778-22.431c-24.388,0-24.388,22.431-48.776,22.431c-0.143,0-0.274-0.01-0.415-0.012v155.576
	c0.143,0,0.286,0.004,0.429,0.004c114.183,0,210.891-74.762,243.883-178C475.491,334,475.491,356.431,451.1,356.431z"/>
<g>
</g>
<g>
</g>
<g>
</g>
<g>
</g>
<g>
</g>
<g>
</g>
<g>
</g>
<g>
</g>
<g>
</g>
<g>
</g>
<g>
</g>
<g>
</g>
<g>
</g>
<g>
</g>
<g>
</g>
</svg>
