<?xml version="1.0" encoding="iso-8859-1"?>
<!-- Generator: Adobe Illustrator 19.0.0, SVG Export Plug-In . SVG Version: 6.00 Build 0)  -->
<svg version="1.1" id="Capa_1" xmlns="http://www.w3.org/2000/svg" xmlns:xlink="http://www.w3.org/1999/xlink" x="0px" y="0px"
	 viewBox="0 0 512 512" style="enable-background:new 0 0 512 512;" xml:space="preserve">
<circle style="fill:#008FF9;" cx="256" cy="256" r="256"/>
<path style="fill:#005FF7;" d="M512,256c0-12.099-0.859-23.996-2.483-35.648L362.345,73.179H219.857l-58.225,27.994l103.594,103.594
	L129,407l103.956,103.956C240.549,511.634,248.231,512,256,512C397.385,512,512,397.385,512,256z"/>
<path style="fill:#FFFFFF;" d="M257.747,52.535c-39.505,0-76.977,7.729-108.362,22.351l12.247,26.287
	c6.718-3.13,13.777-5.894,21.115-8.294l36.549,72.668l25.907-13.03l-33.643-66.89c14.757-2.697,30.258-4.093,46.186-4.093
	c33.821,0,65.942,6.285,92.891,18.176l11.707-26.532C331.737,59.674,295.568,52.535,257.747,52.535z"/>
<path style="fill:#F0F0F0;" d="M362.345,73.179c-30.607-13.505-66.776-20.644-104.598-20.644c-0.728,0-1.449,0.021-2.176,0.027v29
	c0.726-0.006,1.448-0.026,2.176-0.026c14.744,0,29.165,1.196,42.975,3.529l-33.926,67.454l25.908,13.03l37.028-73.621
	c7.249,2.246,14.237,4.843,20.905,7.785L362.345,73.179z"/>
<path style="fill:#495959;" d="M125.411,476.213C163.647,498.936,208.295,512,256,512s92.353-13.064,130.589-35.787L343.893,369
	H168.107L125.411,476.213z"/>
<path style="fill:#3F4A4A;" d="M386.589,476.213L343.893,369h-88.322v142.996c0.143,0,0.286,0.004,0.429,0.004
	C303.705,512,348.353,498.936,386.589,476.213z"/>
<path style="fill:#738C96;" d="M164.242,495.045C192.729,505.987,223.66,512,256,512s63.271-6.013,91.758-16.955l-29.164-121.379
	H193.406L164.242,495.045z"/>
<path style="fill:#46738C;" d="M347.758,495.045l-29.164-121.379h-63.023v138.329c0.143,0,0.285,0.005,0.429,0.005
	C288.34,512,319.271,505.987,347.758,495.045z"/>
<rect x="129" y="123.93" style="fill:#FFDA00;" width="254" height="283.07"/>
<rect x="255.57" y="123.93" style="fill:#FFB600;" width="127.43" height="283.07"/>
<path style="fill:#FFFFFF;" d="M315.609,293.115H196.391c-26.909,0-48.724-21.814-48.724-48.724v-62.943h216.667v62.943
	C364.333,271.3,342.519,293.115,315.609,293.115z"/>
<path style="fill:#F0F0F0;" d="M255.571,181.448v111.667h60.038c26.91,0,48.724-21.814,48.724-48.724v-62.943H255.571z"/>
<path style="fill:#F42727;" d="M206.125,353.53h-58.458v-38h26.726c17.525,0,31.732,14.207,31.732,31.732L206.125,353.53
	L206.125,353.53z"/>
<path style="fill:#D30F0F;" d="M364.333,353.53h-58.458v-6.268c0-17.525,14.207-31.732,31.732-31.732h26.726V353.53z"/>
<rect x="195.33" y="153" style="fill:#738C96;" width="121.33" height="14.667"/>
<g>
</g>
<g>
</g>
<g>
</g>
<g>
</g>
<g>
</g>
<g>
</g>
<g>
</g>
<g>
</g>
<g>
</g>
<g>
</g>
<g>
</g>
<g>
</g>
<g>
</g>
<g>
</g>
<g>
</g>
</svg>
