<?xml version="1.0" encoding="iso-8859-1"?>
<!-- Generator: Adobe Illustrator 19.0.0, SVG Export Plug-In . SVG Version: 6.00 Build 0)  -->
<svg version="1.1" id="Capa_1" xmlns="http://www.w3.org/2000/svg" xmlns:xlink="http://www.w3.org/1999/xlink" x="0px" y="0px"
	 viewBox="0 0 512 512" style="enable-background:new 0 0 512 512;" xml:space="preserve">
<circle style="fill:#FFDA00;" cx="256" cy="256" r="256"/>
<path style="fill:#FFB600;" d="M492.288,354.655L225.3,87.667L112.02,230.37l61.466,61.466L76.697,350l38.835,38.835L93.435,407
	l96.33,96.33C210.894,508.974,233.092,512,256,512C362.418,512,453.66,447.062,492.288,354.655z"/>
<rect x="149.97" y="181.18" style="fill:#495959;" width="37.38" height="225.82"/>
<rect x="168.67" y="181.18" style="fill:#3F4A4A;" width="18.684" height="225.82"/>
<rect x="112.02" y="87.67" style="fill:#F42727;" width="113.28" height="142.7"/>
<rect x="168.67" y="87.67" style="fill:#D30F0F;" width="56.633" height="142.7"/>
<path style="fill:#FFFFFF;" d="M199.55,109.101h-61.781c-6.429,0-11.64,5.211-11.64,11.64v66.706c0,3.067,1.195,5.849,3.134,7.928
	v8.749c0,2.658,2.155,4.813,4.813,4.813h9.625c2.658,0,4.813-2.155,4.813-4.813v-5.037h40.292v5.037
	c0,2.658,2.155,4.813,4.813,4.813h9.625c2.658,0,4.813-2.155,4.813-4.813v-8.749c1.939-2.079,3.134-4.861,3.134-7.928v-66.706
	C211.19,114.312,205.979,109.101,199.55,109.101z M142.973,186.663c-5.038,0-9.122-4.084-9.122-9.122s4.084-9.122,9.122-9.122
	s9.122,4.084,9.122,9.122S148.011,186.663,142.973,186.663z M166.085,160.809h-32.234v-32.234h32.234L166.085,160.809
	L166.085,160.809z M194.346,186.663c-5.038,0-9.122-4.084-9.122-9.122s4.084-9.122,9.122-9.122s9.122,4.084,9.122,9.122
	C203.468,182.579,199.384,186.663,194.346,186.663z M203.468,160.809h-32.234v-32.234h32.234L203.468,160.809L203.468,160.809z"/>
<path style="fill:#F0F0F0;" d="M199.55,109.101h-30.884v89.986h20.139v5.036c0,2.658,2.155,4.813,4.813,4.813h9.625
	c2.658,0,4.813-2.155,4.813-4.813v-8.749c1.939-2.079,3.134-4.861,3.134-7.928V120.74
	C211.19,114.312,205.979,109.101,199.55,109.101z M194.346,186.663c-5.038,0-9.122-4.084-9.122-9.122s4.084-9.122,9.122-9.122
	s9.122,4.084,9.122,9.122C203.468,182.579,199.384,186.663,194.346,186.663z M203.468,160.809h-32.234v-32.234h32.234
	L203.468,160.809L203.468,160.809z"/>
<rect x="93.44" y="330.5" style="fill:#87C7FF;" width="26.5" height="76.5"/>
<rect x="392.06" y="330.5" style="fill:#65B1FC;" width="26.5" height="76.5"/>
<rect x="76.7" y="306" style="fill:#008FF9;" width="358.61" height="44"/>
<rect x="255.57" y="306" style="fill:#005FF7;" width="179.73" height="44"/>
<g>
</g>
<g>
</g>
<g>
</g>
<g>
</g>
<g>
</g>
<g>
</g>
<g>
</g>
<g>
</g>
<g>
</g>
<g>
</g>
<g>
</g>
<g>
</g>
<g>
</g>
<g>
</g>
<g>
</g>
</svg>
