<?xml version="1.0" encoding="iso-8859-1"?>
<!-- Generator: Adobe Illustrator 19.0.0, SVG Export Plug-In . SVG Version: 6.00 Build 0)  -->
<svg version="1.1" id="Capa_1" xmlns="http://www.w3.org/2000/svg" xmlns:xlink="http://www.w3.org/1999/xlink" x="0px" y="0px"
	 viewBox="0 0 512 512" style="enable-background:new 0 0 512 512;" xml:space="preserve">
<circle style="fill:#F42727;" cx="256" cy="256" r="256"/>
<path style="fill:#D30F0F;" d="M512,256c0-27.266-4.279-53.529-12.174-78.174L399,77L113,427l76.168,76.168
	C210.476,508.916,232.876,512,256,512C397.385,512,512,397.385,512,256z"/>
<rect x="113" y="77" style="fill:#FFFFFF;" width="286" height="350"/>
<rect x="255.57" y="77" style="fill:#F0F0F0;" width="143.43" height="350"/>
<circle style="fill:#008FF9;" cx="256" cy="150.6" r="43.33"/>
<path style="fill:#005FF7;" d="M256,107.267c-0.144,0-0.285,0.01-0.429,0.011v86.639c0.143,0.001,0.285,0.011,0.429,0.011
	c23.931,0,43.33-19.4,43.33-43.33C299.33,126.666,279.931,107.267,256,107.267z"/>
<polygon style="fill:#495959;" points="264.032,169.737 247,154.648 247,122.742 265,122.742 265,146.546 275.968,156.263 "/>
<polygon style="fill:#3F4A4A;" points="275.968,156.263 265,146.546 265,122.742 255.571,122.742 255.571,162.242 264.032,169.737 
	"/>
<g>
	<rect x="134.67" y="217.5" style="fill:#495959;" width="64.67" height="31"/>
	<rect x="214.67" y="217.5" style="fill:#495959;" width="32.33" height="31"/>
	<rect x="134.67" y="267.5" style="fill:#495959;" width="64.67" height="31"/>
	<rect x="214.67" y="267.5" style="fill:#495959;" width="32.33" height="31"/>
	<rect x="134.67" y="317.5" style="fill:#495959;" width="64.67" height="31"/>
	<rect x="214.67" y="317.5" style="fill:#495959;" width="32.33" height="31"/>
	<rect x="134.67" y="367.5" style="fill:#495959;" width="64.67" height="31"/>
	<rect x="214.67" y="367.5" style="fill:#495959;" width="32.33" height="31"/>
</g>
<g>
	<rect x="267.17" y="217.5" style="fill:#3F4A4A;" width="64.67" height="31"/>
	<rect x="347.17" y="217.5" style="fill:#3F4A4A;" width="32.33" height="31"/>
	<rect x="267.17" y="267.5" style="fill:#3F4A4A;" width="64.67" height="31"/>
	<rect x="347.17" y="267.5" style="fill:#3F4A4A;" width="32.33" height="31"/>
	<rect x="267.17" y="317.5" style="fill:#3F4A4A;" width="64.67" height="31"/>
	<rect x="347.17" y="317.5" style="fill:#3F4A4A;" width="32.33" height="31"/>
	<rect x="267.17" y="367.5" style="fill:#3F4A4A;" width="64.67" height="31"/>
	<rect x="347.17" y="367.5" style="fill:#3F4A4A;" width="32.33" height="31"/>
</g>
<g>
</g>
<g>
</g>
<g>
</g>
<g>
</g>
<g>
</g>
<g>
</g>
<g>
</g>
<g>
</g>
<g>
</g>
<g>
</g>
<g>
</g>
<g>
</g>
<g>
</g>
<g>
</g>
<g>
</g>
</svg>
