<?xml version="1.0" encoding="iso-8859-1"?>
<!-- Generator: Adobe Illustrator 19.0.0, SVG Export Plug-In . SVG Version: 6.00 Build 0)  -->
<svg version="1.1" id="Capa_1" xmlns="http://www.w3.org/2000/svg" xmlns:xlink="http://www.w3.org/1999/xlink" x="0px" y="0px"
	 viewBox="0 0 512 512" style="enable-background:new 0 0 512 512;" xml:space="preserve">
<circle style="fill:#495959;" cx="256" cy="256" r="256"/>
<path style="fill:#323C3C;" d="M512,256c0-1.812-0.031-3.616-0.069-5.419l-75.042-75.042L69,216.86l95.55,95.55l-89.963,23.277
	l176.248,176.247c1.719,0.034,3.438,0.065,5.166,0.065C397.385,512,512,397.385,512,256z"/>
<path style="fill:#FFFFFF;" d="M403.86,256c0-21.616,17.523-39.14,39.14-39.14v-21.835c0-18.864-15.292-34.156-34.157-34.156
	H103.157C84.292,160.869,69,176.162,69,195.025v21.835c21.616,0,39.14,17.523,39.14,39.14S90.616,295.14,69,295.14v21.835
	c0,18.864,15.292,34.157,34.157,34.157h305.687c18.864,0,34.157-15.292,34.157-34.157V295.14
	C421.384,295.14,403.86,277.616,403.86,256z"/>
<path style="fill:#F0F0F0;" d="M403.86,256c0-0.032,0.002-0.063,0.002-0.095H108.137c0,0.032,0.002,0.063,0.002,0.095
	c0,21.616-17.523,39.14-39.14,39.14v21.834c0,18.864,15.292,34.157,34.156,34.157h305.687c18.864,0,34.156-15.292,34.156-34.157
	V295.14C421.384,295.14,403.86,277.616,403.86,256z"/>
<path style="fill:#F42727;" d="M371.333,181.667h-92c-9.573,0-17.333,7.76-17.333,17.333v99.333c0,4.567,1.78,8.709,4.667,11.805
	v13.028c0,3.958,3.209,7.167,7.167,7.167h14.333c3.958,0,7.167-3.208,7.167-7.167v-7.5h60v7.5c0,3.958,3.208,7.167,7.167,7.167
	h14.333c3.958,0,7.167-3.208,7.167-7.167v-13.028c2.887-3.096,4.667-7.238,4.667-11.805V199
	C388.667,189.427,380.906,181.667,371.333,181.667z M287.083,297.167c-7.502,0-13.583-6.082-13.583-13.583
	c0-7.502,6.081-13.583,13.583-13.583s13.583,6.082,13.583,13.583C300.667,291.085,294.585,297.167,287.083,297.167z M321.5,258.667
	h-48v-48h48V258.667z M363.583,297.167c-7.502,0-13.583-6.082-13.583-13.583c0-7.502,6.081-13.583,13.583-13.583
	s13.583,6.082,13.583,13.583C377.167,291.085,371.085,297.167,363.583,297.167z M377.167,258.667h-48v-48h48V258.667z"/>
<path style="fill:#D30F0F;" d="M371.333,181.667h-46v134h30v7.5c0,3.958,3.208,7.167,7.167,7.167h14.333
	c3.958,0,7.167-3.208,7.167-7.167v-13.028c2.887-3.096,4.667-7.238,4.667-11.805V199
	C388.667,189.427,380.906,181.667,371.333,181.667z M363.583,297.167c-7.502,0-13.583-6.082-13.583-13.583
	c0-7.502,6.081-13.583,13.583-13.583s13.583,6.082,13.583,13.583C377.167,291.085,371.085,297.167,363.583,297.167z
	 M377.167,258.667h-48v-48h48V258.667z"/>
<rect x="127.33" y="205" style="fill:#87A0AF;" width="103.67" height="25"/>
<rect x="127.33" y="282" style="fill:#607882;" width="103.67" height="25"/>
<rect x="127.33" y="243.5" style="fill:#87A0AF;" width="61.67" height="25"/>
<rect x="127.33" y="255.91" style="fill:#607882;" width="61.67" height="12.595"/>
<g>
</g>
<g>
</g>
<g>
</g>
<g>
</g>
<g>
</g>
<g>
</g>
<g>
</g>
<g>
</g>
<g>
</g>
<g>
</g>
<g>
</g>
<g>
</g>
<g>
</g>
<g>
</g>
<g>
</g>
</svg>
