<?xml version="1.0" encoding="iso-8859-1"?>
<!-- Generator: Adobe Illustrator 19.0.0, SVG Export Plug-In . SVG Version: 6.00 Build 0)  -->
<svg version="1.1" id="Capa_1" xmlns="http://www.w3.org/2000/svg" xmlns:xlink="http://www.w3.org/1999/xlink" x="0px" y="0px"
	 viewBox="0 0 512 512" style="enable-background:new 0 0 512 512;" xml:space="preserve">
<circle style="fill:#008FF9;" cx="256" cy="256" r="256"/>
<path style="fill:#005FF7;" d="M512,256c0-12.568-0.922-24.919-2.672-37.002l-80.915-80.915l-177.924,42.373l-42.373-42.373
	L95.587,385.917l123.411,123.411C231.081,511.078,243.432,512,256,512C397.385,512,512,397.385,512,256z"/>
<rect x="225" y="161.3" style="fill:#FFDA00;" width="103.33" height="25.696"/>
<rect x="275.21" y="161.3" style="fill:#FFB600;" width="53.12" height="25.696"/>
<rect x="95.59" y="138.08" style="fill:#FFFFFF;" width="112.53" height="247.83"/>
<rect x="150.81" y="138.08" style="fill:#F0F0F0;" width="57.31" height="247.83"/>
<rect x="111.66" y="146.12" style="fill:#FFDA00;" width="80.38" height="30.365"/>
<rect x="150.81" y="146.12" style="fill:#FFB600;" width="41.23" height="30.365"/>
<circle style="fill:#495959;" cx="150.66" cy="249.12" r="38.998"/>
<path style="fill:#3F4A4A;" d="M189.659,249.125c0-21.488-17.38-38.914-38.85-38.995v77.989
	C172.279,288.039,189.659,270.613,189.659,249.125z"/>
<rect x="315.88" y="138.08" style="fill:#FFFFFF;" width="112.53" height="247.83"/>
<rect x="372.24" y="138.08" style="fill:#F0F0F0;" width="56.17" height="247.83"/>
<rect x="331.96" y="146.12" style="fill:#FFDA00;" width="80.38" height="30.365"/>
<rect x="372.24" y="146.12" style="fill:#FFB600;" width="40.1" height="30.365"/>
<circle style="fill:#495959;" cx="370.96" cy="249.12" r="38.998"/>
<path style="fill:#3F4A4A;" d="M409.956,249.125c0-21.109-16.774-38.289-37.718-38.966v77.932
	C393.182,287.413,409.956,270.233,409.956,249.125z"/>
<g>
</g>
<g>
</g>
<g>
</g>
<g>
</g>
<g>
</g>
<g>
</g>
<g>
</g>
<g>
</g>
<g>
</g>
<g>
</g>
<g>
</g>
<g>
</g>
<g>
</g>
<g>
</g>
<g>
</g>
</svg>
