<?xml version="1.0" encoding="iso-8859-1"?>
<!-- Generator: Adobe Illustrator 19.0.0, SVG Export Plug-In . SVG Version: 6.00 Build 0)  -->
<svg version="1.1" id="Capa_1" xmlns="http://www.w3.org/2000/svg" xmlns:xlink="http://www.w3.org/1999/xlink" x="0px" y="0px"
	 viewBox="0 0 512 512" style="enable-background:new 0 0 512 512;" xml:space="preserve">
<circle style="fill:#FFDA00;" cx="256" cy="256" r="256"/>
<path style="fill:#FFB600;" d="M512,256c0-18.327-1.942-36.199-5.602-53.436L370.226,67.357L118.071,217.214v97.024h165.127
	L147.667,431.333l78.982,78.982c9.634,1.1,19.424,1.685,29.352,1.685C397.385,512,512,397.385,512,256z"/>
<rect x="147.67" y="80.67" style="fill:#495959;" width="216.67" height="350.67"/>
<rect x="255.57" y="80.67" style="fill:#3F4A4A;" width="108.76" height="350.67"/>
<rect x="170.38" y="111.28" style="fill:#FFFFFF;" width="171.23" height="289.43"/>
<rect x="255.57" y="111.28" style="fill:#F0F0F0;" width="86.05" height="289.43"/>
<path style="fill:#F42727;" d="M311.833,43.137c-45.563,0-82.5,36.937-82.5,82.5s82.5,144.5,82.5,144.5s82.5-98.937,82.5-144.5
	S357.397,43.137,311.833,43.137z M311.833,169.637c-24.301,0-44-19.699-44-44s19.699-44,44-44s44,19.699,44,44
	S336.134,169.637,311.833,169.637z"/>
<path style="fill:#D30F0F;" d="M394.333,125.637c0-45.563-36.937-82.5-82.5-82.5c-0.056,0-0.111,0.004-0.167,0.004v38.5
	c0.056,0,0.111-0.004,0.167-0.004c24.301,0,44,19.699,44,44s-19.699,44-44,44c-0.056,0-0.111-0.004-0.167-0.004v100.303
	c0.101,0.122,0.167,0.201,0.167,0.201S394.333,171.201,394.333,125.637z"/>
<path style="fill:#008FF9;" d="M170.383,173.715c-45.563,0-82.5,36.937-82.5,82.5s82.5,144.5,82.5,144.5s82.5-98.937,82.5-144.5
	S215.947,173.715,170.383,173.715z M170.383,300.215c-24.301,0-44-19.699-44-44s19.699-44,44-44s44,19.699,44,44
	S194.684,300.215,170.383,300.215z"/>
<path style="fill:#004DF7;" d="M252.883,256.215c0-45.563-36.937-82.5-82.5-82.5c-0.056,0-0.111,0.004-0.167,0.004v38.5
	c0.056,0,0.111-0.004,0.167-0.004c24.301,0,44,19.699,44,44s-19.699,44-44,44c-0.056,0-0.111-0.004-0.167-0.004v100.303
	c0.101,0.122,0.167,0.201,0.167,0.201S252.883,301.778,252.883,256.215z"/>
<g>
</g>
<g>
</g>
<g>
</g>
<g>
</g>
<g>
</g>
<g>
</g>
<g>
</g>
<g>
</g>
<g>
</g>
<g>
</g>
<g>
</g>
<g>
</g>
<g>
</g>
<g>
</g>
<g>
</g>
</svg>
