<?xml version="1.0" encoding="iso-8859-1"?>
<!-- Generator: Adobe Illustrator 19.0.0, SVG Export Plug-In . SVG Version: 6.00 Build 0)  -->
<svg version="1.1" id="Capa_1" xmlns="http://www.w3.org/2000/svg" xmlns:xlink="http://www.w3.org/1999/xlink" x="0px" y="0px"
	 viewBox="0 0 512 512" style="enable-background:new 0 0 512 512;" xml:space="preserve">
<circle style="fill:#495959;" cx="256" cy="256" r="256"/>
<path style="fill:#323C3C;" d="M512,256c0-36.527-7.667-71.258-21.452-102.696l0,0l-174.834-14.089L278.5,102L21.452,153.304
	L224.45,356.302L132.226,438l67.858,67.858c18,4.011,36.708,6.142,55.916,6.142C397.385,512,512,397.385,512,256z"/>
<path style="fill:#87C7FF;" d="M21.452,153.304h469.096c-6.485-14.79-14.323-28.848-23.366-42.019H44.818
	C35.775,124.456,27.937,138.514,21.452,153.304z"/>
<path style="fill:#65B1FC;" d="M467.182,111.285H255.571v42.019h234.977C484.063,138.514,476.225,124.456,467.182,111.285z"/>
<rect x="233.5" y="102" style="fill:#008FF9;" width="45" height="187.44"/>
<rect x="255.57" y="102" style="fill:#005FF7;" width="22.929" height="187.44"/>
<polygon style="fill:#F42727;" points="132.226,194.966 96,303.227 132.226,438 379.774,438 416,303.227 379.774,194.966 "/>
<polygon style="fill:#D30F0F;" points="416,303.227 379.774,194.966 255.571,194.966 255.571,438 379.774,438 "/>
<rect x="190.67" y="228.67" style="fill:#FFFFFF;" width="130.67" height="209.33"/>
<rect x="255.57" y="228.67" style="fill:#F0F0F0;" width="65.762" height="209.33"/>
<polygon style="fill:#FFFFFF;" points="96,303.227 104.092,333.333 157.833,333.333 157.833,228.667 120.949,228.667 "/>
<polygon style="fill:#F0F0F0;" points="354.167,333.333 407.908,333.333 416,303.227 391.051,228.667 354.167,228.667 "/>
<g>
</g>
<g>
</g>
<g>
</g>
<g>
</g>
<g>
</g>
<g>
</g>
<g>
</g>
<g>
</g>
<g>
</g>
<g>
</g>
<g>
</g>
<g>
</g>
<g>
</g>
<g>
</g>
<g>
</g>
</svg>
