<?xml version="1.0" encoding="iso-8859-1"?>
<!-- Generator: Adobe Illustrator 19.0.0, SVG Export Plug-In . SVG Version: 6.00 Build 0)  -->
<svg version="1.1" id="Capa_1" xmlns="http://www.w3.org/2000/svg" xmlns:xlink="http://www.w3.org/1999/xlink" x="0px" y="0px"
	 viewBox="0 0 512 512" style="enable-background:new 0 0 512 512;" xml:space="preserve">
<circle style="fill:#495959;" cx="256" cy="256" r="256"/>
<path style="fill:#323C3C;" d="M512,256c0-4.283-0.11-8.541-0.318-12.772L403.353,134.899h-53.954L271,56.5l-7.453,78.399H119.5
	l-30,222.435l154.373,154.373c4.02,0.188,8.061,0.293,12.127,0.293C397.385,512,512,397.385,512,256z"/>
<path style="fill:#FFFFFF;" d="M354.25,114H271V56.5h-30V114h-83.25c-37.633,0-68.25,30.617-68.25,68.25v175.083h333V182.25
	C422.5,144.617,391.883,114,354.25,114z M392.5,327.333h-273V182.25c0-21.091,17.159-38.25,38.25-38.25h196.5
	c21.091,0,38.25,17.159,38.25,38.25V327.333z"/>
<path style="fill:#F0F0F0;" d="M354.25,114H271V56.5h-15.429V114v15v15h98.679c21.091,0,38.25,17.159,38.25,38.25v145.083H255.571
	v30H422.5V182.25C422.5,144.617,391.883,114,354.25,114z"/>
<path style="fill:#FFDA00;" d="M379.165,331.125h-246.33v-44.584c0-18.48,14.981-33.461,33.461-33.461h179.409
	c18.48,0,33.461,14.981,33.461,33.461v44.584H379.165z"/>
<g>
	<path style="fill:#FFB600;" d="M379.165,286.541c0-18.48-14.981-33.461-33.461-33.461h-90.133v78.044h123.593v-44.583H379.165z"/>
	<rect x="113" y="325.32" style="fill:#FFB600;" width="286" height="38.23"/>
</g>
<rect x="255.57" y="325.32" style="fill:#FF9B32;" width="143.43" height="38.23"/>
<g>
</g>
<g>
</g>
<g>
</g>
<g>
</g>
<g>
</g>
<g>
</g>
<g>
</g>
<g>
</g>
<g>
</g>
<g>
</g>
<g>
</g>
<g>
</g>
<g>
</g>
<g>
</g>
<g>
</g>
</svg>
