<?xml version="1.0" encoding="iso-8859-1"?>
<!-- Generator: Adobe Illustrator 19.0.0, SVG Export Plug-In . SVG Version: 6.00 Build 0)  -->
<svg version="1.1" id="Capa_1" xmlns="http://www.w3.org/2000/svg" xmlns:xlink="http://www.w3.org/1999/xlink" x="0px" y="0px"
	 viewBox="0 0 512 512" style="enable-background:new 0 0 512 512;" xml:space="preserve">
<circle style="fill:#FFDA00;" cx="256" cy="256" r="256"/>
<path style="fill:#FFB600;" d="M143.219,369l141.399,141.399c123.5-13.74,220.481-115.319,227.026-240.855l-147.31-147.31
	L143.219,369z"/>
<path style="fill:#495959;" d="M125.411,476.213C163.647,498.936,208.295,512,256,512s92.353-13.064,130.589-35.787L343.893,369
	H168.107L125.411,476.213z"/>
<path style="fill:#323C3C;" d="M386.589,476.213L343.893,369h-88.322v142.996c0.143,0,0.286,0.004,0.429,0.004
	C303.705,512,348.353,498.936,386.589,476.213z"/>
<path style="fill:#738C96;" d="M164.242,495.045C192.729,505.987,223.66,512,256,512s63.271-6.013,91.758-16.955l-29.164-121.379
	H193.406L164.242,495.045z"/>
<g>
	<path style="fill:#55696E;" d="M347.758,495.045l-29.164-121.379h-63.023v138.328c0.143,0,0.285,0.005,0.429,0.005
		C288.34,512,319.271,505.987,347.758,495.045z"/>
	
		<rect x="237.612" y="76.421" transform="matrix(-0.7071 -0.7071 0.7071 -0.7071 413.5657 353.1465)" style="fill:#55696E;" width="84.619" height="29"/>
</g>
<polygon style="fill:#495959;" points="320.086,110.582 260.253,50.749 255.571,55.43 255.571,87.079 299.58,131.088 "/>
<rect x="169.856" y="76.415" transform="matrix(-0.7071 -0.7071 0.7071 -0.7071 297.9032 305.2254)" style="fill:#55696E;" width="84.619" height="29"/>
<path style="fill:#F42727;" d="M324.19,389.467H187.81c-32.48,0-58.81-26.33-58.81-58.81V165.206c0-32.48,26.33-58.81,58.81-58.81
	h136.38c32.48,0,58.81,26.33,58.81,58.81v165.451C383,363.138,356.67,389.467,324.19,389.467z"/>
<path style="fill:#D30F0F;" d="M324.19,106.397h-68.619v283.071h68.619c32.479,0,58.81-26.33,58.81-58.81V165.206
	C383,132.727,356.67,106.397,324.19,106.397z"/>
<rect x="147.67" y="158.17" style="fill:#FFFFFF;" width="216.67" height="111.67"/>
<rect x="255.57" y="158.17" style="fill:#F7F7F7;" width="108.76" height="111.67"/>
<circle style="fill:#FFFFFF;" cx="256" cy="327" r="34.17"/>
<g>
	<path style="fill:#F7F7F7;" d="M256,292.835c-0.144,0-0.285,0.009-0.429,0.011v68.312c0.144,0.002,0.285,0.011,0.429,0.011
		c18.87,0,34.167-15.297,34.167-34.167C290.167,308.132,274.87,292.835,256,292.835z"/>
	<circle style="fill:#F7F7F7;" cx="341.62" cy="327.47" r="22.708"/>
</g>
<circle style="fill:#FFFFFF;" cx="170.37" cy="327.47" r="22.708"/>
<g>
</g>
<g>
</g>
<g>
</g>
<g>
</g>
<g>
</g>
<g>
</g>
<g>
</g>
<g>
</g>
<g>
</g>
<g>
</g>
<g>
</g>
<g>
</g>
<g>
</g>
<g>
</g>
<g>
</g>
</svg>
