<?xml version="1.0" encoding="iso-8859-1"?>
<!-- Generator: Adobe Illustrator 19.0.0, SVG Export Plug-In . SVG Version: 6.00 Build 0)  -->
<svg version="1.1" id="Capa_1" xmlns="http://www.w3.org/2000/svg" xmlns:xlink="http://www.w3.org/1999/xlink" x="0px" y="0px"
	 viewBox="0 0 512 512" style="enable-background:new 0 0 512 512;" xml:space="preserve">
<circle style="fill:#FFDA00;" cx="256" cy="256" r="256"/>
<path style="fill:#FFB600;" d="M512,256c0-17.727-1.804-35.033-5.234-51.745L381.805,79.294l-251.61,26.535l98.019,98.019
	L77,238.502l116.942,116.942l-99.959,41.329l109.915,109.915C220.721,510.167,238.146,512,256,512C397.385,512,512,397.385,512,256z
	"/>
<rect x="140.81" y="104.58" style="fill:#D30F0F;" width="230.38" height="184.81"/>
<rect x="255.57" y="104.58" style="fill:#A80F0F;" width="115.62" height="184.81"/>
<rect x="93.98" y="211.97" style="fill:#F42727;" width="324.03" height="184.81"/>
<rect x="255.57" y="211.97" style="fill:#D30F0F;" width="162.45" height="184.81"/>
<rect x="93.98" y="211.97" style="fill:#F42727;" width="161.59" height="184.81"/>
<rect x="77" y="211.97" style="fill:#FF7171;" width="358" height="26.535"/>
<rect x="255.57" y="211.97" style="fill:#EC5353;" width="179.43" height="26.535"/>
<rect x="130.19" y="79.29" style="fill:#F42727;" width="251.61" height="26.535"/>
<rect x="255.57" y="79.29" style="fill:#D30F0F;" width="126.23" height="26.535"/>
<path style="fill:#FF7171;" d="M194.19,396.773h-67.429v-104.89c0-18.62,15.094-33.714,33.714-33.714l0,0
	c18.62,0,33.714,15.094,33.714,33.714L194.19,396.773L194.19,396.773z"/>
<path style="fill:#EC5353;" d="M388.049,396.773H320.62v-104.89c0-18.62,15.095-33.714,33.715-33.714l0,0
	c18.62,0,33.715,15.094,33.715,33.714L388.049,396.773L388.049,396.773z"/>
<path style="fill:#FF7171;" d="M289.714,396.773h-67.429v-104.89c0-18.62,15.094-33.714,33.714-33.714l0,0
	c18.62,0,33.714,15.094,33.714,33.714v104.89H289.714z"/>
<path style="fill:#EC5353;" d="M289.714,291.883c0-18.62-15.094-33.714-33.714-33.714l0,0c-0.144,0-0.285,0.009-0.429,0.011v138.593
	h34.143V291.883z"/>
<circle style="fill:#F42727;" cx="256" cy="158.9" r="43.704"/>
<path style="fill:#D30F0F;" d="M256,115.194c-0.144,0-0.285,0.01-0.429,0.011v87.386c0.144,0.001,0.285,0.011,0.429,0.011
	c24.137,0,43.704-19.567,43.704-43.704S280.137,115.194,256,115.194z"/>
<polygon style="fill:#495959;" points="259.577,165.398 233.212,165.398 233.212,152.398 252.423,152.398 268.303,127.325 
	279.285,134.281 "/>
<polygon style="fill:#3F4A4A;" points="279.285,134.281 268.303,127.325 255.571,147.427 255.571,165.398 259.577,165.398 "/>
<g>
</g>
<g>
</g>
<g>
</g>
<g>
</g>
<g>
</g>
<g>
</g>
<g>
</g>
<g>
</g>
<g>
</g>
<g>
</g>
<g>
</g>
<g>
</g>
<g>
</g>
<g>
</g>
<g>
</g>
</svg>
