<?xml version="1.0" encoding="iso-8859-1"?>
<!-- Generator: Adobe Illustrator 19.0.0, SVG Export Plug-In . SVG Version: 6.00 Build 0)  -->
<svg version="1.1" id="Capa_1" xmlns="http://www.w3.org/2000/svg" xmlns:xlink="http://www.w3.org/1999/xlink" x="0px" y="0px"
	 viewBox="0 0 512 512" style="enable-background:new 0 0 512 512;" xml:space="preserve">
<circle style="fill:#008FF9;" cx="256" cy="256" r="256"/>
<path style="fill:#005FF7;" d="M60,275.261l233.936,233.936c114.6-17.025,204.416-109.992,216.636-226.092L465.5,238.034
	l-17.326,11.624L318.711,120.194l-12.731,14.221l-48.616-48.616l3.049,51.577l-58.46,3.102l62.328,62.328L262,262L60,275.261z"/>
<path style="fill:#E1EBF0;" d="M275.446,212.426h-38.891V135.74c0-18.25,6.398-35.922,18.081-49.941L256,84.162l1.364,1.637
	c11.683,14.02,18.081,31.692,18.081,49.941v76.686H275.446z"/>
<path style="fill:#CDE1E6;" d="M255.571,212.427h19.874V135.74c0-18.25-6.398-35.922-18.081-49.941L256,84.162L255.571,212.427z"/>
<path style="fill:#E1EBF0;" d="M419.21,288.88H92.79c-25.565,0-46.29-20.725-46.29-46.29v-4.556h419v4.556
	C465.5,268.155,444.775,288.88,419.21,288.88z"/>
<path style="fill:#9BB9C3;" d="M255.571,238.034v50.847H419.21c25.565,0,46.29-20.725,46.29-46.29v-4.556L255.571,238.034
	L255.571,238.034z"/>
<path style="fill:#FFFFFF;" d="M342.5,240c0,49.861-38.727,100.281-86.5,100.281S169.5,289.861,169.5,240s38.727-80.281,86.5-80.281
	S342.5,190.139,342.5,240z"/>
<path style="fill:#F0F0F0;" d="M256,159.719c-0.144,0-0.141,0.008-0.285,0.009l-0.144,180.547c0.143,0.001,0.285,0.007,0.429,0.007
	c47.773,0,86.5-50.42,86.5-100.281S303.773,159.719,256,159.719z"/>
<path style="fill:#87C7FF;" d="M312.333,241H199.667v-21c0-11.598,9.402-21,21-21h70.667c11.598,0,21,9.402,21,21v21H312.333z"/>
<path style="fill:#65B1FC;" d="M312.333,220c0-11.598-9.402-21-21-21h-35.762v42h56.762V220z"/>
<circle style="fill:#495959;" cx="115" cy="279.81" r="26.667"/>
<circle style="fill:#3F4A4A;" cx="397" cy="279.81" r="26.667"/>
<path style="fill:#E1EBF0;" d="M290.611,148.294h-69.222c-15.519,0-28.1-12.581-28.1-28.1l0,0h125.422l0,0
	C318.711,135.713,306.13,148.294,290.611,148.294z"/>
<path style="fill:#CDE1E6;" d="M255.938,120.194v28.1h34.674c15.519,0,28.1-12.581,28.1-28.1l0,0L255.938,120.194z"/>
<g>
</g>
<g>
</g>
<g>
</g>
<g>
</g>
<g>
</g>
<g>
</g>
<g>
</g>
<g>
</g>
<g>
</g>
<g>
</g>
<g>
</g>
<g>
</g>
<g>
</g>
<g>
</g>
<g>
</g>
</svg>
