<?xml version="1.0" encoding="iso-8859-1"?>
<!-- Generator: Adobe Illustrator 19.0.0, SVG Export Plug-In . SVG Version: 6.00 Build 0)  -->
<svg version="1.1" id="Capa_1" xmlns="http://www.w3.org/2000/svg" xmlns:xlink="http://www.w3.org/1999/xlink" x="0px" y="0px"
	 viewBox="0 0 512 512" style="enable-background:new 0 0 512 512;" xml:space="preserve">
<circle style="fill:#FFDA00;" cx="256" cy="256" r="256"/>
<path style="fill:#FFB600;" d="M512,256c0-17.701-1.797-34.982-5.218-51.671L387.89,85.438L64.592,206.5l127.914,127.914
	l-92.885,52.614l122.776,122.776C233.394,511.246,244.609,512,256,512C397.385,512,512,397.385,512,256z"/>
<path style="fill:#495959;" d="M441.553,171.406h11.144v20.15c0,12.516-9.559,22.698-21.308,22.698h-32.402v-11.872L441.553,171.406
	z"/>
<path style="fill:#55696E;" d="M113.012,202.383v11.872H80.61c-11.749,0-21.308-10.182-21.308-22.698v-20.15h11.144L113.012,202.383
	z"/>
<path style="fill:#495959;" d="M147.151,396.909h-28.412c-12.949,0-23.446-10.497-23.446-23.446v-52.024
	c0-12.949,10.497-23.446,23.446-23.446h28.412c12.949,0,23.446,10.497,23.446,23.446v52.024
	C170.596,386.412,160.099,396.909,147.151,396.909z"/>
<path style="fill:#3F4A4A;" d="M393.261,397.409h-28.412c-12.949,0-23.446-10.497-23.446-23.446v-52.024
	c0-12.949,10.497-23.446,23.446-23.446h28.412c12.949,0,23.446,10.497,23.446,23.446v52.024
	C416.707,386.912,406.21,397.409,393.261,397.409z"/>
<path style="fill:#55696E;" d="M395.712,363.701H116.288c-15.416,0-27.913-12.497-27.913-27.913V216.913
	c0-15.416,12.497-27.913,27.913-27.913h279.425c15.416,0,27.913,12.497,27.913,27.913v118.876
	C423.625,351.205,411.128,363.701,395.712,363.701z"/>
<path style="fill:#495959;" d="M395.712,189H255.571v174.701h140.141c15.416,0,27.913-12.497,27.913-27.913V216.913
	C423.625,201.497,411.128,189,395.712,189z"/>
<path style="fill:#738C96;" d="M88.375,297.667v38.122c0,15.416,12.497,27.913,27.913,27.913h279.425
	c15.416,0,27.913-12.497,27.913-27.913v-38.122H88.375z"/>
<path style="fill:#607882;" d="M255.571,297.667v66.035h140.141c15.416,0,27.913-12.497,27.913-27.913v-38.122H255.571z"/>
<g>
	<rect x="196.91" y="255.81" style="fill:#3F4A4A;" width="118.19" height="12"/>
	<rect x="196.91" y="255.81" style="fill:#3F4A4A;" width="58.666" height="12"/>
	<rect x="255.57" y="255.81" style="fill:#3F4A4A;" width="59.52" height="12"/>
	<rect x="196.91" y="284.89" style="fill:#3F4A4A;" width="118.19" height="12"/>
	<rect x="196.91" y="284.89" style="fill:#3F4A4A;" width="58.666" height="12"/>
	<rect x="255.57" y="284.89" style="fill:#3F4A4A;" width="59.52" height="12"/>
</g>
<g>
	<path style="fill:#87C7FF;" d="M188.848,294.142H110.14v-38h41.888c20.335,0,36.82,16.485,36.82,36.82L188.848,294.142
		L188.848,294.142z"/>
	<path style="fill:#87C7FF;" d="M401.861,294.142h-78.708v-1.18c0-20.335,16.485-36.82,36.82-36.82h41.888V294.142z"/>
</g>
<path style="fill:#FFFFFF;" d="M410.782,206.5H101.218l18.411-92.247C123.951,92.594,142.965,77,165.051,77h181.898
	c22.086,0,41.1,15.594,45.422,37.253L410.782,206.5z"/>
<path style="fill:#F0F0F0;" d="M392.371,114.253C388.049,92.594,369.035,77,346.949,77h-91.378v129.5h155.211L392.371,114.253z"/>
<path style="fill:#55696E;" d="M422.366,216H89.634l20.678-103.607C115.504,86.38,138.525,67.5,165.051,67.5h181.898
	c26.526,0,49.547,18.88,54.739,44.893L422.366,216z M112.801,197h286.397l-16.144-80.888C379.631,98.954,364.446,86.5,346.949,86.5
	H165.051c-17.497,0-32.682,12.454-36.106,29.612L112.801,197z"/>
<path style="fill:#495959;" d="M401.688,112.393C396.496,86.38,373.475,67.5,346.949,67.5h-91.378v19h91.378
	c17.497,0,32.682,12.454,36.106,29.612L399.199,197H255.571v19h166.794L401.688,112.393z"/>
<path style="fill:#55696E;" d="M346.949,77H165.051c-17.512,0-33.084,9.809-40.941,24.667h263.78
	C380.033,86.809,364.461,77,346.949,77z"/>
<path style="fill:#495959;" d="M346.949,77h-91.378v24.667H387.89C380.033,86.809,364.461,77,346.949,77z"/>
<g>
</g>
<g>
</g>
<g>
</g>
<g>
</g>
<g>
</g>
<g>
</g>
<g>
</g>
<g>
</g>
<g>
</g>
<g>
</g>
<g>
</g>
<g>
</g>
<g>
</g>
<g>
</g>
<g>
</g>
</svg>
