<?xml version="1.0" encoding="iso-8859-1"?>
<!-- Generator: Adobe Illustrator 19.0.0, SVG Export Plug-In . SVG Version: 6.00 Build 0)  -->
<svg version="1.1" id="Capa_1" xmlns="http://www.w3.org/2000/svg" xmlns:xlink="http://www.w3.org/1999/xlink" x="0px" y="0px"
	 viewBox="0 0 512.001 512.001" style="enable-background:new 0 0 512.001 512.001;" xml:space="preserve">
<circle style="fill:#F42727;" cx="256.001" cy="256" r="256"/>
<path style="fill:#D30F0F;" d="M512,256c0-2.546-0.048-5.08-0.122-7.608L370.522,107.035L123.418,385.083l126.845,126.845
	c1.908,0.042,3.82,0.073,5.738,0.073C397.386,512,512,397.385,512,256z"/>
<path style="fill:#495959;" d="M125.412,476.213C163.648,498.936,208.296,512,256.001,512s92.353-13.064,130.589-35.787L343.894,369
	H168.108L125.412,476.213z"/>
<path style="fill:#323C3C;" d="M386.59,476.213L343.894,369h-88.322v142.996c0.143,0,0.285,0.004,0.429,0.004
	C303.706,512,348.354,498.936,386.59,476.213z"/>
<path style="fill:#55696E;" d="M164.243,495.045C192.73,505.987,223.661,512,256.001,512s63.271-6.013,91.758-16.955
	l-29.164-121.379H193.407L164.243,495.045z"/>
<path style="fill:#495959;" d="M347.759,495.045l-29.164-121.379h-63.023v138.328c0.143,0,0.285,0.005,0.429,0.005
	C288.341,512,319.272,505.987,347.759,495.045z"/>
<path style="fill:#FFFFFF;" d="M395.503,146.353l-14.346-24.389c-19.06-32.403-53.846-52.298-91.439-52.298h-67.433
	c-37.593,0-72.379,19.895-91.439,52.298L116.5,146.353c-21.281,36.178-29.944,78.399-24.629,120.034l9.57,74.966
	c4.693,36.765,35.981,64.313,73.045,64.313h0.515v-18h162v18h0.516c37.064,0,68.351-27.547,73.045-64.313l9.57-74.966
	C425.447,224.753,416.784,182.531,395.503,146.353z"/>
<path style="fill:#E9EDF5;" d="M395.503,146.353l-14.346-24.389c-19.06-32.403-53.846-52.298-91.439-52.298h-34.145v318h81.428v18
	h0.516c37.064,0,68.351-27.547,73.045-64.313l9.57-74.966C425.447,224.753,416.784,182.531,395.503,146.353z"/>
<path style="fill:#008FF9;" d="M378.537,178.347v-60.581c-19.521-29.909-52.882-48.1-88.82-48.1h-67.433
	c-35.937,0-69.298,18.191-88.82,48.1v60.581c0,67.675,54.861,122.536,122.536,122.536l0,0
	C323.676,300.883,378.537,246.022,378.537,178.347z"/>
<path style="fill:#005FF7;" d="M289.717,69.667h-34.145v231.211c0.143,0,0.285,0.005,0.428,0.005l0,0
	c67.675,0,122.536-54.861,122.536-122.536v-60.581C359.016,87.858,325.655,69.667,289.717,69.667z"/>
<path style="fill:#19A4F9;" d="M179.365,352.118l2.452-7.853c7.2-23.054-5.653-47.58-28.708-54.78l-60.711-18.959l9.042,70.828
	c0.043,0.333,0.103,0.66,0.15,0.992l60.419,18.868C169.313,363.495,177.084,359.422,179.365,352.118z"/>
<path style="fill:#008FF9;" d="M410.562,341.354l9.042-70.828l-60.711,18.959c-23.054,7.2-35.907,31.725-28.708,54.78l2.452,7.853
	c2.281,7.304,10.052,11.377,17.356,9.096l60.419-18.868C410.458,342.014,410.519,341.687,410.562,341.354z"/>
<g>
</g>
<g>
</g>
<g>
</g>
<g>
</g>
<g>
</g>
<g>
</g>
<g>
</g>
<g>
</g>
<g>
</g>
<g>
</g>
<g>
</g>
<g>
</g>
<g>
</g>
<g>
</g>
<g>
</g>
</svg>
