<svg id="Layer_2" height="512" viewBox="0 0 128 128" width="512" xmlns="http://www.w3.org/2000/svg" data-name="Layer 2"><circle cx="64" cy="64" fill="#23a8fe" r="62.25"/><circle cx="64" cy="64" fill="#23a8fe" r="62.25"/><path d="m96.563 10.944-6.8 6.8v18.035l9.224 9.221h11.763l13.829 13.83v17.641l.344.344a62.3 62.3 0 0 0 -28.36-65.871z" fill="#8affc7"/><path d="m49.722 3.414a62.087 62.087 0 0 0 -27.7 14.624l1.9-.949h12.126z" fill="#8affc7"/><path d="m62.443 34.788a7.625 7.625 0 1 0 -11.315 6.671 36.265 36.265 0 0 0 3.69 8.142 36.265 36.265 0 0 0 3.69-8.142 7.619 7.619 0 0 0 3.935-6.671z" fill="#4f67d2"/><path d="m55.787 36.538h-1.937a1.75 1.75 0 0 1 0-3.5h1.937a1.75 1.75 0 0 1 0 3.5z" fill="#fee55a"/><path d="m73.137 51.525-5.637-5.634h-4.337l-4.52-4.519c-.046.027-.088.061-.135.087a36.265 36.265 0 0 1 -3.69 8.142 36.265 36.265 0 0 1 -3.69-8.142 7.647 7.647 0 0 1 -3.089-3.216h-5.755l-3.708 3.427-6.318-1.153-3.514-7.435-11.714-4-.7-5.093a62.517 62.517 0 0 0 -5.51 7.641l4.143 2.547 8.015 3.156 3.833 8.5 9.889 2.229-4.445 12.2 6.615 12.507 7.548 4.031-3.41 29.871 1.963 5.788h3.2l3.618-10.13 11.938-5.633 8.114-8.113v-4.035l11.834-7.442v-6.15l5.427-5.426v-4.13z" fill="#8affc7"/></svg>