<svg id="Layer_2" height="512" viewBox="0 0 128 128" width="512" xmlns="http://www.w3.org/2000/svg" data-name="Layer 2"><path d="m94.457 49.679a11.8 11.8 0 0 1 -4.028 4.028v16.069h9.171l-15.225 15.724-15.22-15.724h9.166v-16.069a11.8 11.8 0 0 1 -4.028-4.028h-16.069v9.166l-15.724-15.22 15.724-15.22v9.166h16.069a11.8 11.8 0 0 1 4.028-4.028v-8.369a53.21 53.21 0 1 0 24.5 24.505z" fill="#23a8fe"/><path d="m15.318 78.225-7.666-6.133-3.27.716-2.582-1.686c-.022.631-.048 1.261-.048 1.9a52.986 52.986 0 0 0 10.854 32.2l5.881-7.476 13.087-1.531.1-11.553-6.234-7.973z" fill="#8affc7"/><circle cx="84.375" cy="43.625" fill="#fee55a" r="11.772"/><g fill="#4f67d2"><path d="m72.6 43.625a11.694 11.694 0 0 1 1.69-6.054h-16.066v-9.166l-15.724 15.22 15.724 15.22v-9.166h16.069a11.694 11.694 0 0 1 -1.693-6.054z"/><path d="m78.321 33.543a11.688 11.688 0 0 1 12.108 0v-16.069h9.171l-15.225-15.724-15.22 15.724h9.166z"/><path d="m126.25 43.625-15.724-15.22v9.166h-16.069a11.688 11.688 0 0 1 0 12.108h16.069v9.166z"/><path d="m90.429 53.707a11.688 11.688 0 0 1 -12.108 0v16.069h-9.166l15.22 15.724 15.225-15.724h-9.171z"/></g><path d="m67.209 27.754 10.073 6.5a11.448 11.448 0 0 1 1.039-.715v-8.357a53.252 53.252 0 0 0 -37.2-3.56l.633 2.826z" fill="#8affc7"/><path d="m69.155 69.776h9.166v-16.069a11.8 11.8 0 0 1 -4.028-4.028h-16.069v9.166l-15.724-15.22 7.631-7.386-.786-.786-8.971 3.534-11.689 11.689v15.424l7.884 7.884h10.058l11.825 11.825v15.091l8.767 8.767 11.213-11.217v-6.524l5.168-5.165v-2.061z" fill="#8affc7"/></svg>