<svg id="Layer_2" height="512" viewBox="0 0 128 128" width="512" xmlns="http://www.w3.org/2000/svg" data-name="Layer 2"><circle cx="64" cy="64" fill="#23a8fe" r="62.25"/><circle cx="64" cy="64" fill="#23a8fe" r="62.25"/><g fill="#8affc7"><path d="m64 1.75a62.242 62.242 0 0 0 -62.1 58.083l3.573 6.326h2.14l3.771-5.032v-3.7l2.192-2.208v-7.752l3.49-3.518h4.51l12.124-12.209h5l1.369-1.381h2.3v4.372l3.72 3.749v9.6h4.229l3.764-3.793 2.9 2.928v5.385l1.69 5.854v9.246l13.664 13.763h4.077l-1.631-8.114-5.049-3.492-4.077-4.725v-10.153h2.544l3.411 6.463 4.189 1.431 3.466 1.127 6.268-6.317-.662-8.576-9.326-9.4 5.354-5.387h5.1l3.669-3.7h6.727l11.058-11.144v-.036a62.033 62.033 0 0 0 -43.454-17.69z"/><path d="m47.165 75.856h2.65l5.503 1.849 1.427 3.218 4.349 3.355 4.144 2.123 6.727 8.353 2.786 2.191-.748 6.505h-2.717l-12.176-5.735-4.212-9.055-7.26-6.172z"/><path d="m79.755 106.164 3.176-2.722h14.728l3.006 3.133-1.001 3.645h-14.217l-1.853-1.438z"/><path d="m85.789 80.412-1.427 3.492v2.396l2.446 2.465v3.561h9.173l2.514 2.534h3.465v-4.588l3.839-3.869v-5.101h3.024v-2.842l-3.041-3.064 4.468-4.502v-3.149l-5.3-2.054-4.756 6.162h-2.888l-3.278 3.304h-2.735l-1.495 5.666z"/></g><path d="m71.625 26.794a7.625 7.625 0 1 0 -11.315 6.671 36.247 36.247 0 0 0 3.69 8.141 36.247 36.247 0 0 0 3.69-8.141 7.621 7.621 0 0 0 3.935-6.671z" fill="#4f67d2"/><path d="m64.969 28.544h-1.938a1.75 1.75 0 0 1 0-3.5h1.938a1.75 1.75 0 0 1 0 3.5z" fill="#fee55a"/></svg>