<svg id="Layer_2" height="512" viewBox="0 0 128 128" width="512" xmlns="http://www.w3.org/2000/svg" data-name="Layer 2"><path d="m38.989 126.25h-27.231l-10.008-9.851v-9.851h47.247v9.851z" fill="#4f67d2"/><path d="m24.495 13.833h19.25v11.168h-19.25z" fill="#fee55a"/><path d="m18.497 1.75h30.5v12.083h-30.5z" fill="#4f67d2"/><path d="m8.747 89.665h40.25v16.883h-40.25z" fill="#fee55a"/><path d="m29.997 37.167h-14.141l-7.109 29.835v7.665h21.25z" fill="#dfebfa"/><path d="m18.755 25.002-2.899 12.165h14.141v37.5h-21.25v14.998h40.25v-64.663z" fill="#23a8fe"/><path d="m89.011 126.25h27.231l10.008-9.812v-9.89h-47.247v9.89z" fill="#4f67d2"/><path d="m84.255 13.833h19.25v11.168h-19.25z" fill="#fee55a" transform="matrix(-1 0 0 -1 187.76 38.835)"/><path d="m79.003 1.75h30.5v12.083h-30.5z" fill="#4f67d2"/><path d="m79.003 89.665h40.25v16.883h-40.25z" fill="#fee55a" transform="matrix(-1 0 0 -1 198.256 196.213)"/><path d="m98.003 37.167h14.141l7.109 29.835v7.665h-21.25z" fill="#dfebfa"/><path d="m109.245 25.002 2.899 12.165h-14.141v37.5h21.25v14.998h-40.25v-64.663z" fill="#23a8fe"/><path d="m48.997 37.167h30.006v40.708h-30.006z" fill="#4f67d2"/><path d="m56.997 37.167h14.007v32.708h-14.007z" fill="#fee55a"/><path d="m66.75 87.663h-5.5a3 3 0 0 1 -3-3v-6.788h11.5v6.788a3 3 0 0 1 -3 3z" fill="#23a8fe"/></svg>