<svg id="Layer_2" height="512" viewBox="0 0 128 128" width="512" xmlns="http://www.w3.org/2000/svg" data-name="Layer 2"><path d="m21.75 1.75h91.5a0 0 0 0 1 0 0v124.5a0 0 0 0 1 0 0h-91.5a7 7 0 0 1 -7-7v-110.5a7 7 0 0 1 7-7z" fill="#4f67d2"/><circle cx="64" cy="48.888" fill="#23a8fe" r="35"/><path d="m37.921 52.312-5.04-4.033-2.15.47-1.7-1.108c-.015.415-.032.829-.032 1.247a34.842 34.842 0 0 0 7.137 21.175l3.864-4.916 8.605-1.006.066-7.6-4.1-5.242z" fill="#8affc7"/><path d="m92.33 34.286 4.811 3.35a35 35 0 0 0 -42.251-22.543l.416 1.858 15.735 4.176 11.459 4.748-6.932 3.176-11.698-1.289-3.57-3.575-5.9 2.324-7.689 7.689v10.139l5.183 5.184h6.614l7.776 7.777v9.92l5.764 5.765 7.373-7.374v-4.291l3.4-3.4v-6.77l5.373-5.374-1.184-6.672-7.34-4.739 7.03-3.088z" fill="#8affc7"/><path d="m113.25 126.25h-91.5a7 7 0 0 1 -7-7 7 7 0 0 1 7-7h91.5z" fill="#dfebfa"/><path d="m33.055 94.5h61.891v7h-61.891z" fill="#fee55a"/><path d="m26.25 117.5a1.75 1.75 0 0 0 0 3.5h87v-3.5z" fill="#cadbef"/></svg>