<svg id="Layer_2" height="512" viewBox="0 0 128 128" width="512" xmlns="http://www.w3.org/2000/svg" data-name="Layer 2"><path d="m9.75 36.875h19.792a0 0 0 0 1 0 0v71.333a0 0 0 0 1 0 0h-19.792a8 8 0 0 1 -8-8v-55.333a8 8 0 0 1 8-8z" fill="#fee55a"/><path d="m103.4 36.875-10-17.083h-31l-10.011 17.083h-22.847v71.333h92.708a4 4 0 0 0 4-4v-63.333a4 4 0 0 0 -4-4z" fill="#4f67d2"/><path d="m103.4 36.875-10-17.083h-31l-10.011 17.083h-22.847v71.333h92.708a4 4 0 0 0 4-4v-63.333a4 4 0 0 0 -4-4z" fill="#4f67d2"/><path d="m24.292 25.792h10.5a4 4 0 0 1 4 4v7.083a0 0 0 0 1 0 0h-18.5a0 0 0 0 1 0 0v-7.083a4 4 0 0 1 4-4z" fill="#dfebfa"/><circle cx="77.896" cy="72.542" fill="#23a8fe" r="24.477"/><path d="m77.9 87.018a14.477 14.477 0 1 1 14.473-14.476 14.493 14.493 0 0 1 -14.473 14.476z" fill="#dfebfa"/><path d="m88.81 27.792h-21.829l-5.321 9.083h32.472z" fill="#dfebfa"/><path d="m108.75 46.667h17.5v8.875h-17.5z" fill="#fee55a"/><g fill="#bc7c63"><path d="m15.871 56.417h-14.121v-8h14.121a4 4 0 0 1 4 4 4 4 0 0 1 -4 4z"/><path d="m15.871 77.375h-14.121v-8h14.121a4 4 0 0 1 4 4 4 4 0 0 1 -4 4z"/><path d="m1.75 90.333h14.121a4 4 0 0 1 4 4 4 4 0 0 1 -4 4h-14.121a0 0 0 0 1 0 0v-8a0 0 0 0 1 0 0z"/></g></svg>