<svg id="Layer_2" height="512" viewBox="0 0 128 128" width="512" xmlns="http://www.w3.org/2000/svg" data-name="Layer 2"><path d="m1.75 116.25h124.5v10h-124.5z" fill="#4f67d2"/><path d="m61.639 116.25h-43.667v-82.257l43.667-10.008z" fill="#23a8fe"/><path d="m27.972 52.007a1.751 1.751 0 0 1 -1.75-1.75v-8.3a1.75 1.75 0 0 1 3.5 0v8.3a1.751 1.751 0 0 1 -1.75 1.75z" fill="#8affc7"/><path d="m39.805 52.007a1.751 1.751 0 0 1 -1.75-1.75v-8.3a1.75 1.75 0 0 1 3.5 0v8.3a1.751 1.751 0 0 1 -1.75 1.75z" fill="#8affc7"/><path d="m51.639 52.007a1.75 1.75 0 0 1 -1.75-1.75v-8.3a1.75 1.75 0 0 1 3.5 0v8.3a1.751 1.751 0 0 1 -1.75 1.75z" fill="#8affc7"/><path d="m27.972 70.671a1.75 1.75 0 0 1 -1.75-1.75v-8.3a1.75 1.75 0 0 1 3.5 0v8.3a1.75 1.75 0 0 1 -1.75 1.75z" fill="#8affc7"/><path d="m39.805 70.671a1.75 1.75 0 0 1 -1.75-1.75v-8.3a1.75 1.75 0 0 1 3.5 0v8.3a1.75 1.75 0 0 1 -1.75 1.75z" fill="#8affc7"/><path d="m51.639 70.671a1.749 1.749 0 0 1 -1.75-1.75v-8.3a1.75 1.75 0 0 1 3.5 0v8.3a1.75 1.75 0 0 1 -1.75 1.75z" fill="#8affc7"/><path d="m27.972 89.335a1.75 1.75 0 0 1 -1.75-1.75v-8.3a1.75 1.75 0 0 1 3.5 0v8.3a1.75 1.75 0 0 1 -1.75 1.75z" fill="#8affc7"/><path d="m39.805 89.335a1.75 1.75 0 0 1 -1.75-1.75v-8.3a1.75 1.75 0 0 1 3.5 0v8.3a1.75 1.75 0 0 1 -1.75 1.75z" fill="#8affc7"/><path d="m51.639 89.335a1.749 1.749 0 0 1 -1.75-1.75v-8.3a1.75 1.75 0 0 1 3.5 0v8.3a1.75 1.75 0 0 1 -1.75 1.75z" fill="#8affc7"/><path d="m33.93 97.953h11.75v18.297h-11.75z" fill="#fee55a"/><path d="m61.639 12.086h44.028v104.164h-44.028z" fill="#dfebfa"/><path d="m55.305 1.75h56.695v10.336h-56.695z" fill="#23a8fe"/><g fill="#4f67d2"><path d="m71.639 31.886a1.749 1.749 0 0 1 -1.75-1.75v-10.052a1.75 1.75 0 0 1 3.5 0v10.052a1.75 1.75 0 0 1 -1.75 1.75z"/><path d="m83.653 31.886a1.75 1.75 0 0 1 -1.75-1.75v-10.052a1.75 1.75 0 0 1 3.5 0v10.052a1.75 1.75 0 0 1 -1.75 1.75z"/><path d="m95.667 31.886a1.749 1.749 0 0 1 -1.75-1.75v-10.052a1.75 1.75 0 0 1 3.5 0v10.052a1.75 1.75 0 0 1 -1.75 1.75z"/><path d="m71.639 50.915a1.75 1.75 0 0 1 -1.75-1.75v-10.053a1.75 1.75 0 0 1 3.5 0v10.053a1.751 1.751 0 0 1 -1.75 1.75z"/><path d="m83.653 50.915a1.751 1.751 0 0 1 -1.75-1.75v-10.053a1.75 1.75 0 0 1 3.5 0v10.053a1.751 1.751 0 0 1 -1.75 1.75z"/><path d="m95.667 50.915a1.75 1.75 0 0 1 -1.75-1.75v-10.053a1.75 1.75 0 1 1 3.5 0v10.053a1.751 1.751 0 0 1 -1.75 1.75z"/><path d="m71.639 69.943a1.75 1.75 0 0 1 -1.75-1.75v-10.052a1.75 1.75 0 0 1 3.5 0v10.052a1.751 1.751 0 0 1 -1.75 1.75z"/><path d="m83.653 69.943a1.751 1.751 0 0 1 -1.75-1.75v-10.052a1.75 1.75 0 0 1 3.5 0v10.052a1.751 1.751 0 0 1 -1.75 1.75z"/><path d="m95.667 69.943a1.75 1.75 0 0 1 -1.75-1.75v-10.052a1.75 1.75 0 1 1 3.5 0v10.052a1.751 1.751 0 0 1 -1.75 1.75z"/><path d="m71.639 88.972a1.75 1.75 0 0 1 -1.75-1.75v-10.053a1.75 1.75 0 0 1 3.5 0v10.053a1.751 1.751 0 0 1 -1.75 1.75z"/><path d="m83.653 88.972a1.751 1.751 0 0 1 -1.75-1.75v-10.053a1.75 1.75 0 0 1 3.5 0v10.053a1.751 1.751 0 0 1 -1.75 1.75z"/><path d="m95.667 88.972a1.75 1.75 0 0 1 -1.75-1.75v-10.053a1.75 1.75 0 0 1 3.5 0v10.053a1.751 1.751 0 0 1 -1.75 1.75z"/></g><path d="m71.639 97.953h24.028v18.297h-24.028z" fill="#fee55a"/><path d="m85.403 97.953h-3.5v18.297h3.5z" fill="#bc7c63"/></svg>