<svg id="Layer_2" height="512" viewBox="0 0 128 128" width="512" xmlns="http://www.w3.org/2000/svg" data-name="Layer 2"><circle cx="64" cy="81.791" fill="#23a8fe" r="44.457" transform="matrix(.909 -.416 .416 .909 -28.241 34.069)"/><path d="m64 37.333a44.6 44.6 0 0 1 8.915.9v-11.728a4 4 0 0 0 -4-4h-9.831a4 4 0 0 0 -4 4v11.724a44.618 44.618 0 0 1 8.916-.896z" fill="#4f67d2"/><path d="m81.915 1.752h-35.83a17.585 17.585 0 1 0 0 35.169h9v-8h-9a9.585 9.585 0 1 1 0-19.169h35.83a9.585 9.585 0 1 1 0 19.169h-9v8h9a17.585 17.585 0 1 0 0-35.169z" fill="#dfebfa"/><path d="m93.54 86.92h4.54a34.3 34.3 0 0 1 -8.53 17.95 28.786 28.786 0 0 1 -2.47 2.47 34.3 34.3 0 0 1 -17.96 8.53v-4.54a3 3 0 0 0 -3-3h-4.24a3 3 0 0 0 -3 3v4.54a34.3 34.3 0 0 1 -17.96-8.53 30.3 30.3 0 0 1 -2.47-2.47 34.29 34.29 0 0 1 -8.52-17.95h4.53a3.009 3.009 0 0 0 3-3v-4.25a3 3 0 0 0 -3-3h-4.53a34.357 34.357 0 0 1 8.52-17.96 31.979 31.979 0 0 1 2.47-2.47 34.284 34.284 0 0 1 17.96-8.52v4.53a3 3 0 0 0 3 3h4.24a3 3 0 0 0 3-3v-4.53a34.284 34.284 0 0 1 17.96 8.52 30.3 30.3 0 0 1 2.47 2.47 34.37 34.37 0 0 1 8.53 17.96h-4.54a3 3 0 0 0 -3 3v4.25a3.009 3.009 0 0 0 3 3z" fill="#dfebfa"/><path d="m57.342 75.132 13.317 13.317 8.571-21.888z" fill="#ff656f"/><g fill="#4f67d2"><path d="m48.771 97.02 21.888-8.571-13.317-13.317z"/><path d="m89.55 58.71-3.42 3.43a1.754 1.754 0 0 1 -2.48-2.48l3.43-3.42a30.3 30.3 0 0 1 2.47 2.47z"/><path d="m44.35 103.92-3.43 3.42a30.3 30.3 0 0 1 -2.47-2.47l3.42-3.43a1.754 1.754 0 0 1 2.48 2.48z"/><path d="m89.55 104.87a28.786 28.786 0 0 1 -2.47 2.47l-3.43-3.42a1.754 1.754 0 0 1 2.48-2.48z"/><path d="m44.35 62.14a1.762 1.762 0 0 1 -2.48 0l-3.42-3.43a31.979 31.979 0 0 1 2.47-2.47l3.43 3.42a1.762 1.762 0 0 1 0 2.48z"/></g></svg>