<svg id="Layer_2" height="512" viewBox="0 0 128 128" width="512" xmlns="http://www.w3.org/2000/svg" data-name="Layer 2"><path d="m47.936 42.186a23.011 23.011 0 1 0 -34.16 20.123c3.264 11.972 11.15 24.577 11.15 24.577s7.885-12.6 11.149-24.577a23 23 0 0 0 11.861-20.123z" fill="#ff656f"/><path d="m24.925 51.92a9.734 9.734 0 1 1 9.735-9.734 9.745 9.745 0 0 1 -9.735 9.734z" fill="#dfebfa"/><path d="m18.955 96.544h11.945a6.141 6.141 0 0 1 6.141 6.14 6.141 6.141 0 0 1 -6.141 6.14h-11.945a6.14 6.14 0 0 1 -6.14-6.14 6.14 6.14 0 0 1 6.14-6.14z" fill="#23a8fe"/><path d="m80.064 42.186a23.011 23.011 0 1 1 34.16 20.123c-3.264 11.972-11.15 24.577-11.15 24.577s-7.885-12.6-11.149-24.577a23 23 0 0 1 -11.861-20.123z" fill="#4f67d2"/><path d="m109.045 96.544h-11.945a6.14 6.14 0 0 0 -6.141 6.14 6.14 6.14 0 0 0 6.141 6.14h11.941a6.14 6.14 0 0 0 6.14-6.14 6.14 6.14 0 0 0 -6.136-6.14z" fill="#23a8fe"/><path d="m91.749 105.684a6.118 6.118 0 0 1 0-6h-55.5a6.118 6.118 0 0 1 0 6z" fill="#dfebfa"/><path d="m103.075 51.92a9.734 9.734 0 1 0 -9.735-9.734 9.745 9.745 0 0 0 9.735 9.734z" fill="#fee55a"/></svg>