<svg id="Layer_2" height="512" viewBox="0 0 128 128" width="512" xmlns="http://www.w3.org/2000/svg" data-name="Layer 2"><path d="m51.232 68.667q.769-.031 1.541-.031a38.009 38.009 0 0 1 17.827 4.443l12.781 6.792 4.989-4.139a27.671 27.671 0 1 0 -50.514-4.032 38.007 38.007 0 0 1 13.376-3.033z" fill="#fee55a"/><path d="m126.312 89.857-18.912-15.92a13.092 13.092 0 0 0 -8.43-3.075 13.091 13.091 0 0 0 -8.359 3.016l-7.224 5.993 42.927 22.811z" fill="#ffd301"/><path d="m52.629 88.05-4.5-3.216a9.058 9.058 0 0 1 3.1-16.167 38.008 38.008 0 0 0 -21.063 7.422l-28.416 21.031v16.992h57.917a21.286 21.286 0 0 0 -7.038-26.062z" fill="#ffd301"/><path d="m70.6 73.079a38.009 38.009 0 0 0 -17.831-4.443q-.773 0-1.541.031a9.058 9.058 0 0 0 -3.1 16.167l4.5 3.216a21.286 21.286 0 0 1 7.038 26.062h66.645v-11.43z" fill="#bc7c63"/><path d="m81.671 64.389a1.751 1.751 0 0 1 -1.75-1.75 15.938 15.938 0 0 0 -15.921-15.921 1.75 1.75 0 0 1 0-3.5 19.443 19.443 0 0 1 19.421 19.421 1.751 1.751 0 0 1 -1.75 1.75z" fill="#bc7c63"/><g fill="#fee55a"><path d="m64 28.228a3.133 3.133 0 0 1 -3.132-3.128v-8.079a3.133 3.133 0 0 1 3.132-3.133 3.133 3.133 0 0 1 3.132 3.133v8.079a3.133 3.133 0 0 1 -3.132 3.128z"/><path d="m98.411 62.638a3.132 3.132 0 0 1 3.132-3.132h8.074a3.133 3.133 0 0 1 3.133 3.132 3.133 3.133 0 0 1 -3.133 3.133h-8.074a3.133 3.133 0 0 1 -3.132-3.133z"/><path d="m29.589 62.638a3.132 3.132 0 0 0 -3.132-3.132h-8.075a3.132 3.132 0 0 0 -3.132 3.132 3.133 3.133 0 0 0 3.132 3.133h8.075a3.133 3.133 0 0 0 3.132-3.133z"/><path d="m88.332 38.306a3.133 3.133 0 0 1 0-4.43l13.547-13.547a3.133 3.133 0 0 1 4.43 0 3.133 3.133 0 0 1 0 4.43l-13.547 13.547a3.131 3.131 0 0 1 -4.43 0z"/><path d="m39.668 38.306a3.133 3.133 0 0 0 0-4.43l-13.547-13.547a3.133 3.133 0 0 0 -4.43 0 3.133 3.133 0 0 0 0 4.43l13.547 13.547a3.131 3.131 0 0 0 4.43 0z"/></g></svg>