<svg id="Layer_2" height="512" viewBox="0 0 128 128" width="512" xmlns="http://www.w3.org/2000/svg" data-name="Layer 2"><g fill="#23a8fe"><circle cx="64" cy="64" r="62.25"/><circle cx="64" cy="64" r="62.25"/><circle cx="64" cy="64" r="62.25"/><circle cx="64" cy="64" r="62.25"/></g><path d="m62.93 22.088a7.625 7.625 0 1 0 -11.314 6.671 36.291 36.291 0 0 0 3.689 8.141 36.272 36.272 0 0 0 3.695-8.141 7.619 7.619 0 0 0 3.93-6.671z" fill="#4f67d2"/><path d="m56.274 23.838h-1.938a1.75 1.75 0 0 1 0-3.5h1.938a1.75 1.75 0 0 1 0 3.5z" fill="#fee55a"/><path d="m103.272 112.29-7.605-6.79 18.88-5.189a62.227 62.227 0 0 0 -27.378-94.087l-4.8 4.076-.86 8.4-12.47 3.357-6.139-.557c.015.194.029.388.029.586a7.619 7.619 0 0 1 -3.929 6.673 36.272 36.272 0 0 1 -3.69 8.141 36.291 36.291 0 0 1 -3.689-8.141 7.649 7.649 0 0 1 -2.977-3l-12.134 12.131h-6.81l7.882 7.883-5.372 5.375h-14.046l-6.521 12.111 8.671 8.671h8.456l12.218-3.3v-8.56l4.694-4.694h7.955l2.648-2.649 14.074 15.746 3.119-10.007-7.023-7.023 4.99-4.989 11.144 11.146v5.662l10.534 10.531v-10.033h7.023l5.59 7.883h.469l5.252 18.05-20.632 9.452-37.306-4.112-11.4-11.406-18.819 7.414-9.605 9.605a62.226 62.226 0 0 0 89.582 11.644z" fill="#8affc7"/></svg>