<svg id="Layer_2" height="512" viewBox="0 0 128 128" width="512" xmlns="http://www.w3.org/2000/svg" data-name="Layer 2"><path d="m116.506 38.347a22.486 22.486 0 0 0 -30.563-27.967 14.949 14.949 0 0 1 1.324 4.559l4.05 33.293v-6.975a2 2 0 0 1 2-2h4a2 2 0 0 1 2 2v11.533l7.04-5.379a2 2 0 0 1 2.8.375l2.428 3.178a2 2 0 0 1 -.375 2.8l-11.9 9.09v7.326h10.255a16.67 16.67 0 0 0 6.934-31.833z" fill="#55c98f"/><path d="m91.317 113.43 2.241-2.683a11.459 11.459 0 0 1 5.759-3.691v-44.2l11.9-9.09a2 2 0 0 0 .375-2.8l-2.428-3.178a2 2 0 0 0 -2.8-.375l-7.04 5.379v-11.535a2 2 0 0 0 -2-2h-4a2 2 0 0 0 -2 2v6.975l2.301 18.968a14.881 14.881 0 0 1 -2.308 9.944z" fill="#ffa85d"/><circle cx="35.437" cy="92.562" fill="#4f67d2" r="33.687" transform="matrix(.936 -.351 .351 .936 -30.217 18.312)"/><path d="m79.964 44.346-2.232-3.319a2 2 0 0 0 -2.775-.545l-6.957 4.676v-8.666a2 2 0 0 0 -2-2h-4a2 2 0 0 0 -2 2v25.349l-6.853-4.771a2 2 0 0 0 -2.784.5l-2.286 3.282a1.962 1.962 0 0 0 -.212.4 33.753 33.753 0 0 1 20.135 22.67v-29.122l11.42-7.676a2 2 0 0 0 .544-2.778z" fill="#ffa85d"/><path d="m93.625 67.2-6.358-52.261a15 15 0 0 0 -14.89-13.189h-16.754a15 15 0 0 0 -14.89 13.189l-5.345 43.937h.049a33.567 33.567 0 0 1 12.428 2.378 1.962 1.962 0 0 1 .212-.4l2.286-3.282a2 2 0 0 1 2.784-.5l6.853 4.769v-25.349a2 2 0 0 1 2-2h4a2 2 0 0 1 2 2v8.666l6.957-4.676a2 2 0 0 1 2.775.545l2.232 3.319a2 2 0 0 1 -.544 2.776l-11.42 7.678v29.122c.008.032.018.062.027.094h10.708a15 15 0 0 0 14.89-16.816z" fill="#8affc7"/><path d="m57.82 96.44h3.44a25.984 25.984 0 0 1 -6.18 13.29 23.128 23.128 0 0 1 -2.48 2.47 25.9 25.9 0 0 1 -13.28 6.18v-3.43a2.277 2.277 0 0 0 -2.27-2.28h-3.22a2.279 2.279 0 0 0 -2.28 2.28v3.43a25.891 25.891 0 0 1 -13.29-6.17 27.418 27.418 0 0 1 -2.47-2.47 26 26 0 0 1 -6.17-13.3h3.43a2.262 2.262 0 0 0 2.27-2.27v-3.22a2.268 2.268 0 0 0 -2.27-2.27h-3.43a25.891 25.891 0 0 1 6.17-13.29 26.281 26.281 0 0 1 2.47-2.48 25.891 25.891 0 0 1 13.29-6.17v3.44a2.277 2.277 0 0 0 2.28 2.27h3.22a2.275 2.275 0 0 0 2.27-2.27v-3.44a25.9 25.9 0 0 1 13.28 6.18 24.176 24.176 0 0 1 2.49 2.47 26.051 26.051 0 0 1 6.17 13.29h-3.44a2.275 2.275 0 0 0 -2.27 2.27v3.22a2.268 2.268 0 0 0 2.27 2.27z" fill="#dfebfa"/><path d="m30.391 87.516 10.091 10.091 6.494-16.585z" fill="#ff656f"/><path d="m23.897 104.101 16.585-6.494-10.091-10.091z" fill="#23a8fe"/><g fill="#cadbef"><path d="m51.27 78.48a1.743 1.743 0 0 0 1.23-.51l2.59-2.58a24.176 24.176 0 0 0 -2.49-2.47l-2.57 2.57a1.75 1.75 0 0 0 1.24 2.99z"/><path d="m18.37 107.15-2.58 2.59a27.418 27.418 0 0 0 2.47 2.47l2.58-2.58a1.75 1.75 0 0 0 -2.47-2.48z"/><path d="m50.03 107.15a1.762 1.762 0 0 0 0 2.48l2.57 2.57a23.128 23.128 0 0 0 2.48-2.47l-2.58-2.58a1.75 1.75 0 0 0 -2.47 0z"/><path d="m18.26 72.91a26.281 26.281 0 0 0 -2.47 2.48l2.58 2.58a1.75 1.75 0 0 0 2.47-2.48z"/></g><path d="m126.25 121.063a4 4 0 0 0 -4-4h-3.031a4 4 0 0 1 -2.828-1.172l-5.9-5.9a11.477 11.477 0 0 0 -8.117-3.362 11.481 11.481 0 0 0 -8.812 4.122l-5.484 6.567a4 4 0 0 1 -3.078 1.432h-3.049a4 4 0 0 1 -3.642-2.345 12.42 12.42 0 0 0 -11.309-7.28h-2.234a33.665 33.665 0 0 1 -29.329 17.123h90.813z" fill="#8affc7"/><path d="m13.249 117.9a3.981 3.981 0 0 1 -2.874 1.227h-4.625a4 4 0 0 0 -4 4v3.125h33.687a33.547 33.547 0 0 1 -22.188-8.352z" fill="#8affc7"/><path d="m11.635 68.724a33.664 33.664 0 0 1 13.808-8.341l-8.657-6.615a2 2 0 0 1 -.375-2.8l2.428-3.178a2 2 0 0 1 2.8-.375l7.04 5.379v-11.537a2 2 0 0 1 2-2h4a2 2 0 0 1 2 2v6.975l4.05-33.293a14.921 14.921 0 0 1 1.324-4.559 22.465 22.465 0 0 0 -30.559 27.967 16.66 16.66 0 0 0 .141 30.377z" fill="#55c98f"/><path d="m16.786 53.768 8.657 6.615a33.679 33.679 0 0 1 9.945-1.507l1.3-10.644v-6.975a2 2 0 0 0 -2-2h-4a2 2 0 0 0 -2 2v11.533l-7.04-5.379a2 2 0 0 0 -2.8.375l-2.428 3.178a2 2 0 0 0 .366 2.804z" fill="#ffa85d"/></svg>