<svg id="Layer_2" height="512" viewBox="0 0 128 128" width="512" xmlns="http://www.w3.org/2000/svg" data-name="Layer 2"><path d="m64 54.046a62.244 62.244 0 0 0 -61.448 72.2h122.9a62.244 62.244 0 0 0 -61.452-72.2z" fill="#23a8fe"/><path d="m112.75 43.339h-44.75v-28.083h44.75l-10.008 14.041z" fill="#ff656f"/><path d="m70.247 1.75h-12.494a3.5 3.5 0 0 0 -3.5 3.5 3.5 3.5 0 0 0 3.5 3.5h12.494a3.5 3.5 0 0 0 3.5-3.5 3.5 3.5 0 0 0 -3.5-3.5z" fill="#4f67d2"/><path d="m64 54.046c1.345 0 2.676.057 4 .141v-45.431h-8v45.431c1.324-.087 2.655-.141 4-.141z" fill="#dfebfa"/><g fill="#8affc7"><path d="m29.454 120.588-11.837 1.8-8.965-7.173-3.824.837-3.022-1.971c-.026.737-.056 1.474-.056 2.218a62.684 62.684 0 0 0 .8 9.954h31.331z"/><path d="m64 54.046a62.288 62.288 0 0 0 -16.2 2.143l.74 3.305 29.76 3.866 18.6 12.006-12.332 5.648-20.8-2.292-6.359-6.359-10.489 4.137-13.67 13.667v18.038l9.219 9.219h11.763l8.826 8.826h34.41v-5.924l9.558-9.558-2.106-11.868-13.049-8.436 12.494-5.491 10.022 5.351 8.556 5.959a62.261 62.261 0 0 0 -58.943-42.237z"/></g></svg>