<svg id="Layer_2" height="512" viewBox="0 0 128 128" width="512" xmlns="http://www.w3.org/2000/svg" data-name="Layer 2"><path d="m93.626 67.2-6.359-52.261a15 15 0 0 0 -14.89-13.189h-16.754a15 15 0 0 0 -14.89 13.189l-6.359 52.261a15 15 0 0 0 14.891 16.816h10.735v-12.427l-11.424-7.954a2 2 0 0 1 -.5-2.784l2.286-3.282a2 2 0 0 1 2.784-.5l6.854 4.772v-25.349a2 2 0 0 1 2-2h4a2 2 0 0 1 2 2v8.666l6.957-4.676a2 2 0 0 1 2.775.545l2.232 3.319a2 2 0 0 1 -.544 2.776l-11.42 7.678v29.216h10.735a15 15 0 0 0 14.891-16.816z" fill="#8affc7"/><path d="m116.506 38.347a22.486 22.486 0 0 0 -30.563-27.967 14.949 14.949 0 0 1 1.324 4.559l4.05 33.293v-6.975a2 2 0 0 1 2-2h4a2 2 0 0 1 2 2v11.533l7.04-5.379a2 2 0 0 1 2.8.375l2.428 3.178a2 2 0 0 1 -.375 2.8l-11.9 9.09v7.326h10.255a16.67 16.67 0 0 0 6.934-31.833z" fill="#55c98f"/><path d="m32.682 8.333a22.449 22.449 0 0 0 -21.188 30.014 16.67 16.67 0 0 0 6.934 31.833h10.255v-7.322l-11.9-9.09a2 2 0 0 1 -.375-2.8l2.428-3.178a2 2 0 0 1 2.8-.375l7.04 5.379v-11.537a2 2 0 0 1 2-2h4a2 2 0 0 1 2 2v6.975l4.05-33.293a14.949 14.949 0 0 1 1.324-4.559 22.4 22.4 0 0 0 -9.368-2.047z" fill="#55c98f"/><path d="m1.75 126.25v-3.125a4 4 0 0 1 4-4h4.625a4 4 0 0 0 4-4 4 4 0 0 1 4-4h10.75a4 4 0 0 1 4 4v.125a4 4 0 0 0 4 4h11.1a4 4 0 0 0 3.441-1.961l1.23-2.076a12.421 12.421 0 0 1 10.685-6.088h3.419a12.42 12.42 0 0 1 11.306 7.28 4 4 0 0 0 3.642 2.345h3.052a4 4 0 0 0 3.07-1.436l5.484-6.567a11.481 11.481 0 0 1 8.812-4.122 11.479 11.479 0 0 1 8.117 3.362l5.9 5.9a4 4 0 0 0 2.828 1.172h3.031a4 4 0 0 1 4 4v5.187z" fill="#8affc7"/><g fill="#ffa85d"><path d="m91.317 113.43 2.241-2.683a11.459 11.459 0 0 1 5.759-3.691v-44.2l11.9-9.09a2 2 0 0 0 .375-2.8l-2.428-3.178a2 2 0 0 0 -2.8-.375l-7.04 5.379v-11.535a2 2 0 0 0 -2-2h-4a2 2 0 0 0 -2 2v6.975l2.302 18.968a14.887 14.887 0 0 1 -2.309 9.944z"/><path d="m48.576 63.635 11.424 7.954v38.082a12.37 12.37 0 0 1 3.577-.546h3.423c.335 0 .667.016 1 .043v-54.368l11.42-7.676a2 2 0 0 0 .544-2.776l-2.232-3.319a2 2 0 0 0 -2.775-.545l-6.957 4.674v-8.666a2 2 0 0 0 -2-2h-4a2 2 0 0 0 -2 2v25.349l-6.853-4.771a2 2 0 0 0 -2.784.5l-2.286 3.282a2 2 0 0 0 .499 2.783z"/><path d="m16.786 53.768 11.9 9.09v48.267h.442a4 4 0 0 1 4 4v.125a3.986 3.986 0 0 0 3.558 3.955v-42.057a14.887 14.887 0 0 1 -2.312-9.948l2.309-18.972v-6.971a2 2 0 0 0 -2-2h-4a2 2 0 0 0 -2 2v11.533l-7.04-5.379a2 2 0 0 0 -2.8.375l-2.428 3.178a2 2 0 0 0 .371 2.804z"/></g></svg>