<svg id="Layer_2" height="512" viewBox="0 0 128 128" width="512" xmlns="http://www.w3.org/2000/svg" data-name="Layer 2"><path d="m90.975 90.243a25.389 25.389 0 0 0 -17.952-7.436h-18.046a25.389 25.389 0 0 0 -17.952 7.436 25.385 25.385 0 0 1 -17.952 7.436h-17.323v16.188h124.5v-16.188h-17.323a25.383 25.383 0 0 1 -17.952-7.436z" fill="#bc7c63"/><path d="m108.927 81.667a25.387 25.387 0 0 1 -17.952-7.436 25.385 25.385 0 0 0 -17.952-7.431h-18.046a25.385 25.385 0 0 0 -17.952 7.436 25.389 25.389 0 0 1 -17.952 7.436h-17.323v16.007h17.323a25.385 25.385 0 0 0 17.952-7.436 25.389 25.389 0 0 1 17.952-7.436h18.046a25.389 25.389 0 0 1 17.952 7.436 25.383 25.383 0 0 0 17.952 7.436h17.323v-16.012z" fill="#8affc7"/><path d="m1.75 114.078h124.5v12.172h-124.5z" fill="#23a8fe"/><g fill="#fee55a"><path d="m59.039 97.234a4.047 4.047 0 1 1 -4.047-4.046 4.047 4.047 0 0 1 4.047 4.046z"/><circle cx="73.008" cy="101.726" r="4.047"/><path d="m33 107.523h-3.125a1.75 1.75 0 0 1 0-3.5h3.125a1.75 1.75 0 0 1 0 3.5z"/><path d="m99 107.523h-3.125a1.75 1.75 0 0 1 0-3.5h3.125a1.75 1.75 0 0 1 0 3.5z"/></g><path d="m73.859 46.671h-19.718a8 8 0 0 1 -7.93-9.06l3.866-28.921a8 8 0 0 1 7.93-6.94h11.986a8 8 0 0 1 7.93 6.94l3.866 28.921a8 8 0 0 1 -7.93 9.06z" fill="#8affc7"/><path d="m60.27 46.671h7.461v20.124h-7.461z" fill="#bc7c63"/><path d="m118.243 60.126h-19.718a8 8 0 0 1 -7.93-9.06l3.866-28.921a8 8 0 0 1 7.93-6.94h11.986a8 8 0 0 1 7.93 6.94l3.866 28.921a8 8 0 0 1 -7.93 9.06z" fill="#8affc7"/><path d="m108.927 81.667h3.187v-21.541h-7.46v21.174a25.334 25.334 0 0 0 4.273.367z" fill="#bc7c63"/><path d="m9.756 60.126h19.719a8 8 0 0 0 7.93-9.06l-3.866-28.921a8 8 0 0 0 -7.93-6.94h-11.987a8 8 0 0 0 -7.929 6.94l-3.866 28.921a8 8 0 0 0 7.929 9.06z" fill="#8affc7"/><path d="m19.073 81.667h-3.187v-21.541h7.46v21.174a25.334 25.334 0 0 1 -4.273.367z" fill="#bc7c63"/></svg>