<svg id="Layer_2" height="512" viewBox="0 0 128 128" width="512" xmlns="http://www.w3.org/2000/svg" data-name="Layer 2"><path d="m64 54.046a62.244 62.244 0 0 0 -61.448 72.2h122.9a62.244 62.244 0 0 0 -61.452-72.2z" fill="#23a8fe"/><path d="m64 54.046a62.062 62.062 0 0 1 22.694 4.286 19.122 19.122 0 0 0 4.694-12.367c0-21.45-9.211-32.828-9.211-32.828l-5.379 8.4-12.668-19.787v10.981a19.612 19.612 0 0 1 -7.776 15.674 20.907 20.907 0 0 1 -10.533-17.086l-.521-9.569-7.658 30.271c-.757 2.992-3.2 16.7 3.834 26.244a62.065 62.065 0 0 1 22.524-4.219z" fill="#ff656f"/><path d="m64 54.046a62.306 62.306 0 0 1 15.878 2.054 13.377 13.377 0 0 0 .355-3.037 87.154 87.154 0 0 0 -1.419-16.044l-3.514 7.143-6.484-13.162a31.66 31.66 0 0 1 -6.792 10.149l-4.155 4.069-4.528-3.328a27.736 27.736 0 0 1 -4.541-4.217l-.371 1.909a45.3 45.3 0 0 0 .2 16.381 62.383 62.383 0 0 1 15.371-1.917z" fill="#fee55a"/><g fill="#8affc7"><path d="m29.454 120.588-11.836 1.8-8.966-7.173-3.824.837-3.022-1.971c-.026.737-.056 1.474-.056 2.218a62.567 62.567 0 0 0 .8 9.954h31.33z"/><path d="m64 54.046a62.288 62.288 0 0 0 -16.2 2.143l.74 3.305 29.76 3.866 18.6 12.006-12.332 5.648-20.8-2.292-6.358-6.359-10.49 4.137-13.67 13.667v18.038l9.22 9.219h11.762l8.826 8.826h34.41v-5.924l9.558-9.558-2.106-11.868-13.049-8.436 12.494-5.491 10.022 5.351 8.556 5.959a62.261 62.261 0 0 0 -58.943-42.237z"/></g></svg>