<svg id="Layer_2" height="512" viewBox="0 0 128 128" width="512" xmlns="http://www.w3.org/2000/svg" data-name="Layer 2"><rect fill="#4f67d2" height="75.333" rx="4" width="124.5" x="1.75" y="26.333"/><path d="m11.75 36.333h104.5v51.33h-104.5z" fill="#dfebfa"/><path d="m95.083 101.667h-62.166l10.008-14.004h42.15z" fill="#23a8fe"/><path d="m75.583 96.415h-23.166a1.75 1.75 0 1 1 0-3.5h23.166a1.75 1.75 0 0 1 0 3.5z" fill="#dfebfa"/><path d="m116.25 64.833h-36.327l-6.431-28.5h-18.984l-2.426 10.75h-40.332v10.5h37.963l-6.788 30.08h42.15l-2.782-12.33h33.957z" fill="#bc7c63"/><path d="m64 54.993-8.25 22.882 8.25-4.003 8.25 4.003z" fill="#fee55a"/></svg>