<svg id="Layer_2" height="512" viewBox="0 0 128 128" width="512" xmlns="http://www.w3.org/2000/svg" data-name="Layer 2"><path d="m120.458 13.333h-112.916a5.792 5.792 0 0 1 -5.792-5.791 5.792 5.792 0 0 1 5.792-5.792h112.916a5.792 5.792 0 0 1 5.792 5.792 5.792 5.792 0 0 1 -5.792 5.791z" fill="#fee55a"/><path d="m13.125 13.333h101.75v90.109h-101.75z" fill="#4f67d2"/><path d="m23.125 23.333h81.75v70.109h-81.75z" fill="#23a8fe"/><path d="m104.875 46.081-8.179 3.296-18.719-2.063-7.391-7.392-12.195 4.805-15.891 15.891v20.968l11.856 11.856h50.519z" fill="#8affc7"/><path d="m81.312 68.619a7.625 7.625 0 1 0 -11.312 6.671 36.284 36.284 0 0 0 3.689 8.142 36.265 36.265 0 0 0 3.69-8.142 7.619 7.619 0 0 0 3.933-6.671z" fill="#4f67d2"/><path d="m74.656 70.369h-1.937a1.75 1.75 0 0 1 0-3.5h1.937a1.75 1.75 0 0 1 0 3.5z" fill="#fee55a"/><path d="m23.125 47.106h10.776l5.748-4.963v-7.446l13.323-2.743v-8.621h-29.847z" fill="#8affc7"/><path d="m59.875 103.442h8.25v15.474h-8.25z" fill="#dfebfa"/><path d="m72.875 126.25h-17.75a3.667 3.667 0 0 1 -3.667-3.667 3.666 3.666 0 0 1 3.667-3.666h17.75a3.666 3.666 0 0 1 3.667 3.666 3.667 3.667 0 0 1 -3.667 3.667z" fill="#4f67d2"/></svg>