<svg id="Layer_2" height="512" viewBox="0 0 128 128" width="512" xmlns="http://www.w3.org/2000/svg" data-name="Layer 2"><path d="m126.25 101.25c-5.191 0-5.191 2-10.382 2s-5.191-2-10.381-2-5.188 2-10.375 2-5.189-2-10.378-2-5.187 2-10.374 2-5.186-2-10.371-2-5.186 2-10.372 2-5.187-2-10.374-2-5.187 2-10.373 2-5.187-2-10.375-2-5.186 2-10.373 2-5.186-2-10.372-2v25h124.5z" fill="#23a8fe"/><path d="m115.868 90.75c-5.191 0-5.191-2-10.381-2s-5.188 2-10.375 2-5.189-2-10.378-2-5.187 2-10.374 2-5.186-2-10.371-2-5.186 2-10.372 2-5.187-2-10.374-2-5.187 2-10.373 2-5.187-2-10.375-2-5.186 2-10.373 2-5.186-2-10.372-2v12.5c5.186 0 5.186 2 10.372 2s5.187-2 10.373-2 5.188 2 10.375 2 5.186-2 10.373-2 5.187 2 10.374 2 5.186-2 10.372-2 5.185 2 10.371 2 5.187-2 10.374-2 5.189 2 10.378 2 5.187-2 10.375-2 5.19 2 10.381 2 5.191-2 10.382-2v-12.5c-5.191 0-5.191 2-10.382 2z" fill="#4f67d2"/><path d="m115.868 78.251c-5.191 0-5.191-2-10.381-2s-5.188 2-10.375 2-5.189-2-10.378-2-5.187 2-10.374 2-5.186-2-10.371-2-5.186 2-10.372 2-5.187-2-10.374-2-5.187 2-10.373 2-5.187-2-10.375-2-5.186 2-10.373 2-5.186-2-10.372-2v12.5c5.186 0 5.186 2 10.372 2s5.187-2 10.373-2 5.188 2 10.375 2 5.186-2 10.373-2 5.187 2 10.374 2 5.186-2 10.372-2 5.185 2 10.371 2 5.187-2 10.374-2 5.189 2 10.378 2 5.187-2 10.375-2 5.19 2 10.381 2 5.191-2 10.382-2v-12.5c-5.191 0-5.191 2-10.382 2z" fill="#23a8fe"/><path d="m45.735 49.75 26.89-23.125-12.417-24.875-13.336 31.9h-8.688l-7.7 21.707h-12.942l-8.663 22.543a13.1 13.1 0 0 0 3.243.356c5.187 0 5.187-2 10.373-2s5.188 2 10.375 2 5.186-2 10.373-2 5.187 2 10.374 2c4.812 0 5.166-1.72 9.333-1.968l8.717-17.116z" fill="#cadbef"/><path d="m108.612 58.538-10.16-10.16-8.577-4-14.766-32.62-14.901-10.008 12.417 24.875-26.89 23.125 25.932 9.417-8.717 17.116c.324-.02.664-.032 1.039-.032 5.185 0 5.185 2 10.371 2s5.187-2 10.374-2 5.189 2 10.378 2 5.187-2 10.375-2 5.19 2 10.381 2a12.17 12.17 0 0 0 4.257-.655l-2-17.468z" fill="#dfebfa"/></svg>