<svg id="Layer_2" height="512" viewBox="0 0 128 128" width="512" xmlns="http://www.w3.org/2000/svg" data-name="Layer 2"><path d="m118.25 105.25h-108.5a8 8 0 0 1 -8-8v-7.75h124.5v7.75a8 8 0 0 1 -8 8z" fill="#23a8fe"/><path d="m16.128 22.75h95.75a5 5 0 0 1 5 5v61.75a0 0 0 0 1 0 0h-105.75a0 0 0 0 1 0 0v-61.75a5 5 0 0 1 5-5z" fill="#4f67d2"/><path d="m21.128 32.75h85.75v46.75h-85.75z" fill="#23a8fe"/><path d="m41.753 89.5h44.5a0 0 0 0 1 0 0v2.875a5 5 0 0 1 -5 5h-34.5a5 5 0 0 1 -5-5v-2.875a0 0 0 0 1 0 0z" fill="#fee55a"/><path d="m106.878 44.124-6.109 2.461-13.982-1.541-5.521-5.521-9.109 3.589-11.87 11.87v15.662l8.856 8.856h37.735z" fill="#8affc7"/><path d="m21.128 57.941h11.419l6.09-5.26v-7.889l14.117-2.907v-9.135h-31.626z" fill="#8affc7"/><path d="m89.914 57.941a7.625 7.625 0 1 0 -11.314 6.671 36.272 36.272 0 0 0 3.69 8.141 36.272 36.272 0 0 0 3.69-8.141 7.621 7.621 0 0 0 3.934-6.671z" fill="#4f67d2"/><path d="m83.258 59.69h-1.938a1.75 1.75 0 0 1 0-3.5h1.938a1.75 1.75 0 0 1 0 3.5z" fill="#fee55a"/></svg>