<svg id="Layer_2" height="512" viewBox="0 0 128 128" width="512" xmlns="http://www.w3.org/2000/svg" data-name="Layer 2"><path d="m64 1.75a62.25 62.25 0 1 0 62.25 62.25h-62.25z" fill="#23a8fe"/><path d="m49.722 3.414a62.087 62.087 0 0 0 -27.7 14.624l1.9-.949h12.126z" fill="#8affc7"/><path d="m64 64v-18.109h-.837l-4.52-4.519c-.046.027-10.6-3.129-10.6-3.129h-5.759l-3.708 3.427-6.318-1.153-3.514-7.435-11.714-4-.7-5.093a62.517 62.517 0 0 0 -5.51 7.641l4.143 2.547 8.015 3.156 3.833 8.5 9.889 2.229-4.445 12.2 6.615 12.507 7.548 4.031-3.41 29.871 1.963 5.788h3.2l3.618-10.13 11.938-5.633 8.114-8.113v-4.035l11.834-7.442v-6.15l5.427-5.426v-1.53z" fill="#8affc7"/><path d="m64 1.75v21.841a40.456 40.456 0 0 1 40.409 40.409h21.841a62.25 62.25 0 0 0 -62.25-62.25z" fill="#bc7c63"/><path d="m64 23.591v15a25.409 25.409 0 0 1 25.409 25.409h15a40.456 40.456 0 0 0 -40.409-40.409z" fill="#fee55a"/><path d="m89.409 64a25.409 25.409 0 0 0 -25.409-25.409v25.409z" fill="#ff656f"/></svg>