<svg id="Layer_2" height="512" viewBox="0 0 128 128" width="512" xmlns="http://www.w3.org/2000/svg" data-name="Layer 2"><circle cx="46.292" cy="46.292" fill="#4f67d2" r="44.542"/><path d="m123.938 123.938a7.9 7.9 0 0 1 -11.165 0l-25.865-25.866 11.164-11.164 25.866 25.865a7.9 7.9 0 0 1 0 11.165z" fill="#fee55a"/><circle cx="46.292" cy="46.292" fill="#23a8fe" r="35" transform="matrix(.16 -.987 .987 .16 -6.817 84.57)"/><path d="m20.213 49.715-5.04-4.033-2.151.471-1.7-1.109c-.014.415-.031.829-.031 1.248a34.835 34.835 0 0 0 7.137 21.174l3.872-4.915 8.6-1.007.066-7.6-4.1-5.242z" fill="#8affc7"/><path d="m74.622 31.689 4.811 3.351a35 35 0 0 0 -42.251-22.54l.416 1.858 15.735 4.172 11.455 4.749-6.932 3.175-11.694-1.288-3.575-3.575-5.9 2.324-7.687 7.685v10.143l5.183 5.183h6.617l7.775 7.774v9.92l5.765 5.765 7.373-7.373v-4.29l3.4-3.4v-6.77l5.374-5.373-1.187-6.668-7.337-4.743 7.025-3.087z" fill="#8affc7"/><path d="m77.787 77.787a44.927 44.927 0 0 1 -3.468 3.125l14.875 14.875 6.593-6.593-14.875-14.875a44.927 44.927 0 0 1 -3.125 3.468z" fill="#dfebfa"/></svg>