<svg id="Layer_2" height="512" viewBox="0 0 128 128" width="512" xmlns="http://www.w3.org/2000/svg" data-name="Layer 2"><path d="m116 12.625h-10.25v82.25h10.25a10.25 10.25 0 0 1 10.25 10.25v-82.25a10.25 10.25 0 0 0 -10.25-10.25z" fill="#4f67d2"/><path d="m116 94.875h-10.25v-60.5h-104v81h114.25a10.25 10.25 0 0 0 0-20.5z" fill="#23a8fe"/><path d="m116 94.875h-10.25v-50.5h-94v61h104.5v-10.487c-.084-.002-.166-.013-.25-.013z" fill="#dfebfa"/><g fill="#55c98f"><path d="m11.75 44.375v6.083l4.292 4.292 1.958 5.5 5.26-.254 8.073 5.046-.916 5.333 3.25 5.417h1.833l-1.083 8.25 1.666 12h3.73l1.605-9.75 4.917-6.25 10.671-1.249.082-9.42-5.082-6.501-8.254 1.252-6.25-5.001-2.667.584-5.748-3.75-.918-2.249 6.418-.834 2.496-8.499z"/><path d="m105.75 55.428v-11.053h-13.339l4.654 4.654v5.352l-7.865 2.957h-7.54l-2.96-2.957-4.877 1.919-6.357 6.358v6.061l4.287 4.288h5.471l6.431 6.431v8.2l4.768 4.768 6.1-6.1v-3.539l2.809-2.809v-5.6l4.445-4.445-6.517-6.513 6.692-2.037.872.872a6.54 6.54 0 0 0 2.926 1.692z"/></g></svg>