<svg id="Layer_2" height="512" viewBox="0 0 128 128" width="512" xmlns="http://www.w3.org/2000/svg" data-name="Layer 2"><path d="m117.129 87.014.891 6.64a7 7 0 0 1 -6.937 7.931h-2.247a7 7 0 0 1 -6.937-7.931l1.124-8.371a6.979 6.979 0 0 1 2.362-4.364l-35.13-18.234-9.255 11.23-10-7.615-6.333 6.781-4-4.584-5-2.2-8 7.614-9.33-6.891-16.587 16.728v21.592l2.64-1.855a44.889 44.889 0 0 1 41.984-5.133l1.829.707a192.28 192.28 0 0 0 69.342 12.941h8.7v-20.252z" fill="#23a8fe"/><path d="m114.638 60.948-1.555 2.967-8.455-1.5-5.545 4.833-5-3.25-8.333.917-4.975-2.45-4.513 3.335 29.123 15.116a7 7 0 0 1 11.515 4.367l.232 1.731 9.121 4.734v-23.548z" fill="#4f67d2"/><path d="m96.875 112.633a1.749 1.749 0 0 1 -1.75-1.75v-9.3a1.75 1.75 0 1 1 3.5 0v9.3a1.749 1.749 0 0 1 -1.75 1.75z" fill="#fee55a"/><path d="m109.96 112.633a1.749 1.749 0 0 1 -1.75-1.75v-9.3a1.75 1.75 0 0 1 3.5 0v9.3a1.749 1.749 0 0 1 -1.75 1.75z" fill="#fee55a"/><path d="m126.25 112h-8.7a192.28 192.28 0 0 1 -69.35-12.941l-1.829-.707a44.891 44.891 0 0 0 -16.187-3.02 44.889 44.889 0 0 0 -25.8 8.153l-2.634 1.855v18.992h124.5z" fill="#8affc7"/><path d="m111.083 101.585h-2.247a7 7 0 0 1 -6.937-7.931l1.124-8.371a7 7 0 0 1 6.937-6.068 7 7 0 0 1 6.937 6.068l1.123 8.371a7 7 0 0 1 -6.937 7.931z" fill="#8affc7"/><path d="m101.9 93.654 1.124-8.371a7.009 7.009 0 0 1 .394-1.539 6.995 6.995 0 0 0 -13.479 1.539l-1.124 8.371a7 7 0 0 0 6.937 7.931h2.248a6.962 6.962 0 0 0 5.417-2.585 6.959 6.959 0 0 1 -1.517-5.346z" fill="#55c98f"/><path d="m35.667 66.301 5 2.197 4 4.584 6.333-6.781 10 7.614 9.255-11.23-20.146-10.457h-7.458l-7.189-2.472-17.125 17.268 9.33 6.891z" fill="#dfebfa"/><path d="m94.083 63.998 5 3.25 5.545-4.833 8.455 1.5 1.555-2.967-12.596-7.866-7.212 3.141-3.169-1.808-10.886 8.05 4.975 2.45z" fill="#dfebfa"/><g fill="#fee55a"><circle cx="68.437" cy="27.731" r="11.062"/><path d="m68.437 10.113a1.751 1.751 0 0 1 -1.75-1.75v-4.695a1.75 1.75 0 0 1 3.5 0v4.695a1.75 1.75 0 0 1 -1.75 1.75z"/><path d="m68.437 53.543a1.75 1.75 0 0 1 -1.75-1.75v-4.693a1.75 1.75 0 0 1 3.5 0v4.694a1.749 1.749 0 0 1 -1.75 1.749z"/><path d="m82.133 15.786a1.751 1.751 0 0 1 -1.233-2.986l3.319-3.319a1.75 1.75 0 0 1 2.474 2.475l-3.323 3.317a1.743 1.743 0 0 1 -1.237.513z"/><path d="m51.423 46.5a1.751 1.751 0 0 1 -1.237-2.988l3.319-3.319a1.75 1.75 0 0 1 2.474 2.475l-3.319 3.315a1.743 1.743 0 0 1 -1.237.517z"/><path d="m92.5 29.481h-4.694a1.75 1.75 0 0 1 0-3.5h4.694a1.75 1.75 0 0 1 0 3.5z"/><path d="m49.069 29.481h-4.694a1.75 1.75 0 0 1 0-3.5h4.694a1.75 1.75 0 0 1 0 3.5z"/><path d="m85.452 46.5a1.743 1.743 0 0 1 -1.237-.513l-3.315-3.323a1.75 1.75 0 0 1 2.474-2.475l3.319 3.319a1.751 1.751 0 0 1 -1.241 2.992z"/><path d="m54.742 15.786a1.743 1.743 0 0 1 -1.237-.513l-3.319-3.319a1.75 1.75 0 0 1 2.474-2.475l3.319 3.321a1.751 1.751 0 0 1 -1.237 2.988z"/></g></svg>