<svg id="Layer_2" height="512" viewBox="0 0 128 128" width="512" xmlns="http://www.w3.org/2000/svg" data-name="Layer 2"><circle cx="64" cy="64" fill="#4f67d2" r="17.5"/><circle cx="64" cy="64" fill="#fee55a" r="7.5"/><g fill="#23a8fe"><path d="m46.5 64a17.392 17.392 0 0 1 2.512-9h-23.887v-13.625l-23.375 22.625 23.375 22.625v-13.625h23.887a17.392 17.392 0 0 1 -2.512-9z"/><path d="m55 49.012a17.379 17.379 0 0 1 18 0v-23.887h13.625l-22.625-23.375-22.625 23.375h13.625z"/><path d="m126.25 64-23.375-22.625v13.625h-23.887a17.379 17.379 0 0 1 0 18h23.887v13.625z"/><path d="m73 78.988a17.379 17.379 0 0 1 -18 0v23.887h-13.625l22.625 23.375 22.625-23.375h-13.625z"/></g></svg>