<svg id="Layer_2" height="512" viewBox="0 0 128 128" width="512" xmlns="http://www.w3.org/2000/svg" data-name="Layer 2"><path d="m116 84h-10.25v-60.5h-104v69.063a33.687 33.687 0 1 1 65.189 11.937h49.061a10.25 10.25 0 0 0 0-20.5z" fill="#23a8fe"/><path d="m116 84h-10.25v-50.5h-94v35.115a33.683 33.683 0 0 1 57.373 23.948c0 .65-.023 1.3-.059 1.938h47.186v-10.488c-.084-.002-.166-.013-.25-.013z" fill="#dfebfa"/><path d="m116 1.751h-10.25v82.249h10.25a10.25 10.25 0 0 1 10.25 10.25v-82.25a10.25 10.25 0 0 0 -10.25-10.249z" fill="#4f67d2"/><path d="m105.75 44.554v-11.054h-13.339l4.654 4.654v5.352l-7.865 2.958h-7.54l-2.96-2.957-4.879 1.922-6.357 6.357v6.062l4.287 4.288h5.471l6.431 6.431v8.205l4.768 4.768 6.1-6.1v-3.547l2.809-2.809v-5.6l4.445-4.445-6.515-6.514 6.692-2.037.872.873a6.54 6.54 0 0 0 2.926 1.692z" fill="#55c98f"/><circle cx="35.437" cy="92.563" fill="#4f67d2" r="33.687" transform="matrix(.429 -.903 .903 .429 -63.375 84.826)"/><path d="m57.82 96.45h3.44a26.051 26.051 0 0 1 -6.17 13.29 28.9 28.9 0 0 1 -2.48 2.47 25.965 25.965 0 0 1 -13.29 6.17v-3.43a2.277 2.277 0 0 0 -2.27-2.28h-3.22a2.279 2.279 0 0 0 -2.28 2.28v3.43a25.891 25.891 0 0 1 -13.29-6.17 26.175 26.175 0 0 1 -2.47-2.47 25.891 25.891 0 0 1 -6.17-13.29h3.43a2.27 2.27 0 0 0 2.27-2.28v-3.22a2.268 2.268 0 0 0 -2.27-2.27h-3.43a25.928 25.928 0 0 1 6.17-13.29 26.281 26.281 0 0 1 2.47-2.48 25.971 25.971 0 0 1 13.29-6.17v3.44a2.277 2.277 0 0 0 2.28 2.27h3.22a2.275 2.275 0 0 0 2.27-2.27v-3.44a25.985 25.985 0 0 1 13.28 6.18 26.377 26.377 0 0 1 2.49 2.47 26.089 26.089 0 0 1 6.17 13.29h-3.44a2.275 2.275 0 0 0 -2.27 2.27v3.22a2.277 2.277 0 0 0 2.27 2.28z" fill="#dfebfa"/><path d="m30.391 87.517 10.091 10.091 6.494-16.585z" fill="#ff656f"/><path d="m23.897 104.102 16.585-6.494-10.091-10.091z" fill="#23a8fe"/><g fill="#cadbef"><path d="m55.09 75.39-2.59 2.58a1.747 1.747 0 0 1 -2.47-2.47l2.57-2.58a26.377 26.377 0 0 1 2.49 2.47z"/><path d="m20.84 109.63-2.58 2.58a26.175 26.175 0 0 1 -2.47-2.47l2.58-2.58a1.747 1.747 0 0 1 2.47 2.47z"/><path d="m55.09 109.74a28.9 28.9 0 0 1 -2.48 2.47l-2.58-2.58a1.75 1.75 0 0 1 0-2.47 1.732 1.732 0 0 1 2.47 0z"/><path d="m20.84 77.97a1.75 1.75 0 0 1 -2.47 0l-2.58-2.58a26.281 26.281 0 0 1 2.47-2.48l2.58 2.59a1.732 1.732 0 0 1 0 2.47z"/></g><path d="m18 49.376 5.26-.254 8.073 5.046-.872 5.076a34.015 34.015 0 0 1 4.976-.368 33.548 33.548 0 0 1 21.58 7.824l.071-8.2-5.082-6.5-8.254 1.25-6.25-5-2.667.584-5.749-3.75-.917-2.25 6.418-.834 2.5-8.5h-25.337v6.083l4.292 4.292z" fill="#55c98f"/></svg>