<svg id="Layer_2" height="512" viewBox="0 0 128 128" width="512" xmlns="http://www.w3.org/2000/svg" data-name="Layer 2"><path d="m87.01 24.76a23.01 23.01 0 1 0 -34.16 20.123c3.264 11.972 11.15 24.578 11.15 24.578s7.886-12.606 11.15-24.578a23 23 0 0 0 11.86-20.123z" fill="#4f67d2"/><path d="m64 34.494a9.734 9.734 0 1 1 9.735-9.734 9.745 9.745 0 0 1 -9.735 9.734z" fill="#fee55a"/><path d="m71.706 54.538a122.549 122.549 0 0 1 -7.706 14.923 122.549 122.549 0 0 1 -7.706-14.923 62.23 62.23 0 0 0 -53.742 71.712h122.9a62.23 62.23 0 0 0 -53.746-71.712z" fill="#23a8fe"/><g fill="#8affc7"><path d="m29.454 120.588-11.837 1.8-8.965-7.173-3.824.837-3.022-1.971c-.026.737-.056 1.474-.056 2.218a62.684 62.684 0 0 0 .8 9.954h31.331z"/><path d="m59.256 60.886c-.97-1.928-1.992-4.082-2.965-6.355a62.335 62.335 0 0 0 -8.491 1.658l.74 3.305z"/><path d="m114.387 90.324 8.556 5.959a62.3 62.3 0 0 0 -51.23-41.761c-1.175 2.744-2.419 5.311-3.559 7.52l10.146 1.318 18.6 12.006-12.332 5.648-20.8-2.292-6.359-6.359-10.489 4.137-13.67 13.667v18.038l9.219 9.219h11.763l8.826 8.826h34.41v-5.924l9.558-9.558-2.106-11.868-13.049-8.436 12.494-5.491z"/></g></svg>