<svg id="Layer_2" height="512" viewBox="0 0 128 128" width="512" xmlns="http://www.w3.org/2000/svg" data-name="Layer 2"><path d="m99.963 37.713a35.964 35.964 0 1 0 -53.389 31.451c5.101 18.711 17.426 38.413 17.426 38.413s12.325-19.7 17.426-38.413a35.941 35.941 0 0 0 18.537-31.451z" fill="#ff656f"/><path d="m70.907 95.176c-3.766 7.378-6.907 12.4-6.907 12.4s-3.141-5.023-6.907-12.4c-22.128 1.132-39.093 7.617-39.093 15.449 0 8.629 20.6 15.625 46 15.625s46-7 46-15.625c0-7.832-16.965-14.317-39.093-15.449z" fill="#4f67d2"/><path d="m64 52.927a15.214 15.214 0 1 1 15.213-15.213 15.231 15.231 0 0 1 -15.213 15.213z" fill="#fee55a"/></svg>