<svg id="Layer_2" height="512" viewBox="0 0 128 128" width="512" xmlns="http://www.w3.org/2000/svg" data-name="Layer 2"><path d="m115.108 28.478a10.476 10.476 0 0 1 -2.843 5.269l-7.538 7.181 2.032 27.42-4.753 4.752-5.3-24.532-8.632 8.223 3.078 18.174-3.8 3.8-5.467-16.058-52.864 52.793a62.243 62.243 0 0 0 86.087-87.017z" fill="#23a8fe"/><path d="m64 1.75a62.255 62.255 0 0 0 -51.564 97.131c.71 1.047 1.458 2.066 2.231 3.065q.165.212.332.421c.766.973 1.553 1.927 2.372 2.853a62.665 62.665 0 0 0 5.319 5.331l53.551-53.474-16.034-5.463 3.8-3.8 18.171 3.086 8.222-8.636-24.532-5.3 4.754-4.754 27.419 2.032 7.181-7.538a10.485 10.485 0 0 1 5.925-2.964l.279-.04a62.1 62.1 0 0 0 -47.426-21.95z" fill="#23a8fe"/><path d="m74.524 65.93-1.484-1.483a24.371 24.371 0 0 1 5.817-10.065l26.366-27.677a10.485 10.485 0 0 1 5.925-2.964l1.994-.286a2.1 2.1 0 0 1 1.781.593 2.1 2.1 0 0 1 .593 1.78l-.286 1.994a10.481 10.481 0 0 1 -2.965 5.925l-27.677 26.367a24.359 24.359 0 0 1 -10.064 5.816z" fill="#4f67d2"/><g fill="#bc7c63"><path d="m78.857 54.382 3.343-3.482-18.2-3.083-3.8 3.8 16.349 5.571a24.326 24.326 0 0 1 2.308-2.806z"/><path d="m88.071 56.771-3.483 3.343a24.42 24.42 0 0 1 -2.8 2.3l5.571 16.348 3.8-3.8z"/><path d="m97.991 34.239-27.368-2.028-4.754 4.754 24.439 5.279z"/><path d="m104.731 40.979-8.004 7.684 5.279 24.438 4.753-4.753z"/></g><path d="m17.617 70.089-8.965-7.173-3.824.837-3.022-1.971c-.026.738-.056 1.474-.056 2.218a61.969 61.969 0 0 0 12.693 37.661l6.878-8.743 15.3-1.791.118-13.511-7.29-9.324z" fill="#8affc7"/><path d="m115.106 28.492a10.477 10.477 0 0 1 -2.841 5.255l-2.117 2.018 4.239 2.264 8.556 5.959a62.065 62.065 0 0 0 -7.837-15.496z" fill="#8affc7"/><path d="m81.786 62.4a24.266 24.266 0 0 1 -7.237 3.5l-1.478-1.479a24.275 24.275 0 0 1 3.5-7.237l-.328-.111-60.1 60.016a3.762 3.762 0 0 1 -5.318-5.322l6.547-6.547a62.46 62.46 0 0 1 -4.935-6.339l-7.25 7.249a11.735 11.735 0 0 0 0 16.6 11.75 11.75 0 0 0 16.588 0l60.115-60.03z" fill="#fee55a"/><path d="m88.075 56.792 3.078 18.174-3.796 3.797-5.472-16.056-15.048 15.027 1.224 1.224v17.644l10.253 10.253 13.114-13.114v-7.63l6.04-6.04v-12.041l2.831-2.831-3.572-16.536z" fill="#8affc7"/><path d="m64 1.75a62.288 62.288 0 0 0 -16.2 2.143l.74 3.305 29.76 3.866 18.6 12.006-12.332 5.648-20.8-2.292-6.359-6.359-10.489 4.133-13.67 13.671v18.038l9.219 9.22h11.763l6.968 6.971 15.041-15.02-16.034-5.466 3.8-3.8 18.171 3.086 8.13-8.652-24.439-5.283 4.754-4.754 27.368 2.028 7.232-7.534a10.485 10.485 0 0 1 5.925-2.964l.271-.039a62.067 62.067 0 0 0 -47.419-21.952z" fill="#8affc7"/></svg>