<svg id="Layer_2" height="512" viewBox="0 0 128 128" width="512" xmlns="http://www.w3.org/2000/svg" data-name="Layer 2"><path d="m126.25 104.75h-1.5a11.655 11.655 0 0 1 -6.089-1.717 11.644 11.644 0 0 0 -6.089-1.718h-3.765a11.644 11.644 0 0 0 -6.089 1.718 11.655 11.655 0 0 1 -6.089 1.717h-3a11.655 11.655 0 0 1 -6.089-1.717 11.644 11.644 0 0 0 -6.089-1.718h-3.771a11.644 11.644 0 0 0 -6.089 1.718 11.655 11.655 0 0 1 -6.091 1.717h-3a11.655 11.655 0 0 1 -6.089-1.717 11.644 11.644 0 0 0 -6.089-1.718h-3.767a11.644 11.644 0 0 0 -6.089 1.718 11.655 11.655 0 0 1 -6.089 1.717h-3a11.655 11.655 0 0 1 -6.089-1.717 11.644 11.644 0 0 0 -6.089-1.718h-3.769a11.644 11.644 0 0 0 -6.089 1.718 11.655 11.655 0 0 1 -6.089 1.717h-1.502v17.375h124.5z" fill="#bc7c63"/><g fill="#55c98f"><path d="m69.175 50.793c-.326.326-.632.663-.925 1.008v15.222a22.778 22.778 0 0 0 11.441-5.713c6.409-6.41 6.354-16.87 6.354-16.87s-10.457-.06-16.87 6.353z"/><path d="m59.75 51.8c-.293-.345-.6-.682-.925-1.008-6.413-6.413-16.87-6.353-16.87-6.353s-.055 10.461 6.354 16.871a22.778 22.778 0 0 0 11.441 5.713z"/><path d="m59.75 80.238c-.293-.344-.6-.682-.925-1.007-6.413-6.413-16.87-6.354-16.87-6.354s-.059 10.457 6.354 16.87a22.762 22.762 0 0 0 11.441 5.713z"/><path d="m69.175 79.231c-.326.325-.632.663-.925 1.007v15.222a22.762 22.762 0 0 0 11.441-5.713c6.413-6.413 6.354-16.87 6.354-16.87s-10.457-.059-16.87 6.354z"/><path d="m113.91 58.726c-.238.238-.462.485-.676.737v11.137a16.657 16.657 0 0 0 8.369-4.179c4.69-4.691 4.647-12.34 4.647-12.34s-7.65-.046-12.34 4.645z"/><path d="m107.016 59.463c-.214-.252-.438-.5-.676-.737-4.691-4.691-12.34-4.648-12.34-4.648s-.043 7.649 4.647 12.34a16.653 16.653 0 0 0 8.369 4.179z"/><path d="m107.016 80.264c-.214-.252-.438-.5-.676-.737-4.691-4.691-12.34-4.647-12.34-4.647s-.043 7.648 4.647 12.339a16.653 16.653 0 0 0 8.369 4.179z"/><path d="m113.91 79.527c-.238.238-.462.485-.676.737v11.136a16.657 16.657 0 0 0 8.369-4.179c4.69-4.691 4.647-12.339 4.647-12.339s-7.65-.046-12.34 4.645z"/></g><path d="m59.75 104.4a11.634 11.634 0 0 0 2.748.351h3a11.582 11.582 0 0 0 2.748-.351v-64.214c2.335-3.624 4.754-8.743 4.754-14.436 0-10.977-9-19.875-9-19.875s-9 8.9-9 19.875c0 5.693 2.419 10.812 4.75 14.436z" fill="#8affc7"/><path d="m107.016 101.465a11.62 11.62 0 0 1 1.789-.15h3.765c.223 0 .442.033.664.046v-50.394a20.017 20.017 0 0 0 3.474-10.559c0-8.03-6.583-14.538-6.583-14.538s-6.583 6.508-6.583 14.538a20.009 20.009 0 0 0 3.474 10.559z" fill="#8affc7"/><path d="m14.09 58.726c.238.238.462.485.676.737v11.137a16.653 16.653 0 0 1 -8.366-4.182c-4.69-4.691-4.647-12.34-4.647-12.34s7.647-.043 12.337 4.648z" fill="#55c98f"/><path d="m20.984 59.463c.214-.252.438-.5.676-.737 4.691-4.691 12.34-4.648 12.34-4.648s.043 7.649-4.647 12.34a16.657 16.657 0 0 1 -8.369 4.182z" fill="#55c98f"/><path d="m20.984 80.264c.214-.252.438-.5.676-.737 4.691-4.691 12.34-4.647 12.34-4.647s.043 7.648-4.647 12.339a16.657 16.657 0 0 1 -8.369 4.181z" fill="#55c98f"/><path d="m14.09 79.527c.238.238.462.485.676.737v11.136a16.653 16.653 0 0 1 -8.366-4.181c-4.693-4.691-4.65-12.339-4.65-12.339s7.65-.044 12.34 4.647z" fill="#55c98f"/><path d="m20.984 101.465a11.62 11.62 0 0 0 -1.789-.15h-3.765c-.223 0-.442.033-.664.046v-50.394a20.009 20.009 0 0 1 -3.474-10.559c0-8.03 6.583-14.538 6.583-14.538s6.583 6.508 6.583 14.538a20.017 20.017 0 0 1 -3.474 10.559z" fill="#8affc7"/></svg>