<?xml version="1.0"?>
<svg xmlns="http://www.w3.org/2000/svg" id="Layer_2" data-name="Layer 2" viewBox="0 0 128 128" width="512" height="512"><circle cx="85.92" cy="42.08" r="6" style="fill:#fee55a"/><circle cx="27.937" cy="100.062" r="6" style="fill:#fee55a"/><path d="M118.839,60A55.065,55.065,0,0,0,68,9.161V1.75H60V9.161A55.064,55.064,0,0,0,9.161,60H1.75v8H9.161A54.749,54.749,0,0,0,21.974,99.415a6,6,0,0,1,5.946-5.352A46.774,46.774,0,0,1,17.182,68H29.235A35.058,35.058,0,0,0,60,98.765v12.053A46.774,46.774,0,0,1,33.937,100.08a6,6,0,0,1-5.352,5.946A54.749,54.749,0,0,0,60,118.839v7.411h8v-7.411A55.065,55.065,0,0,0,118.839,68h7.411V60ZM60,90.7A27.06,27.06,0,0,1,37.3,68H53.764A11.043,11.043,0,0,0,60,74.236Zm0-36.938A11.043,11.043,0,0,0,53.764,60H37.3A27.06,27.06,0,0,1,60,37.3Zm0-24.529A35.058,35.058,0,0,0,29.235,60H17.182A47.061,47.061,0,0,1,60,17.182Zm8,45A11.046,11.046,0,0,0,74.236,68H90.7A27.06,27.06,0,0,1,68,90.7Zm0,36.582V98.765A35.059,35.059,0,0,0,98.765,68h12.053A47.061,47.061,0,0,1,68,110.818ZM98.765,60a34.816,34.816,0,0,0-6.918-17.158,5.928,5.928,0,0,1-6.069,5.224A26.871,26.871,0,0,1,90.7,60H74.236A11.046,11.046,0,0,0,68,53.764V37.3a26.871,26.871,0,0,1,11.934,4.924,5.928,5.928,0,0,1,5.223-6.069A34.809,34.809,0,0,0,68,29.235V17.182A47.061,47.061,0,0,1,110.818,60Z" style="fill:#4f67d2"/></svg>
