<svg id="Layer_2" height="512" viewBox="0 0 128 128" width="512" xmlns="http://www.w3.org/2000/svg" data-name="Layer 2"><path d="m88.737 49.34h-59.482v-28.334h59.482l20.016 14.167z" fill="#bc7c63"/><path d="m108.753 126.25h-89.506v-5.15a4 4 0 0 1 4-4h81.506a4 4 0 0 1 4 4z" fill="#4f67d2"/><path d="m98.745 94.34h-59.482l-20.016-14.167 20.016-14.167h59.482z" fill="#bc7c63"/><path d="m57.333 49.34h13.333v16.667h-13.333z" fill="#ffa85d"/><path d="m57.333 9.756h13.333v11.25h-13.333z" fill="#ffa85d"/><path d="m57.333 94.34h13.333v22.755h-13.333z" fill="#ffa85d"/><path d="m73.122 9.756h-18.244a4 4 0 0 1 -4-4 4 4 0 0 1 4-4h18.244a4 4 0 0 1 4 4 4 4 0 0 1 -4 4z" fill="#4f67d2"/><g fill="#fee55a"><path d="m37.333 31.965h23.625a1.75 1.75 0 0 0 0-3.5h-23.625a1.75 1.75 0 0 0 0 3.5z"/><path d="m86.333 40.131a1.75 1.75 0 0 0 -1.75-1.75h-47.25a1.75 1.75 0 0 0 0 3.5h47.25a1.749 1.749 0 0 0 1.75-1.75z"/><path d="m90.667 83.381h-23.625a1.75 1.75 0 0 0 0 3.5h23.625a1.75 1.75 0 0 0 0-3.5z"/><path d="m92.417 75.215a1.75 1.75 0 0 0 -1.75-1.75h-47.25a1.75 1.75 0 0 0 0 3.5h47.25a1.75 1.75 0 0 0 1.75-1.75z"/></g></svg>