<svg id="Layer_2" height="512" viewBox="0 0 128 128" width="512" xmlns="http://www.w3.org/2000/svg" data-name="Layer 2"><path d="m116 98.031h-10.25v-60.5h-40.474v50h-16.376v-50h-47.15v81h114.25a10.25 10.25 0 0 0 0-20.5z" fill="#23a8fe"/><path d="m116 98.031h-10.25v-50.5h-40.474v40h-16.376v-40h-37.15v61h104.5v-10.488c-.084-.002-.166-.012-.25-.012z" fill="#dfebfa"/><path d="m116 15.781h-10.25v82.25h10.25a10.25 10.25 0 0 1 10.25 10.25v-82.25a10.25 10.25 0 0 0 -10.25-10.25z" fill="#4f67d2"/><path d="m105.75 58.584v-11.053h-13.339l4.654 4.654v5.352l-7.865 2.957h-7.54l-2.96-2.957-4.879 1.922-6.357 6.357v6.062l4.287 4.287h5.471l6.433 6.435v8.2l4.768 4.768 6.1-6.1v-3.545l2.809-2.809v-5.6l4.445-4.444-6.517-6.515 6.692-2.037.872.873a6.55 6.55 0 0 0 2.926 1.692z" fill="#55c98f"/><path d="m48.9 9.47h16.38v78.06h-16.38z" fill="#fee55a"/><path d="m48.901 66.498-5.149.782-6.25-5.001-2.667.583-5.749-3.75-.917-2.249 6.418-.833 2.496-8.499h-25.333v6.083l4.292 4.292 1.958 5.5 5.26-.255 8.073 5.046-.916 5.334 3.25 5.416h1.833l-1.083 8.25 1.666 12h3.729l1.606-9.75 4.917-6.25 2.566-.3z" fill="#55c98f"/><g fill="#bc7c63"><path d="m56.83 20.5a1.746 1.746 0 0 1 -1.75 1.75h-6.18v-3.5h6.18a1.746 1.746 0 0 1 1.75 1.75z"/><path d="m55.38 29.83a1.754 1.754 0 0 1 -1.76 1.75h-4.72v-3.5h4.72a1.761 1.761 0 0 1 1.76 1.75z"/><path d="m56.83 39.17a1.752 1.752 0 0 1 -1.75 1.75h-6.18v-3.5h6.18a1.746 1.746 0 0 1 1.75 1.75z"/><path d="m55.38 48.5a1.754 1.754 0 0 1 -1.76 1.75h-4.72v-3.5h4.72a1.754 1.754 0 0 1 1.76 1.75z"/><path d="m56.83 57.83a1.746 1.746 0 0 1 -1.75 1.75h-6.18v-3.5h6.18a1.752 1.752 0 0 1 1.75 1.75z"/><path d="m55.38 67.17a1.761 1.761 0 0 1 -1.76 1.75h-4.72v-3.5h4.72a1.754 1.754 0 0 1 1.76 1.75z"/><path d="m56.83 76.5a1.746 1.746 0 0 1 -1.75 1.75h-6.18v-3.5h6.18a1.746 1.746 0 0 1 1.75 1.75z"/></g></svg>