<svg id="Layer_2" height="512" viewBox="0 0 128 128" width="512" xmlns="http://www.w3.org/2000/svg" data-name="Layer 2"><path d="m95.667 57.743h-11.305a1.75 1.75 0 0 1 0-3.5h11.305a1.75 1.75 0 0 1 0 3.5z" fill="#23a8fe"/><path d="m43.638 57.743h-11.3a1.75 1.75 0 0 1 0-3.5h11.3a1.75 1.75 0 0 1 0 3.5z" fill="#23a8fe"/><path d="m43.638 16.843h40.725v64.605h-40.725z" fill="#4f67d2"/><path d="m53.638 26.843h20.725v12.824h-20.725z" fill="#fee55a"/><path d="m98.458 99.948h-68.916v-6.5a12 12 0 0 1 12-12h44.916a12 12 0 0 1 12 12z" fill="#23a8fe"/><path d="m72.208 126.25h-16.416a4.541 4.541 0 0 1 -4.542-4.542 4.541 4.541 0 0 1 4.542-4.541h16.416a4.541 4.541 0 0 1 4.542 4.541 4.541 4.541 0 0 1 -4.542 4.542z" fill="#4f67d2"/><g fill="#dfebfa"><path d="m66.496 117.167h-4.992l-5.004-17.219h15z"/><rect height="26.286" rx="5" width="30.583" x="95.667" y="42.85"/><rect height="26.286" rx="5" transform="matrix(-1 0 0 -1 34.083 111.987)" width="30.583" x="1.75" y="42.85"/></g><path d="m120.245 54.244h-7.537v-5.389a1.75 1.75 0 1 0 -3.5 0v5.389h-7.536a1.75 1.75 0 0 0 0 3.5h7.536v5.388a1.75 1.75 0 0 0 3.5 0v-5.388h7.537a1.75 1.75 0 0 0 0-3.5z" fill="#cadbef"/><path d="m26.328 54.244h-7.536v-5.389a1.75 1.75 0 0 0 -3.5 0v5.389h-7.537a1.75 1.75 0 0 0 0 3.5h7.537v5.388a1.75 1.75 0 0 0 3.5 0v-5.388h7.536a1.75 1.75 0 1 0 0-3.5z" fill="#cadbef"/><path d="m78.5 16.843h-29v-9.093a6 6 0 0 1 6-6h17a6 6 0 0 1 6 6z" fill="#23a8fe"/><path d="m67.625 11.047h-7.25a1.75 1.75 0 1 1 0-3.5h7.25a1.75 1.75 0 0 1 0 3.5z" fill="#dfebfa"/><path d="m74.362 50.412h-20.724a1.75 1.75 0 0 1 0-3.5h20.724a1.75 1.75 0 0 1 0 3.5z" fill="#dfebfa"/><path d="m69.333 60.917h-10.666a1.75 1.75 0 0 1 0-3.5h10.666a1.75 1.75 0 0 1 0 3.5z" fill="#dfebfa"/></svg>