<svg id="Layer_2" height="512" viewBox="0 0 128 128" width="512" xmlns="http://www.w3.org/2000/svg" data-name="Layer 2"><path d="m41.542 66.654h44.916a12 12 0 0 1 12 12v6.5a0 0 0 0 1 0 0h-68.916a0 0 0 0 1 0 0v-6.5a12 12 0 0 1 12-12z" fill="#bc7c63" transform="matrix(-1 0 0 -1 128 151.808)"/><path d="m55.792 30.7h16.416a4.542 4.542 0 0 1 4.542 4.54 4.542 4.542 0 0 1 -4.542 4.542h-16.416a4.542 4.542 0 0 1 -4.542-4.542 4.542 4.542 0 0 1 4.542-4.54z" fill="#4f67d2"/><path d="m61.504 39.782h4.992l5.004 17.218h-15z" fill="#dfebfa"/><path d="m39.468 113h49.064a6 6 0 0 1 6 6v7.25a0 0 0 0 1 0 0h-61.064a0 0 0 0 1 0 0v-7.25a6 6 0 0 1 6-6z" fill="#4f67d2"/><path d="m51.937 85.154h24.125v27.846h-24.125z" fill="#23a8fe"/><path d="m59.937 93.153h8.125v19.847h-8.125z" fill="#dfebfa"/><path d="m102.506 57h-77.012a4.827 4.827 0 0 0 -4.827 4.827 4.827 4.827 0 0 0 4.827 4.827h77.012a4.827 4.827 0 0 0 4.827-4.827 4.827 4.827 0 0 0 -4.827-4.827z" fill="#fee55a"/><g fill="#dfebfa"><path d="m71.414 23.934a1.732 1.732 0 0 1 -.863-.23 13.507 13.507 0 0 0 -13.1 0 1.749 1.749 0 1 1 -1.73-3.041 17.052 17.052 0 0 1 16.562 0 1.75 1.75 0 0 1 -.867 3.271z"/><path d="m78.087 17.261a1.748 1.748 0 0 1 -1.017-.327 22.454 22.454 0 0 0 -26.14 0 1.75 1.75 0 1 1 -2.037-2.846 25.953 25.953 0 0 1 30.214 0 1.75 1.75 0 0 1 -1.02 3.173z"/><path d="m84.682 10.667a1.742 1.742 0 0 1 -1.082-.375 31.676 31.676 0 0 0 -39.2 0 1.75 1.75 0 1 1 -2.166-2.75 35.179 35.179 0 0 1 43.532 0 1.75 1.75 0 0 1 -1.084 3.125z"/></g></svg>