<svg id="Layer_2" height="512" viewBox="0 0 128 128" width="512" xmlns="http://www.w3.org/2000/svg" data-name="Layer 2"><path d="m43.243 72.43c5.187 0 5.187 2 10.374 2s5.186-2 10.371-2 5.186 2 10.372 2 5.187-2 10.374-2h.175a27.671 27.671 0 1 0 -41.818 0c.053.003.098 0 .152 0z" fill="#fee55a"/><path d="m126.25 97.429c-5.191 0-5.191 2-10.382 2s-5.191-2-10.381-2-5.188 2-10.375 2-5.189-2-10.378-2-5.187 2-10.374 2-5.186-2-10.372-2-5.185 2-10.371 2-5.187-2-10.374-2-5.187 2-10.373 2-5.187-2-10.375-2-5.186 2-10.373 2-5.186-2-10.372-2v25h124.5z" fill="#23a8fe"/><path d="m115.868 86.929c-5.191 0-5.191-2-10.381-2s-5.188 2-10.375 2-5.189-2-10.378-2-5.187 2-10.374 2-5.186-2-10.372-2-5.185 2-10.371 2-5.187-2-10.374-2-5.187 2-10.373 2-5.187-2-10.375-2-5.186 2-10.373 2-5.186-2-10.372-2v12.5c5.186 0 5.186 2 10.372 2s5.187-2 10.373-2 5.188 2 10.375 2 5.186-2 10.373-2 5.187 2 10.374 2 5.186-2 10.371-2 5.186 2 10.372 2 5.187-2 10.374-2 5.189 2 10.378 2 5.187-2 10.375-2 5.19 2 10.381 2 5.191-2 10.382-2v-12.5c-5.191 0-5.191 2-10.382 2z" fill="#4f67d2"/><path d="m115.868 74.43c-5.191 0-5.191-2-10.381-2s-5.188 2-10.375 2-5.189-2-10.378-2-5.187 2-10.374 2-5.186-2-10.372-2-5.185 2-10.371 2-5.187-2-10.374-2-5.187 2-10.373 2-5.187-2-10.375-2-5.186 2-10.373 2-5.186-2-10.372-2v12.5c5.186 0 5.186 2 10.372 2s5.187-2 10.373-2 5.188 2 10.375 2 5.186-2 10.373-2 5.187 2 10.374 2 5.186-2 10.371-2 5.186 2 10.372 2 5.187-2 10.374-2 5.189 2 10.378 2 5.187-2 10.375-2 5.19 2 10.381 2 5.191-2 10.382-2v-12.5c-5.191 0-5.191 2-10.382 2z" fill="#23a8fe"/><path d="m81.671 56.071a1.75 1.75 0 0 1 -1.75-1.75 15.939 15.939 0 0 0 -15.921-15.921 1.75 1.75 0 0 1 0-3.5 19.443 19.443 0 0 1 19.421 19.421 1.75 1.75 0 0 1 -1.75 1.75z" fill="#bc7c63"/><g fill="#fee55a"><path d="m64 19.91a3.133 3.133 0 0 1 -3.133-3.132v-8.078a3.133 3.133 0 0 1 3.133-3.129 3.132 3.132 0 0 1 3.132 3.129v8.075a3.132 3.132 0 0 1 -3.132 3.135z"/><path d="m98.411 54.321a3.132 3.132 0 0 1 3.132-3.132h8.074a3.133 3.133 0 0 1 3.133 3.132 3.133 3.133 0 0 1 -3.133 3.132h-8.074a3.132 3.132 0 0 1 -3.132-3.132z"/><path d="m29.589 54.321a3.132 3.132 0 0 0 -3.132-3.132h-8.075a3.132 3.132 0 0 0 -3.132 3.132 3.132 3.132 0 0 0 3.132 3.132h8.075a3.132 3.132 0 0 0 3.132-3.132z"/><path d="m88.332 29.989a3.133 3.133 0 0 1 0-4.43l13.547-13.547a3.133 3.133 0 0 1 4.43 0 3.133 3.133 0 0 1 0 4.43l-13.547 13.547a3.133 3.133 0 0 1 -4.43 0z"/><path d="m39.668 29.989a3.133 3.133 0 0 0 0-4.43l-13.547-13.547a3.133 3.133 0 0 0 -4.43 0 3.133 3.133 0 0 0 0 4.43l13.547 13.547a3.133 3.133 0 0 0 4.43 0z"/></g></svg>