<svg id="Layer_2" height="512" viewBox="0 0 128 128" width="512" xmlns="http://www.w3.org/2000/svg" data-name="Layer 2"><path d="m48.3 37.67v22.93h4.98a32.32 32.32 0 0 1 6.69.7 12.411 12.411 0 0 0 5.42 6.04 59.026 59.026 0 0 0 6.01 13.25 65.259 65.259 0 0 0 5.02-10.2 12.007 12.007 0 0 0 8.15 3.17h41.68v20h-10.42v32.69h-20v-32.69h-11.26a31.921 31.921 0 0 1 -22.72-9.41 12.034 12.034 0 0 0 -8.57-3.55h-4.98v45.65h-20v-45.65h-26.55v-20h26.55v-22.93h-26.55v-20h26.55v-15.92h20v15.92h77.95v20z" fill="#dfebfa"/><path d="m83.8 56.492a12.4 12.4 0 1 0 -18.408 10.847 58.865 58.865 0 0 0 6.008 13.247 58.846 58.846 0 0 0 6.01-13.247 12.4 12.4 0 0 0 6.39-10.847z" fill="#4f67d2"/><path d="m71.4 61.739a5.247 5.247 0 1 1 5.247-5.247 5.253 5.253 0 0 1 -5.247 5.247z" fill="#fee55a"/><g fill="#cadbef"><path d="m40.05 1.75v9.25a1.75 1.75 0 0 1 -3.5 0v-9.25z"/><path d="m38.3 54.767a1.75 1.75 0 0 0 1.75-1.75v-9.25a1.75 1.75 0 0 0 -3.5 0v9.25a1.751 1.751 0 0 0 1.75 1.75z"/><path d="m38.3 84.034a1.75 1.75 0 0 0 -1.75 1.75v9.25a1.75 1.75 0 0 0 3.5 0v-9.25a1.749 1.749 0 0 0 -1.75-1.75z"/><path d="m38.3 105.042a1.751 1.751 0 0 0 -1.75 1.75v9.25a1.75 1.75 0 0 0 3.5 0v-9.25a1.75 1.75 0 0 0 -1.75-1.75z"/><path d="m107.7 117.05v9.2h-3.5v-9.2a1.75 1.75 0 0 1 3.5 0z"/><path d="m105.945 94.962a1.751 1.751 0 0 0 -1.75 1.75v9.2a1.75 1.75 0 0 0 3.5 0v-9.2a1.75 1.75 0 0 0 -1.75-1.75z"/><path d="m14.42 27.38a1.752 1.752 0 0 1 -1.75 1.75h-10.92v-3.5h10.92a1.758 1.758 0 0 1 1.75 1.75z"/><path d="m43.76 25.633h-3.709v-2.875a1.75 1.75 0 1 0 -3.5 0v2.875h-3.708a1.75 1.75 0 0 0 0 3.5h3.708v2.875a1.75 1.75 0 0 0 3.5 0v-2.875h3.709a1.75 1.75 0 0 0 0-3.5z"/><path d="m74.853 25.633h-10.917a1.75 1.75 0 0 0 0 3.5h10.917a1.75 1.75 0 0 0 0-3.5z"/><path d="m107.7 27.383a1.75 1.75 0 0 0 -1.75-1.75h-10.921a1.75 1.75 0 0 0 0 3.5h10.916a1.749 1.749 0 0 0 1.755-1.75z"/><path d="m126.25 81.81v3.5h-5.31a1.75 1.75 0 0 1 0-3.5z"/><path d="m110.133 81.125h-8.375a1.75 1.75 0 1 0 0 3.5h2.442v.959a1.75 1.75 0 0 0 3.5 0v-.959h2.438a1.75 1.75 0 0 0 0-3.5z"/><path d="m14.42 70.6a1.758 1.758 0 0 1 -1.75 1.75h-10.92v-3.5h10.92a1.752 1.752 0 0 1 1.75 1.75z"/><path d="m43.76 68.847h-3.709v-4.072a1.75 1.75 0 1 0 -3.5 0v4.072h-3.708a1.75 1.75 0 0 0 0 3.5h3.708v1.678a1.75 1.75 0 0 0 3.5 0v-1.678h3.709a1.75 1.75 0 1 0 0-3.5z"/></g></svg>