<svg id="Layer_2" height="512" viewBox="0 0 128 128" width="512" xmlns="http://www.w3.org/2000/svg" data-name="Layer 2"><circle cx="64" cy="64" fill="#fee55a" r="35.333"/><path d="m89.333 65.75a1.75 1.75 0 0 1 -1.75-1.75 23.609 23.609 0 0 0 -23.583-23.583 1.75 1.75 0 0 1 0-3.5 27.113 27.113 0 0 1 27.083 27.083 1.75 1.75 0 0 1 -1.75 1.75z" fill="#bc7c63"/><g fill="#fee55a"><path d="m64 20.06a4 4 0 0 1 -4-4v-10.31a4 4 0 0 1 4-4 4 4 0 0 1 4 4v10.31a4 4 0 0 1 -4 4z"/><path d="m64 107.94a4 4 0 0 0 -4 4v10.31a4 4 0 0 0 4 4 4 4 0 0 0 4-4v-10.31a4 4 0 0 0 -4-4z"/><path d="m107.94 64a4 4 0 0 1 4-4h10.31a4 4 0 0 1 4 4 4 4 0 0 1 -4 4h-10.31a4 4 0 0 1 -4-4z"/><path d="m20.06 64a4 4 0 0 0 -4-4h-10.31a4 4 0 0 0 -4 4 4 4 0 0 0 4 4h10.31a4 4 0 0 0 4-4z"/><path d="m95.07 32.93a4 4 0 0 1 0-5.657l17.3-17.3a4 4 0 0 1 5.657 0 4 4 0 0 1 0 5.657l-17.3 17.3a4 4 0 0 1 -5.657 0z"/><path d="m32.93 95.07a4 4 0 0 0 -5.657 0l-17.3 17.3a4 4 0 0 0 0 5.656 4 4 0 0 0 5.656 0l17.3-17.3a4 4 0 0 0 .001-5.656z"/><path d="m95.07 95.07a4 4 0 0 1 5.657 0l17.3 17.3a4 4 0 0 1 0 5.656 4 4 0 0 1 -5.657 0l-17.3-17.3a4 4 0 0 1 0-5.656z"/><path d="m32.93 32.93a4 4 0 0 0 0-5.657l-17.3-17.3a4 4 0 0 0 -5.656 0 4 4 0 0 0 0 5.657l17.3 17.3a4 4 0 0 0 5.656 0z"/></g></svg>