<svg id="Layer_2" height="512" viewBox="0 0 128 128" width="512" xmlns="http://www.w3.org/2000/svg" data-name="Layer 2"><path d="m117.91 32.875-53.91-31.125-53.91 31.125 53.91 31.125z" fill="#8affc7"/><path d="m10.09 65.901v29.224l53.91 31.125v-29.224z" fill="#bc7c63"/><path d="m64 126.25 53.91-31.125v-29.224l-53.91 31.125z" fill="#bc7c63"/><path d="m64 64-53.91-31.125v33.026l53.91 31.125z" fill="#55c98f"/><path d="m36.168 70.935a1.747 1.747 0 0 1 -.874-.235l-11.978-6.916a1.75 1.75 0 1 1 1.75-3.031l11.978 6.916a1.75 1.75 0 0 1 -.876 3.266z" fill="#dfebfa"/><path d="m25.492 54.637a1.736 1.736 0 0 1 -.874-.235l-7.218-4.17a1.75 1.75 0 1 1 1.75-3.031l7.223 4.17a1.75 1.75 0 0 1 -.876 3.266z" fill="#dfebfa"/><path d="m51.043 69.39a1.743 1.743 0 0 1 -.873-.235l-11.346-6.555a1.75 1.75 0 1 1 1.75-3.031l11.346 6.555a1.75 1.75 0 0 1 -.877 3.266z" fill="#dfebfa"/><path d="m64 64v33.026l53.91-31.125v-33.026z" fill="#55c98f"/><path d="m94.348 70.7a1.75 1.75 0 0 1 -.877-3.265l11.007-6.355a1.75 1.75 0 0 1 1.75 3.031l-11.007 6.354a1.742 1.742 0 0 1 -.873.235z" fill="#dfebfa"/><path d="m74.254 67.434-10.254 5.92v3.771a1.743 1.743 0 0 0 .874-.234l11.126-6.426a1.75 1.75 0 1 0 -1.75-3.031z" fill="#dfebfa"/><path d="m85.417 64.761a1.75 1.75 0 0 1 -.877-3.261l11.883-6.86a1.75 1.75 0 0 1 1.75 3.031l-11.883 6.855a1.73 1.73 0 0 1 -.873.235z" fill="#dfebfa"/><g fill="#fee55a"><path d="m22.545 73.092a7.288 7.288 0 1 0 12.533 7.236z"/><path d="m42.509 104.834a7.291 7.291 0 0 0 -6.923 5.011l12.354 7.133a7.283 7.283 0 0 0 -5.431-12.144z"/><path d="m72.276 92.34a7.591 7.591 0 1 0 11.3-6.617l-11.3 6.522c.005.032 0 .063 0 .095z"/><path d="m117.91 87.444a7.586 7.586 0 0 0 -8.436 12.556l8.436-4.87z"/></g></svg>