<svg id="Layer_2" height="512" viewBox="0 0 128 128" width="512" xmlns="http://www.w3.org/2000/svg" data-name="Layer 2"><path d="m112.542 36.961v-28.878a6.334 6.334 0 0 0 -12.667 0v28.878a16.2 16.2 0 1 0 12.667 0z" fill="#fee55a"/><path d="m106.209 58.073a6.2 6.2 0 1 1 6.2-6.2 6.207 6.207 0 0 1 -6.2 6.2z" fill="#bc7c63"/><path d="m106.209 47.425a1.749 1.749 0 0 1 -1.75-1.75v-33.917a1.75 1.75 0 1 1 3.5 0v33.917a1.749 1.749 0 0 1 -1.75 1.75z" fill="#bc7c63"/><path d="m106.208 68.073a16.195 16.195 0 0 1 -7.659-30.466 53.219 53.219 0 1 0 13.5 35.414 53.713 53.713 0 0 0 -.337-5.928 16.128 16.128 0 0 1 -5.504.98z" fill="#23a8fe"/><g fill="#8affc7"><path d="m19.16 78.227-7.66-6.133-3.271.716-2.589-1.686c-.022.631-.048 1.261-.048 1.9a52.986 52.986 0 0 0 10.854 32.2l5.882-7.476 13.087-1.531.1-11.553-6.233-7.973z"/><path d="m90.573 56.052-7.919-5.119 7.984-3.51a16.223 16.223 0 0 1 7.9-9.81 53.2 53.2 0 0 0 -53.571-15.989l.633 2.826 25.452 3.306 15.9 10.266-10.543 4.83-17.784-1.96-5.437-5.437-8.971 3.534-11.689 11.689v15.422l7.883 7.883h10.058l11.825 11.828v15.089l8.767 8.767 11.214-11.215v-6.524l5.165-5.165v-10.3l8.172-8.173-.886-5a16.178 16.178 0 0 1 -4.153-7.238z"/></g></svg>