<svg id="Layer_2" height="512" viewBox="0 0 128 128" width="512" xmlns="http://www.w3.org/2000/svg" data-name="Layer 2"><path d="m1.75 118h124.5v8.25h-124.5z" fill="#bc7c63"/><path d="m56.167 70.167 3.333-5 9-1.167v11.18a3.583 3.583 0 0 0 3.583 3.583 3.584 3.584 0 0 0 3.584-3.583v-11.18l6.906-1.137-11.447-16.863-11.126 2.663-4.667-.846-9.255 14.016h3.722z" fill="#fee55a"/><path d="m120 118-37.427-55.137-6.906 1.137v11.18a3.584 3.584 0 0 1 -3.584 3.583 3.583 3.583 0 0 1 -3.583-3.583v-11.18l-9 1.167-3.333 5-6.367-8.334h-3.722l-37.078 56.167z" fill="#23a8fe"/><path d="m93 11.833a12 12 0 0 0 -3.622.559c-3.047-6.132-13.252-10.642-25.378-10.642s-22.331 4.51-25.378 10.642a12 12 0 1 0 3.012 21.437 11.957 11.957 0 0 0 16.866 2.316v12.246l1.5.272 9.5-2.274v-10.244a11.957 11.957 0 0 0 16.866-2.316 12 12 0 1 0 6.634-22z" fill="#dfebfa"/><path d="m80.424 18.593a1.75 1.75 0 0 1 -1.557-.949c-.559-.858-5.738-4.144-14.867-4.144a1.75 1.75 0 0 1 0-3.5c9.7 0 16.675 3.509 17.979 6.042a1.751 1.751 0 0 1 -1.555 2.551z" fill="#cadbef"/></svg>