<svg id="Layer_2" height="512" viewBox="0 0 128 128" width="512" xmlns="http://www.w3.org/2000/svg" data-name="Layer 2"><path d="m116.276 11.042-9.013 9.013h-8.263l-6.626 6.626-8.118 8.119v51.359a6.18 6.18 0 0 1 1.882 4.195h2.1a3.228 3.228 0 1 1 0 6.455h38.012v-85.767z" fill="#bc7c63"/><path d="m36.531 93.582a3.228 3.228 0 0 1 3.228-3.228h2.379a6.174 6.174 0 0 1 1.605-3.9v-51.654l-8.117-8.117-6.626-6.628h-8.263l-9.013-9.013h-9.974v85.767h38.009a3.227 3.227 0 0 1 -3.228-3.227z" fill="#bc7c63"/><path d="m29.833 42.875h-10.275l-5.821-5.82a1.749 1.749 0 0 0 -2.474 2.474l6.337 6.333a1.75 1.75 0 0 0 1.237.513h9.25v5.917a1.75 1.75 0 0 0 3.5 0v-7.667a1.749 1.749 0 0 0 -1.754-1.75z" fill="#fee55a"/><path d="m23.263 63.555-8.083 8.083a1.748 1.748 0 0 0 0 2.474l4.552 4.553-5.721 5.721a1.749 1.749 0 1 0 2.474 2.474l6.959-6.96a1.748 1.748 0 0 0 0-2.474l-4.552-4.553 6.845-6.846a1.749 1.749 0 0 0 -2.474-2.474z" fill="#fee55a"/><path d="m116.737 37.055a1.748 1.748 0 0 0 -2.474 0l-5.821 5.82h-10.275a1.749 1.749 0 0 0 -1.75 1.75v7.667a1.75 1.75 0 0 0 3.5 0v-5.917h9.25a1.75 1.75 0 0 0 1.237-.513l6.333-6.333a1.748 1.748 0 0 0 0-2.474z" fill="#fee55a"/><path d="m108.268 78.665 4.552-4.553a1.748 1.748 0 0 0 0-2.474l-8.083-8.083a1.749 1.749 0 0 0 -2.474 2.474l6.845 6.846-4.552 4.553a1.748 1.748 0 0 0 0 2.474l6.959 6.958a1.749 1.749 0 0 0 2.474-2.474z" fill="#fee55a"/><path d="m1.75 96.809h124.5v20.149h-124.5z" fill="#23a8fe"/><path d="m88.241 90.354h-2.1a6.189 6.189 0 0 0 -12.141-1.431 4.939 4.939 0 0 0 -6.334-1.578 6.183 6.183 0 0 0 -10.558.072 4.713 4.713 0 0 0 -3.753-.41 6.186 6.186 0 0 0 -11.215 3.347h-2.381a3.228 3.228 0 1 0 0 6.455h48.482a3.228 3.228 0 1 0 0-6.455z" fill="#dfebfa"/><path d="m48.321 84.417a6.181 6.181 0 0 1 5.032 2.59 4.713 4.713 0 0 1 3.753.41 6.183 6.183 0 0 1 10.558-.072 4.939 4.939 0 0 1 6.336 1.578 6.187 6.187 0 0 1 10.258-2.764v-51.359h-40.515v51.651a6.163 6.163 0 0 1 4.578-2.034z" fill="#23a8fe"/><g fill="#4f67d2"><path d="m50.75 34.8v15.117a1.75 1.75 0 0 0 3.5 0v-15.117z"/><path d="m61.25 65.792a1.749 1.749 0 0 1 -1.75-1.75v-15.375a1.75 1.75 0 0 1 3.5 0v15.375a1.749 1.749 0 0 1 -1.75 1.75z"/><path d="m75 67.292a1.749 1.749 0 0 0 -1.75 1.75v19.041a5.024 5.024 0 0 1 .748.84 6.206 6.206 0 0 1 2.752-3.592v-16.289a1.749 1.749 0 0 0 -1.75-1.75z"/><path d="m54.75 77.667a1.749 1.749 0 0 1 -1.75-1.75v-7.625a1.75 1.75 0 0 1 3.5 0v7.625a1.749 1.749 0 0 1 -1.75 1.75z"/><path d="m70.375 52.168a1.749 1.749 0 0 1 -1.75-1.75v-7.625a1.75 1.75 0 0 1 3.5 0v7.625a1.749 1.749 0 0 1 -1.75 1.75z"/><path d="m30.833 107.042h-16.333a1.75 1.75 0 0 1 0-3.5h16.333a1.75 1.75 0 0 1 0 3.5z"/><path d="m93.333 107.042h-16.333a1.75 1.75 0 0 1 0-3.5h16.333a1.75 1.75 0 0 1 0 3.5z"/><path d="m57.333 112.042h-10.333a1.75 1.75 0 0 1 0-3.5h10.333a1.75 1.75 0 0 1 0 3.5z"/><path d="m110.42 112.042h-10.333a1.75 1.75 0 0 1 0-3.5h10.333a1.75 1.75 0 0 1 0 3.5z"/></g></svg>