<svg id="Layer_2" height="512" viewBox="0 0 128 128" width="512" xmlns="http://www.w3.org/2000/svg" data-name="Layer 2"><path d="m64 47.189 39.625-22.814-22.814 39.625 22.814 39.625-39.625-22.814-39.625 22.814 22.813-39.625-22.813-39.625z" fill="#4f67d2"/><path d="m74.59 86.91-8.84 32.84-1.75 6.5-1.75-6.5-8.84-32.84 8.84-5.09 1.75-1.01 1.75 1.01z" fill="#fee55a"/><path d="m126.25 64-6.5 1.75-32.84 8.84-5.09-8.84-1.01-1.75 1.01-1.75 5.09-8.84 32.84 8.84z" fill="#fee55a"/><path d="m74.59 41.09-8.84 5.09-1.75 1.01-1.75-1.01-8.84-5.09 8.84-32.84 1.75-6.5 1.75 6.5z" fill="#fee55a"/><path d="m47.19 64-1.01 1.75-5.09 8.84-32.84-8.84-6.5-1.75 6.5-1.75 32.84-8.84 5.09 8.84z" fill="#fee55a"/><g fill="#8affc7"><path d="m86.5 34.234a37.152 37.152 0 0 0 -15.618-6.924l3.71 13.78z"/><path d="m86.91 74.592 6.856 11.908a37.133 37.133 0 0 0 6.923-15.619z"/><path d="m86.91 53.408 13.779 3.71a37.133 37.133 0 0 0 -6.923-15.618z"/><path d="m53.408 41.09 3.71-13.78a37.147 37.147 0 0 0 -15.618 6.924z"/><path d="m74.592 86.91-3.71 13.78a37.152 37.152 0 0 0 15.618-6.924z"/><path d="m41.5 93.766a37.147 37.147 0 0 0 15.619 6.924l-3.71-13.78z"/><path d="m27.31 70.882a37.147 37.147 0 0 0 6.924 15.618l6.856-11.908z"/><path d="m27.31 57.118 13.78-3.71-6.856-11.908a37.147 37.147 0 0 0 -6.924 15.618z"/></g><path d="m81.819 65.75-1.007-1.75 1.007-1.75h-13.594l32.042-32.042 3.358-5.833-5.833 3.358-32.042 32.042v-13.594l-1.75 1.007-1.75-1.007v13.594l-32.042-32.042-5.833-3.358 3.358 5.833 32.042 32.042h-13.594l1.007 1.75-1.007 1.75h13.594l-32.042 32.042-3.358 5.833 5.833-3.358 32.042-32.042v13.594l1.75-1.008 1.75 1.008v-13.594l32.042 32.042 5.833 3.358-3.358-5.833-32.042-32.042z" fill="#23a8fe"/><path d="m126.25 64-6.5 1.75h-37.93l-1.01-1.75 1.01-1.75h37.93z" fill="#bc7c63"/><path d="m47.19 64-1.01 1.75h-37.93l-6.5-1.75 6.5-1.75h37.93z" fill="#bc7c63"/><path d="m65.75 8.25v37.93l-1.75 1.01-1.75-1.01v-37.93l1.75-6.5z" fill="#bc7c63"/><path d="m65.75 81.82v37.93l-1.75 6.5-1.75-6.5v-37.93l1.75-1.01z" fill="#bc7c63"/></svg>